%TF.GenerationSoftware,KiCad,Pcbnew,9.0.4-9.0.4-0~ubuntu24.04.1*%
%TF.CreationDate,2025-09-30T19:45:04+02:00*%
%TF.ProjectId,iec62386-panel-front-test,69656336-3233-4383-962d-70616e656c2d,rev?*%
%TF.SameCoordinates,Original*%
%TF.FileFunction,Legend,Bot*%
%TF.FilePolarity,Positive*%
%FSLAX46Y46*%
G04 Gerber Fmt 4.6, Leading zero omitted, Abs format (unit mm)*
G04 Created by KiCad (PCBNEW 9.0.4-9.0.4-0~ubuntu24.04.1) date 2025-09-30 19:45:04*
%MOMM*%
%LPD*%
G01*
G04 APERTURE LIST*
%ADD10C,0.150000*%
%ADD11C,0.120000*%
G04 APERTURE END LIST*
D10*
X70928333Y-65374819D02*
X70928333Y-66089104D01*
X70928333Y-66089104D02*
X70975952Y-66231961D01*
X70975952Y-66231961D02*
X71071190Y-66327200D01*
X71071190Y-66327200D02*
X71214047Y-66374819D01*
X71214047Y-66374819D02*
X71309285Y-66374819D01*
X69928333Y-66374819D02*
X70499761Y-66374819D01*
X70214047Y-66374819D02*
X70214047Y-65374819D01*
X70214047Y-65374819D02*
X70309285Y-65517676D01*
X70309285Y-65517676D02*
X70404523Y-65612914D01*
X70404523Y-65612914D02*
X70499761Y-65660533D01*
X109528333Y-65374819D02*
X109528333Y-66089104D01*
X109528333Y-66089104D02*
X109575952Y-66231961D01*
X109575952Y-66231961D02*
X109671190Y-66327200D01*
X109671190Y-66327200D02*
X109814047Y-66374819D01*
X109814047Y-66374819D02*
X109909285Y-66374819D01*
X109099761Y-65470057D02*
X109052142Y-65422438D01*
X109052142Y-65422438D02*
X108956904Y-65374819D01*
X108956904Y-65374819D02*
X108718809Y-65374819D01*
X108718809Y-65374819D02*
X108623571Y-65422438D01*
X108623571Y-65422438D02*
X108575952Y-65470057D01*
X108575952Y-65470057D02*
X108528333Y-65565295D01*
X108528333Y-65565295D02*
X108528333Y-65660533D01*
X108528333Y-65660533D02*
X108575952Y-65803390D01*
X108575952Y-65803390D02*
X109147380Y-66374819D01*
X109147380Y-66374819D02*
X108528333Y-66374819D01*
D11*
%TO.C,J1*%
X69215000Y-66920000D02*
X69215000Y-67490000D01*
X69215000Y-67490000D02*
X67745000Y-67490000D01*
X69215000Y-69110000D02*
X69215000Y-72570000D01*
X69215000Y-74190000D02*
X69215000Y-77650000D01*
X69215000Y-79270000D02*
X69215000Y-82730000D01*
X69215000Y-84350000D02*
X69215000Y-87810000D01*
X69215000Y-89430000D02*
X69215000Y-92540000D01*
X71975000Y-66920000D02*
X69215000Y-66920000D01*
X71975000Y-66920000D02*
X71975000Y-70030000D01*
X71975000Y-67490000D02*
X71975000Y-70030000D01*
X71975000Y-71650000D02*
X71975000Y-75110000D01*
X71975000Y-76730000D02*
X71975000Y-80190000D01*
X71975000Y-81810000D02*
X71975000Y-85270000D01*
X71975000Y-86890000D02*
X71975000Y-90350000D01*
X71975000Y-91970000D02*
X71975000Y-92540000D01*
X71975000Y-92540000D02*
X69215000Y-92540000D01*
%TO.C,J2*%
X107815000Y-66920000D02*
X107815000Y-67490000D01*
X107815000Y-67490000D02*
X106345000Y-67490000D01*
X107815000Y-69110000D02*
X107815000Y-72570000D01*
X107815000Y-74190000D02*
X107815000Y-77650000D01*
X107815000Y-79270000D02*
X107815000Y-82730000D01*
X107815000Y-84350000D02*
X107815000Y-87810000D01*
X107815000Y-89430000D02*
X107815000Y-92540000D01*
X110575000Y-66920000D02*
X107815000Y-66920000D01*
X110575000Y-66920000D02*
X110575000Y-70030000D01*
X110575000Y-67490000D02*
X110575000Y-70030000D01*
X110575000Y-71650000D02*
X110575000Y-75110000D01*
X110575000Y-76730000D02*
X110575000Y-80190000D01*
X110575000Y-81810000D02*
X110575000Y-85270000D01*
X110575000Y-86890000D02*
X110575000Y-90350000D01*
X110575000Y-91970000D02*
X110575000Y-92540000D01*
X110575000Y-92540000D02*
X107815000Y-92540000D01*
%TD*%
M02*
