M48
; DRILL file {KiCad 9.0.4} date 2025-12-02T17:22:57+0100
; FORMAT={-:-/ absolute / metric / decimal}
; #@! TF.CreationDate,2025-12-02T17:22:57+01:00
; #@! TF.GenerationSoftware,Kicad,Pcbnew,9.0.4
; #@! TF.FileFunction,Plated,1,2,PTH
FMAT,2
METRIC
; #@! TA.AperFunction,Plated,PTH,ViaDrill
T1C0.400
; #@! TA.AperFunction,Plated,PTH,ViaDrill
T2C0.500
; #@! TA.AperFunction,Plated,PTH,ComponentDrill
T3C0.700
; #@! TA.AperFunction,Plated,PTH,ComponentDrill
T4C1.000
; #@! TA.AperFunction,Plated,PTH,ComponentDrill
T5C1.100
%
G90
G05
T1
X96.75Y-106.55
X98.15Y-87.85
X98.5Y-107.35
X98.85Y-103.35
X99.4Y-95.7
X99.475Y-94.675
X99.5Y-106.504
X99.8Y-93.7
X100.0Y-92.6
X100.6Y-103.75
X100.85Y-101.3
X101.35Y-82.05
X101.45Y-106.55
X101.682Y-90.922
X102.4Y-107.0
X103.0Y-105.85
X103.3Y-85.892
X103.4Y-84.75
X103.4Y-102.95
X104.3Y-101.6
X104.4Y-106.9
X104.45Y-102.5
X104.65Y-91.3
X105.35Y-103.0
X106.241Y-103.129
X106.4Y-107.7
X106.45Y-87.8
X107.15Y-102.999
X107.55Y-89.45
X107.99Y-105.05
X108.052Y-103.015
X108.919Y-105.053
X109.15Y-91.2
X109.178Y-102.919
X109.5Y-89.4
X109.55Y-102.1
X110.49Y-103.191
X110.5Y-106.05
X110.7Y-107.7
X111.8Y-83.95
X113.217Y-93.775
X113.75Y-93.05
X113.75Y-94.5
X113.85Y-106.9
X114.25Y-92.3
X114.55Y-100.95
X114.55Y-103.2
X117.0Y-83.2
X119.9Y-73.8
X120.4Y-89.75
X123.258Y-99.619
X124.7Y-99.2
T2
X97.35Y-81.4
X97.45Y-83.25
X102.25Y-73.65
X108.15Y-79.65
X110.85Y-81.6
X111.61Y-72.593
X111.65Y-80.4
X116.4Y-74.05
X119.9Y-76.5
X121.15Y-68.05
X122.212Y-88.275
T3
X105.105Y-83.885
X105.105Y-85.155
X105.105Y-86.425
X106.375Y-83.885
X106.375Y-85.155
X106.375Y-86.425
T4
X88.9Y-75.81
X88.9Y-78.35
X88.9Y-80.89
X88.9Y-83.43
X88.9Y-85.97
X88.9Y-88.51
X88.9Y-91.05
X88.9Y-93.59
X88.9Y-96.13
X88.9Y-98.67
X127.5Y-75.81
X127.5Y-78.35
X127.5Y-80.89
X127.5Y-83.43
X127.5Y-85.97
X127.5Y-88.51
X127.5Y-91.05
X127.5Y-93.59
X127.5Y-96.13
X127.5Y-98.67
T5
X96.735Y-69.622
X100.545Y-69.622
X104.355Y-69.622
X108.165Y-69.622
M30
