%TF.GenerationSoftware,KiCad,Pcbnew,9.0.4*%
%TF.CreationDate,2025-12-02T17:22:54+01:00*%
%TF.ProjectId,iec62386-panel,69656336-3233-4383-962d-70616e656c2e,rev?*%
%TF.SameCoordinates,Original*%
%TF.FileFunction,Copper,L2,Bot*%
%TF.FilePolarity,Positive*%
%FSLAX46Y46*%
G04 Gerber Fmt 4.6, Leading zero omitted, Abs format (unit mm)*
G04 Created by KiCad (PCBNEW 9.0.4) date 2025-12-02 17:22:54*
%MOMM*%
%LPD*%
G01*
G04 APERTURE LIST*
G04 Aperture macros list*
%AMRoundRect*
0 Rectangle with rounded corners*
0 $1 Rounding radius*
0 $2 $3 $4 $5 $6 $7 $8 $9 X,Y pos of 4 corners*
0 Add a 4 corners polygon primitive as box body*
4,1,4,$2,$3,$4,$5,$6,$7,$8,$9,$2,$3,0*
0 Add four circle primitives for the rounded corners*
1,1,$1+$1,$2,$3*
1,1,$1+$1,$4,$5*
1,1,$1+$1,$6,$7*
1,1,$1+$1,$8,$9*
0 Add four rect primitives between the rounded corners*
20,1,$1+$1,$2,$3,$4,$5,0*
20,1,$1+$1,$4,$5,$6,$7,0*
20,1,$1+$1,$6,$7,$8,$9,0*
20,1,$1+$1,$8,$9,$2,$3,0*%
G04 Aperture macros list end*
%TA.AperFunction,ComponentPad*%
%ADD10C,1.050000*%
%TD*%
%TA.AperFunction,ComponentPad*%
%ADD11R,1.700000X1.700000*%
%TD*%
%TA.AperFunction,ComponentPad*%
%ADD12C,1.700000*%
%TD*%
%TA.AperFunction,ComponentPad*%
%ADD13RoundRect,0.250000X0.625000X0.625000X-0.625000X0.625000X-0.625000X-0.625000X0.625000X-0.625000X0*%
%TD*%
%TA.AperFunction,ComponentPad*%
%ADD14C,1.750000*%
%TD*%
%TA.AperFunction,ViaPad*%
%ADD15C,0.700000*%
%TD*%
%TA.AperFunction,ViaPad*%
%ADD16C,0.800000*%
%TD*%
%TA.AperFunction,Conductor*%
%ADD17C,0.200000*%
%TD*%
%TA.AperFunction,Conductor*%
%ADD18C,0.250000*%
%TD*%
%TA.AperFunction,Conductor*%
%ADD19C,0.300000*%
%TD*%
%TA.AperFunction,Conductor*%
%ADD20C,0.800000*%
%TD*%
G04 APERTURE END LIST*
D10*
%TO.P,J6,1,Pin_1*%
%TO.N,Net-(J6-Pin_1)*%
X105105000Y-86425000D03*
%TO.P,J6,2,Pin_2*%
%TO.N,Net-(J6-Pin_2)*%
X106375000Y-86425000D03*
%TO.P,J6,3,Pin_3*%
%TO.N,Net-(J6-Pin_3)*%
X105105000Y-85155000D03*
%TO.P,J6,4,Pin_4*%
%TO.N,GND*%
X106375000Y-85155000D03*
%TO.P,J6,5,Pin_5*%
X105105000Y-83885000D03*
%TO.P,J6,6,Pin_6*%
%TO.N,+2V7*%
X106375000Y-83885000D03*
%TD*%
D11*
%TO.P,J2,1,Pin_1*%
%TO.N,unconnected-(J2-Pin_1-Pad1)*%
X88900000Y-75810000D03*
D12*
%TO.P,J2,2,Pin_2*%
%TO.N,Net-(J2-Pin_2)*%
X88900000Y-78350000D03*
%TO.P,J2,3,Pin_3*%
%TO.N,Net-(J2-Pin_3)*%
X88900000Y-80890000D03*
%TO.P,J2,4,Pin_4*%
%TO.N,Net-(J2-Pin_4)*%
X88900000Y-83430000D03*
%TO.P,J2,5,Pin_5*%
%TO.N,Net-(J2-Pin_5)*%
X88900000Y-85970000D03*
%TO.P,J2,6,Pin_6*%
%TO.N,Net-(J2-Pin_6)*%
X88900000Y-88510000D03*
%TO.P,J2,7,Pin_7*%
%TO.N,Net-(J2-Pin_7)*%
X88900000Y-91050000D03*
%TO.P,J2,8,Pin_8*%
%TO.N,Net-(J2-Pin_8)*%
X88900000Y-93590000D03*
%TO.P,J2,9,Pin_9*%
%TO.N,Net-(J2-Pin_9)*%
X88900000Y-96130000D03*
%TO.P,J2,10,Pin_10*%
%TO.N,unconnected-(J2-Pin_10-Pad10)*%
X88900000Y-98670000D03*
%TD*%
D11*
%TO.P,J3,1,Pin_1*%
%TO.N,unconnected-(J3-Pin_1-Pad1)*%
X127500000Y-75810000D03*
D12*
%TO.P,J3,2,Pin_2*%
%TO.N,Net-(J3-Pin_2)*%
X127500000Y-78350000D03*
%TO.P,J3,3,Pin_3*%
%TO.N,Net-(J3-Pin_3)*%
X127500000Y-80890000D03*
%TO.P,J3,4,Pin_4*%
%TO.N,Net-(J3-Pin_4)*%
X127500000Y-83430000D03*
%TO.P,J3,5,Pin_5*%
%TO.N,Net-(J3-Pin_5)*%
X127500000Y-85970000D03*
%TO.P,J3,6,Pin_6*%
%TO.N,Net-(J3-Pin_6)*%
X127500000Y-88510000D03*
%TO.P,J3,7,Pin_7*%
%TO.N,Net-(J3-Pin_7)*%
X127500000Y-91050000D03*
%TO.P,J3,8,Pin_8*%
%TO.N,Net-(J3-Pin_8)*%
X127500000Y-93590000D03*
%TO.P,J3,9,Pin_9*%
%TO.N,Net-(J3-Pin_9)*%
X127500000Y-96130000D03*
%TO.P,J3,10,Pin_10*%
%TO.N,unconnected-(J3-Pin_10-Pad10)*%
X127500000Y-98670000D03*
%TD*%
D13*
%TO.P,J1,1,Pin_1*%
%TO.N,/IEC 62386 interface/BUS_2*%
X108165000Y-69621886D03*
D14*
%TO.P,J1,2,Pin_2*%
X104355000Y-69621886D03*
%TO.P,J1,3,Pin_3*%
%TO.N,/IEC 62386 interface/BUS_1*%
X100545000Y-69621886D03*
%TO.P,J1,4,Pin_4*%
X96735000Y-69621886D03*
%TD*%
D15*
%TO.N,GND*%
X100600000Y-103750000D03*
X114550000Y-100950000D03*
X114550000Y-103200000D03*
X113850000Y-106900000D03*
%TO.N,+2V7*%
X110500000Y-106050000D03*
%TO.N,GND*%
X109150000Y-91200000D03*
D16*
X111650000Y-80400000D03*
D15*
X98150000Y-87850000D03*
D16*
X97350000Y-81400000D03*
D15*
%TO.N,Net-(J3-Pin_4)*%
X113216729Y-93774999D03*
%TO.N,GND*%
X103400000Y-102950000D03*
%TO.N,DALI_RX*%
X109177577Y-102919332D03*
%TO.N,GND*%
X117000000Y-83200000D03*
X119900000Y-73800000D03*
%TO.N,+2V7*%
X98850000Y-103350000D03*
D16*
%TO.N,VS*%
X97450000Y-83250000D03*
X110850000Y-81600000D03*
D15*
%TO.N,DALI_TX*%
X101350000Y-82050000D03*
%TO.N,VBUF_TEST*%
X107550000Y-89450000D03*
%TO.N,UART_TX*%
X106450000Y-87800000D03*
%TO.N,BUZZER1*%
X124700000Y-99200000D03*
%TO.N,BUZZER2*%
X123257648Y-99619407D03*
%TO.N,DALI_RX*%
X120400000Y-89750000D03*
D16*
%TO.N,VBUS*%
X119900000Y-76500000D03*
X108150000Y-79650000D03*
X116400000Y-74050000D03*
D15*
%TO.N,Net-(J6-Pin_1)*%
X103300001Y-85892485D03*
%TO.N,Net-(J3-Pin_5)*%
X113750000Y-94500000D03*
%TO.N,+2V7*%
X103400000Y-84750000D03*
%TO.N,VBUF_TEST*%
X107150261Y-102999122D03*
%TO.N,BUZZER2*%
X109550000Y-102100000D03*
D16*
%TO.N,Net-(D4-A2)*%
X111609875Y-72592679D03*
X121150000Y-68050000D03*
D15*
%TO.N,Net-(J2-Pin_2)*%
X100000000Y-92600000D03*
D16*
%TO.N,Net-(D4-A2)*%
X102250000Y-73650000D03*
D15*
%TO.N,GND*%
X102400000Y-107000000D03*
X101681519Y-90921590D03*
X100850000Y-101300000D03*
%TO.N,+2V7*%
X110700000Y-107700000D03*
X111800000Y-83950000D03*
X109500000Y-89400000D03*
X106400000Y-107700000D03*
D16*
%TO.N,VBUS*%
X122212500Y-88275000D03*
D15*
%TO.N,Net-(J2-Pin_5)*%
X99400000Y-95700000D03*
%TO.N,Net-(J2-Pin_3)*%
X99800000Y-93700000D03*
%TO.N,Net-(J2-Pin_4)*%
X99475000Y-94675000D03*
%TO.N,Net-(J3-Pin_3)*%
X113750000Y-93050000D03*
%TO.N,Net-(J3-Pin_2)*%
X114250000Y-92300000D03*
%TO.N,SDA*%
X104400000Y-106900000D03*
X110489880Y-103190880D03*
X96750000Y-106550000D03*
X101450000Y-106550000D03*
X107990000Y-105050000D03*
%TO.N,SCL*%
X108919383Y-105053395D03*
X99500000Y-106504386D03*
X103000000Y-105850000D03*
X98500000Y-107350000D03*
%TO.N,BUZZER1*%
X106240940Y-103128882D03*
%TO.N,UART_TX*%
X105350257Y-102999722D03*
%TO.N,Net-(J6-Pin_1)*%
X104300000Y-101600000D03*
%TO.N,Net-(J6-Pin_2)*%
X104450000Y-102500000D03*
%TO.N,DALI_TX*%
X108051539Y-103015000D03*
%TO.N,Net-(J6-Pin_1)*%
X104650000Y-91300000D03*
%TD*%
D17*
%TO.N,+2V7*%
X110700000Y-107700000D02*
X106400000Y-107700000D01*
%TO.N,GND*%
X103400000Y-102950000D02*
X101749000Y-102950000D01*
X101749000Y-102950000D02*
X101699000Y-102900000D01*
%TO.N,BUZZER2*%
X109550000Y-102100000D02*
X109900000Y-101750000D01*
X118980593Y-99619407D02*
X123257648Y-99619407D01*
X109900000Y-101750000D02*
X116850000Y-101750000D01*
X116850000Y-101750000D02*
X118980593Y-99619407D01*
%TO.N,BUZZER1*%
X106778058Y-103666000D02*
X109351563Y-103666000D01*
X118850000Y-100500000D02*
X123400000Y-100500000D01*
X109351563Y-103666000D02*
X109838880Y-103178683D01*
X110410106Y-102350000D02*
X117000000Y-102350000D01*
X109838880Y-102921226D02*
X110410106Y-102350000D01*
X106240940Y-103128882D02*
X106778058Y-103666000D01*
X109838880Y-103178683D02*
X109838880Y-102921226D01*
X117000000Y-102350000D02*
X118850000Y-100500000D01*
X123400000Y-100500000D02*
X124700000Y-99200000D01*
%TO.N,GND*%
X113850000Y-106900000D02*
X114550000Y-106200000D01*
X114550000Y-106200000D02*
X114550000Y-103200000D01*
%TO.N,+2V7*%
X110500000Y-106050000D02*
X110500000Y-107500000D01*
X110500000Y-107500000D02*
X110700000Y-107700000D01*
X109500000Y-89400000D02*
X110310000Y-89400000D01*
X110310000Y-89400000D02*
X111800000Y-87910000D01*
X111800000Y-87910000D02*
X111800000Y-83950000D01*
%TO.N,GND*%
X101681519Y-90921590D02*
X101681519Y-91681519D01*
X101681519Y-91681519D02*
X102000000Y-92000000D01*
X102000000Y-92000000D02*
X102000000Y-98700000D01*
X100850000Y-99850000D02*
X100850000Y-101300000D01*
X102000000Y-98700000D02*
X100850000Y-99850000D01*
D18*
%TO.N,VS*%
X110850000Y-81600000D02*
X108700000Y-81600000D01*
X108450000Y-81850000D02*
X102026000Y-81850000D01*
X101630009Y-81374000D02*
X101069991Y-81374000D01*
X102026000Y-81850000D02*
X102026000Y-81769991D01*
X102026000Y-81769991D02*
X101630009Y-81374000D01*
X108700000Y-81600000D02*
X108450000Y-81850000D01*
X101069991Y-81374000D02*
X100674000Y-81769991D01*
X100674000Y-81769991D02*
X100674000Y-81850000D01*
X100674000Y-81850000D02*
X98850000Y-81850000D01*
X98850000Y-81850000D02*
X97450000Y-83250000D01*
D17*
%TO.N,DALI_TX*%
X108051539Y-103015000D02*
X108201000Y-102865539D01*
X108201000Y-102865539D02*
X108201000Y-84151000D01*
X106550000Y-82500000D02*
X101800000Y-82500000D01*
X108201000Y-84151000D02*
X106550000Y-82500000D01*
X101800000Y-82500000D02*
X101350000Y-82050000D01*
D19*
%TO.N,VBUS*%
X110700000Y-79650000D02*
X116300000Y-74050000D01*
X108150000Y-79650000D02*
X110700000Y-79650000D01*
X116300000Y-74050000D02*
X116400000Y-74050000D01*
D17*
%TO.N,Net-(J3-Pin_5)*%
X113750000Y-94500000D02*
X124800000Y-94500000D01*
X124800000Y-94500000D02*
X125800000Y-93500000D01*
X125800000Y-93500000D02*
X125800000Y-87644386D01*
X125800000Y-87644386D02*
X127550000Y-85894386D01*
%TO.N,Net-(J3-Pin_4)*%
X113216729Y-93774999D02*
X113241730Y-93800000D01*
X125100000Y-85804386D02*
X127550000Y-83354386D01*
X113241730Y-93800000D02*
X124000000Y-93800000D01*
X124000000Y-93800000D02*
X125100000Y-92700000D01*
X125100000Y-92700000D02*
X125100000Y-85804386D01*
%TO.N,Net-(J3-Pin_3)*%
X113750000Y-93050000D02*
X123200000Y-93050000D01*
X123200000Y-93050000D02*
X124350000Y-91900000D01*
X124350000Y-84014386D02*
X127550000Y-80814386D01*
X124350000Y-91900000D02*
X124350000Y-84014386D01*
%TO.N,Net-(J3-Pin_2)*%
X114250000Y-92300000D02*
X122550000Y-92300000D01*
X122550000Y-92300000D02*
X123750000Y-91100000D01*
X123750000Y-82750000D02*
X127550000Y-78950000D01*
X123750000Y-91100000D02*
X123750000Y-82750000D01*
X127550000Y-78950000D02*
X127550000Y-78274386D01*
%TO.N,VBUS*%
X119900000Y-76500000D02*
X120350000Y-76500000D01*
X120350000Y-76500000D02*
X122212500Y-78362500D01*
X122212500Y-78362500D02*
X122212500Y-88275000D01*
%TO.N,GND*%
X101699000Y-102900000D02*
X101699000Y-102149000D01*
%TO.N,Net-(J6-Pin_2)*%
X104697773Y-102500000D02*
X105500000Y-101697773D01*
X104450000Y-102500000D02*
X104697773Y-102500000D01*
X105500000Y-101697773D02*
X105500000Y-87300000D01*
X105500000Y-87300000D02*
X106375000Y-86425000D01*
%TO.N,Net-(J6-Pin_1)*%
X104300000Y-101600000D02*
X104400000Y-101500000D01*
X104400000Y-101500000D02*
X104400000Y-91550000D01*
X104400000Y-91550000D02*
X104650000Y-91300000D01*
%TO.N,GND*%
X102299000Y-105499057D02*
X101699000Y-104899057D01*
X101699000Y-104899057D02*
X101699000Y-102900000D01*
X101699000Y-102149000D02*
X100850000Y-101300000D01*
%TO.N,Net-(J2-Pin_5)*%
X99400000Y-95700000D02*
X99300000Y-95600000D01*
X95150000Y-95600000D02*
X90700000Y-91150000D01*
X99300000Y-95600000D02*
X95150000Y-95600000D01*
X90700000Y-91150000D02*
X90700000Y-87770000D01*
X90700000Y-87770000D02*
X88900000Y-85970000D01*
D18*
%TO.N,GND*%
X117000000Y-76700000D02*
X117000000Y-83200000D01*
X119900000Y-73800000D02*
X117000000Y-76700000D01*
D17*
%TO.N,SCL*%
X103000000Y-105850000D02*
X103350000Y-106200000D01*
X107750999Y-104349000D02*
X108214988Y-104349000D01*
X103350000Y-106200000D02*
X105899999Y-106200000D01*
X105899999Y-106200000D02*
X107750999Y-104349000D01*
X108214988Y-104349000D02*
X108919383Y-105053395D01*
%TO.N,VBUF_TEST*%
X107550000Y-89450000D02*
X107550000Y-100400000D01*
X107200000Y-102949383D02*
X107150261Y-102999122D01*
X107550000Y-100400000D02*
X107200000Y-100750000D01*
X107200000Y-100750000D02*
X107200000Y-102949383D01*
%TO.N,Net-(J6-Pin_1)*%
X104650000Y-91300000D02*
X104650000Y-86880000D01*
X104650000Y-86880000D02*
X105105000Y-86425000D01*
%TO.N,UART_TX*%
X106243575Y-92106425D02*
X106243575Y-88006425D01*
X106243575Y-88006425D02*
X106450000Y-87800000D01*
%TO.N,SDA*%
X110489880Y-103190880D02*
X110500000Y-103201000D01*
X110500000Y-103201000D02*
X110500000Y-104393432D01*
X110500000Y-104393432D02*
X109189037Y-105704395D01*
X109189037Y-105704395D02*
X107954395Y-105704395D01*
X107954395Y-105704395D02*
X107850000Y-105600000D01*
%TO.N,Net-(J6-Pin_1)*%
X103300001Y-85892485D02*
X103300001Y-85950001D01*
X103300001Y-85950001D02*
X103775000Y-86425000D01*
X103775000Y-86425000D02*
X105105000Y-86425000D01*
%TO.N,+2V7*%
X103400000Y-84750000D02*
X103400000Y-83850000D01*
X103400000Y-83850000D02*
X104191000Y-83059000D01*
X104191000Y-83059000D02*
X105549000Y-83059000D01*
X105549000Y-83059000D02*
X106375000Y-83885000D01*
%TO.N,UART_TX*%
X105350257Y-102999722D02*
X105350257Y-102549743D01*
X105350257Y-102549743D02*
X106243575Y-101656425D01*
X106243575Y-101656425D02*
X106243575Y-92106425D01*
D20*
%TO.N,Net-(D4-A2)*%
X111400000Y-72382804D02*
X111609875Y-72592679D01*
X111400000Y-72100000D02*
X111400000Y-72382804D01*
X115450000Y-68050000D02*
X111400000Y-72100000D01*
X111400000Y-72100000D02*
X109850000Y-73650000D01*
X121150000Y-68050000D02*
X115450000Y-68050000D01*
D17*
%TO.N,Net-(J2-Pin_3)*%
X88900000Y-80890000D02*
X92450000Y-84440000D01*
X92450000Y-84440000D02*
X92450000Y-89700000D01*
X92450000Y-89700000D02*
X96450000Y-93700000D01*
X96450000Y-93700000D02*
X99800000Y-93700000D01*
%TO.N,Net-(J2-Pin_2)*%
X96650000Y-92600000D02*
X93550000Y-89500000D01*
X93550000Y-83000000D02*
X88900000Y-78350000D01*
X100000000Y-92600000D02*
X96650000Y-92600000D01*
X93550000Y-89500000D02*
X93550000Y-83000000D01*
%TO.N,Net-(J2-Pin_4)*%
X99475000Y-94675000D02*
X99450000Y-94650000D01*
X99450000Y-94650000D02*
X96200000Y-94650000D01*
X91600000Y-90050000D02*
X91600000Y-86130000D01*
X96200000Y-94650000D02*
X91600000Y-90050000D01*
X91600000Y-86130000D02*
X88900000Y-83430000D01*
%TO.N,GND*%
X102400000Y-107000000D02*
X102299000Y-106899000D01*
X102299000Y-106899000D02*
X102299000Y-105499057D01*
%TO.N,Net-(J2-Pin_5)*%
X99500000Y-95700000D02*
X99400000Y-95700000D01*
%TO.N,SDA*%
X106600000Y-106850000D02*
X107850000Y-105600000D01*
X98307636Y-108149000D02*
X96750000Y-106591364D01*
X107850000Y-105190000D02*
X107850000Y-105600000D01*
X97000000Y-106550000D02*
X97750000Y-105800000D01*
X107990000Y-105050000D02*
X107850000Y-105190000D01*
X104400000Y-106900000D02*
X104360000Y-106940000D01*
X104530000Y-106850000D02*
X106600000Y-106850000D01*
X97750000Y-105800000D02*
X101095614Y-105800000D01*
X104310000Y-106940000D02*
X103101000Y-108149000D01*
X104480000Y-106900000D02*
X104530000Y-106850000D01*
X96750000Y-106550000D02*
X97000000Y-106550000D01*
X96750000Y-106591364D02*
X96750000Y-106550000D01*
X104360000Y-106940000D02*
X104310000Y-106940000D01*
X104400000Y-106900000D02*
X104480000Y-106900000D01*
X101450000Y-106154386D02*
X101450000Y-106550000D01*
X101095614Y-105800000D02*
X101450000Y-106154386D01*
X103101000Y-108149000D02*
X98307636Y-108149000D01*
%TO.N,SCL*%
X98500000Y-107350000D02*
X98654386Y-107350000D01*
X103101000Y-105951000D02*
X103000000Y-105850000D01*
X108919383Y-105053395D02*
X108919383Y-104954227D01*
X98654386Y-107350000D02*
X99500000Y-106504386D01*
X108919383Y-104954227D02*
X108844502Y-104879346D01*
X100696614Y-107701000D02*
X102690364Y-107701000D01*
X103101000Y-107290364D02*
X103101000Y-105951000D01*
X102690364Y-107701000D02*
X103101000Y-107290364D01*
X99500000Y-106504386D02*
X100696614Y-107701000D01*
%TO.N,unconnected-(J3-Pin_1-Pad1)*%
X127600000Y-75800000D02*
X127450000Y-75800000D01*
X127450000Y-75800000D02*
X127515614Y-75734386D01*
X127515614Y-75734386D02*
X127550000Y-75734386D01*
%TO.N,Net-(J2-Pin_5)*%
X88900000Y-86400000D02*
X88900000Y-86004386D01*
D20*
%TO.N,Net-(D4-A2)*%
X109850000Y-73650000D02*
X102250000Y-73650000D01*
D17*
%TO.N,GND*%
X105105000Y-83885000D02*
X105105000Y-83597951D01*
%TO.N,DALI_RX*%
X108899000Y-102640755D02*
X108899000Y-93551000D01*
X111050000Y-91400000D02*
X118750000Y-91400000D01*
X108899000Y-93551000D02*
X111050000Y-91400000D01*
X109177577Y-102919332D02*
X108899000Y-102640755D01*
X118750000Y-91400000D02*
X120400000Y-89750000D01*
%TO.N,+2V7*%
X103400000Y-84750000D02*
X101400000Y-86750000D01*
X101599000Y-92166100D02*
X101599000Y-98533900D01*
X101400000Y-90270590D02*
X101411865Y-90270590D01*
X100449000Y-99683900D02*
X100449000Y-100780346D01*
X101400000Y-86750000D02*
X101400000Y-90270590D01*
X101411865Y-90270590D02*
X101030519Y-90651936D01*
X101599000Y-98533900D02*
X100449000Y-99683900D01*
X101030519Y-90651936D02*
X101030519Y-91191244D01*
X101030519Y-91191244D02*
X101280519Y-91441244D01*
X100199000Y-101569654D02*
X100214673Y-101585327D01*
X100214673Y-101585327D02*
X98850000Y-102950000D01*
X101280519Y-91441244D02*
X101280519Y-91847619D01*
X100199000Y-101030346D02*
X100199000Y-101569654D01*
X101280519Y-91847619D02*
X101599000Y-92166100D01*
X100449000Y-100780346D02*
X100199000Y-101030346D01*
X98850000Y-102950000D02*
X98850000Y-103350000D01*
%TD*%
%TA.AperFunction,Conductor*%
%TO.N,GND*%
G36*
X121535887Y-72172014D02*
G01*
X121583519Y-72223131D01*
X121596618Y-72281861D01*
X121549999Y-74100000D01*
X121550000Y-74100000D01*
X125072010Y-73907013D01*
X125140026Y-73923000D01*
X125188601Y-73973221D01*
X125202765Y-74028151D01*
X125337253Y-80259441D01*
X125319020Y-80326890D01*
X125300963Y-80349798D01*
X123381286Y-82269478D01*
X123269481Y-82381282D01*
X123269479Y-82381285D01*
X123228964Y-82451461D01*
X123228963Y-82451462D01*
X123200651Y-82500500D01*
X123190423Y-82518215D01*
X123149499Y-82670943D01*
X123149499Y-82670945D01*
X123149499Y-82839046D01*
X123149500Y-82839059D01*
X123149500Y-82849915D01*
X123129815Y-82916954D01*
X123110108Y-82940566D01*
X123099999Y-82950000D01*
X123149299Y-83815471D01*
X123149500Y-83822523D01*
X123149500Y-87647688D01*
X123129815Y-87714727D01*
X123077011Y-87760482D01*
X123007853Y-87770426D01*
X122944297Y-87741401D01*
X122933876Y-87731240D01*
X122927579Y-87724335D01*
X122911964Y-87700965D01*
X122847311Y-87636312D01*
X122845376Y-87634190D01*
X122831262Y-87605251D01*
X122815834Y-87576996D01*
X122815367Y-87572659D01*
X122814749Y-87571391D01*
X122815001Y-87569252D01*
X122813000Y-87550638D01*
X122813000Y-78451560D01*
X122813001Y-78451547D01*
X122813001Y-78283444D01*
X122813001Y-78283443D01*
X122772077Y-78130716D01*
X122764860Y-78118215D01*
X122693024Y-77993790D01*
X122693018Y-77993782D01*
X120837590Y-76138355D01*
X120837588Y-76138352D01*
X120718717Y-76019481D01*
X120718712Y-76019477D01*
X120651334Y-75980577D01*
X120610231Y-75942079D01*
X120599465Y-75925966D01*
X120599459Y-75925959D01*
X120474038Y-75800538D01*
X120474034Y-75800535D01*
X120326553Y-75701990D01*
X120326540Y-75701983D01*
X120162667Y-75634106D01*
X120162658Y-75634103D01*
X119988694Y-75599500D01*
X119988691Y-75599500D01*
X119811309Y-75599500D01*
X119811306Y-75599500D01*
X119637341Y-75634103D01*
X119637332Y-75634106D01*
X119473459Y-75701983D01*
X119473446Y-75701990D01*
X119325965Y-75800535D01*
X119325961Y-75800538D01*
X119200538Y-75925961D01*
X119200535Y-75925965D01*
X119101990Y-76073446D01*
X119101983Y-76073459D01*
X119034106Y-76237332D01*
X119034103Y-76237341D01*
X118999500Y-76411304D01*
X118999500Y-76588695D01*
X119034103Y-76762658D01*
X119034106Y-76762667D01*
X119101983Y-76926540D01*
X119101990Y-76926553D01*
X119200535Y-77074034D01*
X119200538Y-77074038D01*
X119325961Y-77199461D01*
X119325965Y-77199464D01*
X119473446Y-77298009D01*
X119473459Y-77298016D01*
X119569634Y-77337852D01*
X119637334Y-77365894D01*
X119637336Y-77365894D01*
X119637341Y-77365896D01*
X119811304Y-77400499D01*
X119811307Y-77400500D01*
X119811309Y-77400500D01*
X119988693Y-77400500D01*
X119988694Y-77400499D01*
X120162666Y-77365894D01*
X120230366Y-77337851D01*
X120299831Y-77330383D01*
X120362311Y-77361657D01*
X120365497Y-77364732D01*
X121575681Y-78574916D01*
X121609166Y-78636239D01*
X121612000Y-78662597D01*
X121612000Y-87550638D01*
X121592315Y-87617677D01*
X121575681Y-87638319D01*
X121513038Y-87700961D01*
X121513035Y-87700965D01*
X121414490Y-87848446D01*
X121414483Y-87848459D01*
X121346606Y-88012332D01*
X121346603Y-88012341D01*
X121312000Y-88186304D01*
X121312000Y-88363695D01*
X121346603Y-88537658D01*
X121346606Y-88537667D01*
X121414483Y-88701540D01*
X121414490Y-88701553D01*
X121513035Y-88849034D01*
X121513038Y-88849038D01*
X121638461Y-88974461D01*
X121638465Y-88974464D01*
X121785946Y-89073009D01*
X121785959Y-89073016D01*
X121825452Y-89089374D01*
X121949834Y-89140894D01*
X121949836Y-89140894D01*
X121949841Y-89140896D01*
X122123804Y-89175499D01*
X122123807Y-89175500D01*
X122123809Y-89175500D01*
X122301193Y-89175500D01*
X122301194Y-89175499D01*
X122359182Y-89163964D01*
X122475158Y-89140896D01*
X122475161Y-89140894D01*
X122475166Y-89140894D01*
X122639047Y-89073013D01*
X122786535Y-88974464D01*
X122911964Y-88849035D01*
X122922398Y-88833420D01*
X122976010Y-88788615D01*
X123045335Y-88779908D01*
X123108363Y-88810063D01*
X123145082Y-88869506D01*
X123149500Y-88902311D01*
X123149500Y-90726919D01*
X123129815Y-90793958D01*
X123077011Y-90839713D01*
X123025718Y-90850919D01*
X120443365Y-90855449D01*
X120422002Y-90849217D01*
X120399805Y-90847628D01*
X120389112Y-90839622D01*
X120376291Y-90835882D01*
X120361688Y-90819089D01*
X120343875Y-90805752D01*
X120339208Y-90793237D01*
X120330443Y-90783158D01*
X120327237Y-90761136D01*
X120319462Y-90740286D01*
X120322302Y-90727234D01*
X120320378Y-90714017D01*
X120329587Y-90693758D01*
X120334319Y-90672014D01*
X120347435Y-90654494D01*
X120349292Y-90650411D01*
X120355445Y-90643789D01*
X120362424Y-90636810D01*
X120423748Y-90603332D01*
X120450097Y-90600500D01*
X120483768Y-90600500D01*
X120483769Y-90600499D01*
X120648082Y-90567816D01*
X120802863Y-90503703D01*
X120942162Y-90410626D01*
X121060626Y-90292162D01*
X121153703Y-90152863D01*
X121217816Y-89998082D01*
X121250500Y-89833767D01*
X121250500Y-89666233D01*
X121217816Y-89501918D01*
X121153703Y-89347137D01*
X121089643Y-89251265D01*
X121060626Y-89207837D01*
X120942162Y-89089373D01*
X120802860Y-88996295D01*
X120648082Y-88932184D01*
X120648074Y-88932182D01*
X120483771Y-88899500D01*
X120483767Y-88899500D01*
X120316233Y-88899500D01*
X120316228Y-88899500D01*
X120151925Y-88932182D01*
X120151917Y-88932184D01*
X119997139Y-88996295D01*
X119857837Y-89089373D01*
X119739373Y-89207837D01*
X119646295Y-89347139D01*
X119582184Y-89501917D01*
X119582182Y-89501925D01*
X119549500Y-89666228D01*
X119549500Y-89699903D01*
X119529815Y-89766942D01*
X119513181Y-89787584D01*
X118537584Y-90763181D01*
X118476261Y-90796666D01*
X118449903Y-90799500D01*
X110970940Y-90799500D01*
X110930019Y-90810464D01*
X110930019Y-90810465D01*
X110897834Y-90819089D01*
X110818214Y-90840423D01*
X110818213Y-90840424D01*
X110791442Y-90855880D01*
X110729663Y-90872491D01*
X110347372Y-90873161D01*
X110350000Y-90550000D01*
X108801500Y-90557941D01*
X108801500Y-90188152D01*
X108821185Y-90121113D01*
X108873989Y-90075358D01*
X108943147Y-90065414D01*
X108994390Y-90085049D01*
X109097137Y-90153703D01*
X109097138Y-90153703D01*
X109097139Y-90153704D01*
X109132201Y-90168227D01*
X109251918Y-90217816D01*
X109416228Y-90250499D01*
X109416232Y-90250500D01*
X109416233Y-90250500D01*
X109583768Y-90250500D01*
X109583769Y-90250499D01*
X109748082Y-90217816D01*
X109902863Y-90153703D01*
X110042162Y-90060626D01*
X110053393Y-90049395D01*
X110065970Y-90036819D01*
X110092897Y-90022115D01*
X110118716Y-90005523D01*
X110124916Y-90004631D01*
X110127293Y-90003334D01*
X110153651Y-90000500D01*
X110223331Y-90000500D01*
X110223347Y-90000501D01*
X110230943Y-90000501D01*
X110389054Y-90000501D01*
X110389057Y-90000501D01*
X110541785Y-89959577D01*
X110591904Y-89930639D01*
X110678716Y-89880520D01*
X110790520Y-89768716D01*
X110790520Y-89768714D01*
X110800728Y-89758507D01*
X110800730Y-89758504D01*
X112158506Y-88400728D01*
X112158511Y-88400724D01*
X112168714Y-88390520D01*
X112168716Y-88390520D01*
X112280520Y-88278716D01*
X112344028Y-88168716D01*
X112359577Y-88141785D01*
X112400500Y-87989058D01*
X112400500Y-87830943D01*
X112400500Y-84603650D01*
X112420185Y-84536611D01*
X112436815Y-84515972D01*
X112460626Y-84492162D01*
X112553703Y-84352863D01*
X112617816Y-84198082D01*
X112650500Y-84033767D01*
X112650500Y-83866233D01*
X112617816Y-83701918D01*
X112558856Y-83559577D01*
X112553704Y-83547139D01*
X112460626Y-83407837D01*
X112342162Y-83289373D01*
X112202860Y-83196295D01*
X112048082Y-83132184D01*
X112048074Y-83132182D01*
X111883771Y-83099500D01*
X111883767Y-83099500D01*
X111716233Y-83099500D01*
X111716228Y-83099500D01*
X111551925Y-83132182D01*
X111551917Y-83132184D01*
X111397139Y-83196295D01*
X111257837Y-83289373D01*
X111139373Y-83407837D01*
X111046295Y-83547139D01*
X110982184Y-83701917D01*
X110982182Y-83701925D01*
X110949500Y-83866228D01*
X110949500Y-84033771D01*
X110982182Y-84198074D01*
X110982184Y-84198082D01*
X111046295Y-84352860D01*
X111139372Y-84492160D01*
X111139373Y-84492161D01*
X111139374Y-84492162D01*
X111163181Y-84515969D01*
X111196666Y-84577290D01*
X111199500Y-84603650D01*
X111199500Y-87609902D01*
X111179815Y-87676941D01*
X111163181Y-87697583D01*
X110161614Y-88699150D01*
X110100291Y-88732635D01*
X110030599Y-88727651D01*
X110005042Y-88714571D01*
X109902860Y-88646295D01*
X109748082Y-88582184D01*
X109748074Y-88582182D01*
X109583771Y-88549500D01*
X109583767Y-88549500D01*
X109416233Y-88549500D01*
X109416228Y-88549500D01*
X109251925Y-88582182D01*
X109251917Y-88582184D01*
X109097140Y-88646295D01*
X108994390Y-88714950D01*
X108927712Y-88735827D01*
X108860332Y-88717342D01*
X108813643Y-88665363D01*
X108801500Y-88611847D01*
X108801500Y-84240060D01*
X108801501Y-84240047D01*
X108801501Y-84071944D01*
X108801324Y-84071284D01*
X108760577Y-83919216D01*
X108729985Y-83866228D01*
X108681524Y-83782290D01*
X108681518Y-83782282D01*
X108141383Y-83242147D01*
X107586415Y-82687180D01*
X107552931Y-82625858D01*
X107557915Y-82556166D01*
X107599787Y-82500233D01*
X107665251Y-82475816D01*
X107674097Y-82475500D01*
X108511608Y-82475500D01*
X108511608Y-82475499D01*
X108597073Y-82458500D01*
X108632452Y-82451463D01*
X108685475Y-82429500D01*
X108690096Y-82427585D01*
X108690099Y-82427585D01*
X108746281Y-82404314D01*
X108746280Y-82404314D01*
X108746286Y-82404312D01*
X108797509Y-82370084D01*
X108848733Y-82335858D01*
X108922773Y-82261817D01*
X108984094Y-82228334D01*
X109010453Y-82225500D01*
X110150639Y-82225500D01*
X110217678Y-82245185D01*
X110238321Y-82261820D01*
X110275961Y-82299461D01*
X110275965Y-82299464D01*
X110423446Y-82398009D01*
X110423459Y-82398016D01*
X110499470Y-82429500D01*
X110587334Y-82465894D01*
X110587336Y-82465894D01*
X110587341Y-82465896D01*
X110761304Y-82500499D01*
X110761307Y-82500500D01*
X110761309Y-82500500D01*
X110938693Y-82500500D01*
X110938694Y-82500499D01*
X110996682Y-82488964D01*
X111112658Y-82465896D01*
X111112661Y-82465894D01*
X111112666Y-82465894D01*
X111276547Y-82398013D01*
X111424035Y-82299464D01*
X111549464Y-82174035D01*
X111648013Y-82026547D01*
X111715894Y-81862666D01*
X111750500Y-81688691D01*
X111750500Y-81511309D01*
X111750500Y-81511306D01*
X111750499Y-81511304D01*
X111715896Y-81337341D01*
X111715893Y-81337332D01*
X111648016Y-81173459D01*
X111648009Y-81173446D01*
X111549464Y-81025965D01*
X111549461Y-81025961D01*
X111424038Y-80900538D01*
X111424034Y-80900535D01*
X111276553Y-80801990D01*
X111276540Y-80801983D01*
X111112667Y-80734106D01*
X111112658Y-80734103D01*
X110938694Y-80699500D01*
X110938691Y-80699500D01*
X110761309Y-80699500D01*
X110761306Y-80699500D01*
X110587341Y-80734103D01*
X110587332Y-80734106D01*
X110423459Y-80801983D01*
X110423446Y-80801990D01*
X110275965Y-80900535D01*
X110275961Y-80900538D01*
X110238321Y-80938180D01*
X110176999Y-80971666D01*
X110150639Y-80974500D01*
X108761606Y-80974500D01*
X108638393Y-80974500D01*
X108528860Y-80996287D01*
X108528859Y-80996286D01*
X108517551Y-80998536D01*
X108517545Y-80998538D01*
X108403717Y-81045687D01*
X108355784Y-81077715D01*
X108301267Y-81114141D01*
X108264248Y-81151161D01*
X108227226Y-81188182D01*
X108165906Y-81221666D01*
X108139547Y-81224500D01*
X102416461Y-81224500D01*
X102349422Y-81204815D01*
X102328780Y-81188181D01*
X102123362Y-80982763D01*
X102115869Y-80975270D01*
X102115867Y-80975267D01*
X102028742Y-80888142D01*
X101970910Y-80849500D01*
X101964476Y-80845200D01*
X101964474Y-80845199D01*
X101926299Y-80819690D01*
X101926295Y-80819688D01*
X101846663Y-80786704D01*
X101839442Y-80783713D01*
X101812461Y-80772537D01*
X101752038Y-80760518D01*
X101747744Y-80759663D01*
X101747737Y-80759662D01*
X101691619Y-80748500D01*
X101691616Y-80748500D01*
X101691615Y-80748500D01*
X101131598Y-80748500D01*
X101008384Y-80748500D01*
X101008380Y-80748500D01*
X100952258Y-80759663D01*
X100952251Y-80759664D01*
X100947962Y-80760518D01*
X100887539Y-80772537D01*
X100860558Y-80783713D01*
X100853344Y-80786700D01*
X100853333Y-80786704D01*
X100773706Y-80819686D01*
X100763618Y-80826428D01*
X100763617Y-80826429D01*
X100671259Y-80888140D01*
X100627696Y-80931703D01*
X100584133Y-80975267D01*
X100584130Y-80975270D01*
X100371220Y-81188181D01*
X100309897Y-81221666D01*
X100283539Y-81224500D01*
X98788389Y-81224500D01*
X98732092Y-81235698D01*
X98732087Y-81235699D01*
X98727971Y-81236518D01*
X98667548Y-81248537D01*
X98642974Y-81258716D01*
X98635589Y-81261774D01*
X98635581Y-81261777D01*
X98553713Y-81295688D01*
X98553708Y-81295690D01*
X98451272Y-81364138D01*
X98451264Y-81364144D01*
X98364139Y-81451270D01*
X97502229Y-82313181D01*
X97440906Y-82346666D01*
X97414548Y-82349500D01*
X97361306Y-82349500D01*
X97187341Y-82384103D01*
X97187332Y-82384106D01*
X97023459Y-82451983D01*
X97023446Y-82451990D01*
X96875965Y-82550535D01*
X96875961Y-82550538D01*
X96750538Y-82675961D01*
X96750535Y-82675965D01*
X96651990Y-82823446D01*
X96651983Y-82823459D01*
X96584106Y-82987332D01*
X96584103Y-82987341D01*
X96549500Y-83161304D01*
X96549500Y-83338695D01*
X96584103Y-83512658D01*
X96584106Y-83512667D01*
X96651983Y-83676540D01*
X96651990Y-83676553D01*
X96750535Y-83824034D01*
X96750538Y-83824038D01*
X96875961Y-83949461D01*
X96875965Y-83949464D01*
X97023446Y-84048009D01*
X97023459Y-84048016D01*
X97081228Y-84071944D01*
X97187334Y-84115894D01*
X97187336Y-84115894D01*
X97187341Y-84115896D01*
X97361304Y-84150499D01*
X97361307Y-84150500D01*
X97361309Y-84150500D01*
X97538693Y-84150500D01*
X97538694Y-84150499D01*
X97602457Y-84137816D01*
X97712658Y-84115896D01*
X97712661Y-84115894D01*
X97712666Y-84115894D01*
X97876547Y-84048013D01*
X98024035Y-83949464D01*
X98149464Y-83824035D01*
X98248013Y-83676547D01*
X98250686Y-83670095D01*
X98277677Y-83604930D01*
X98315894Y-83512666D01*
X98322137Y-83481284D01*
X98350499Y-83338695D01*
X98350500Y-83338693D01*
X98350500Y-83285452D01*
X98370185Y-83218413D01*
X98386819Y-83197771D01*
X99072771Y-82511819D01*
X99134094Y-82478334D01*
X99160452Y-82475500D01*
X100545143Y-82475500D01*
X100612182Y-82495185D01*
X100648245Y-82530609D01*
X100689373Y-82592161D01*
X100689376Y-82592165D01*
X100807837Y-82710626D01*
X100894026Y-82768215D01*
X100947137Y-82803703D01*
X101101918Y-82867816D01*
X101266228Y-82900499D01*
X101266232Y-82900500D01*
X101266233Y-82900500D01*
X101299902Y-82900500D01*
X101366941Y-82920185D01*
X101372806Y-82924196D01*
X101380691Y-82929927D01*
X101431284Y-82980520D01*
X101518095Y-83030639D01*
X101523726Y-83033890D01*
X101523734Y-83033896D01*
X101560018Y-83054844D01*
X101568215Y-83059577D01*
X101720943Y-83100500D01*
X101879057Y-83100500D01*
X103000902Y-83100500D01*
X103067941Y-83120185D01*
X103113696Y-83172989D01*
X103123640Y-83242147D01*
X103094615Y-83305703D01*
X103088583Y-83312181D01*
X102919481Y-83481282D01*
X102919480Y-83481284D01*
X102887725Y-83536287D01*
X102874279Y-83559576D01*
X102874277Y-83559578D01*
X102840425Y-83618209D01*
X102840424Y-83618210D01*
X102826522Y-83670095D01*
X102799499Y-83770943D01*
X102799499Y-83770945D01*
X102799499Y-83939046D01*
X102799500Y-83939059D01*
X102799500Y-84096349D01*
X102779815Y-84163388D01*
X102763181Y-84184030D01*
X102739376Y-84207834D01*
X102739373Y-84207837D01*
X102646295Y-84347139D01*
X102582184Y-84501917D01*
X102582182Y-84501925D01*
X102549500Y-84666228D01*
X102549500Y-84699902D01*
X102529815Y-84766941D01*
X102513181Y-84787583D01*
X100919481Y-86381282D01*
X100919479Y-86381284D01*
X100894063Y-86425306D01*
X100883321Y-86443914D01*
X100840423Y-86518215D01*
X100799499Y-86670943D01*
X100799499Y-86670945D01*
X100799499Y-86839046D01*
X100799500Y-86839059D01*
X100799500Y-89982356D01*
X100779815Y-90049395D01*
X100763181Y-90070037D01*
X100654733Y-90178484D01*
X100654734Y-90178485D01*
X100549997Y-90283222D01*
X100549994Y-90283226D01*
X100511648Y-90349645D01*
X100511648Y-90349647D01*
X100470942Y-90420150D01*
X100470942Y-90420151D01*
X100430018Y-90572879D01*
X100430018Y-90572881D01*
X100430018Y-90740982D01*
X100430019Y-90740995D01*
X100430019Y-90766777D01*
X100410334Y-90833816D01*
X100357530Y-90879571D01*
X100306237Y-90890777D01*
X95849411Y-90898596D01*
X95782337Y-90879029D01*
X95761512Y-90862277D01*
X94982326Y-90083091D01*
X94948841Y-90021768D01*
X94946009Y-89996001D01*
X94900524Y-80262246D01*
X94919895Y-80195118D01*
X94972485Y-80149117D01*
X95011638Y-80138341D01*
X107366852Y-78848081D01*
X107435569Y-78860696D01*
X107486561Y-78908462D01*
X107503634Y-78976213D01*
X107481367Y-79042440D01*
X107467410Y-79059089D01*
X107450539Y-79075960D01*
X107450535Y-79075965D01*
X107351990Y-79223446D01*
X107351983Y-79223459D01*
X107284106Y-79387332D01*
X107284103Y-79387341D01*
X107249500Y-79561304D01*
X107249500Y-79738695D01*
X107284103Y-79912658D01*
X107284106Y-79912667D01*
X107351983Y-80076540D01*
X107351990Y-80076553D01*
X107450535Y-80224034D01*
X107450538Y-80224038D01*
X107575961Y-80349461D01*
X107575965Y-80349464D01*
X107723446Y-80448009D01*
X107723459Y-80448016D01*
X107846363Y-80498923D01*
X107887334Y-80515894D01*
X107887336Y-80515894D01*
X107887341Y-80515896D01*
X108061304Y-80550499D01*
X108061307Y-80550500D01*
X108061309Y-80550500D01*
X108238693Y-80550500D01*
X108238694Y-80550499D01*
X108296682Y-80538964D01*
X108412658Y-80515896D01*
X108412661Y-80515894D01*
X108412666Y-80515894D01*
X108576547Y-80448013D01*
X108724035Y-80349464D01*
X108724038Y-80349461D01*
X108736681Y-80336819D01*
X108798004Y-80303334D01*
X108824362Y-80300500D01*
X110764071Y-80300500D01*
X110848615Y-80283682D01*
X110889744Y-80275501D01*
X111008127Y-80226465D01*
X111014375Y-80222290D01*
X111026954Y-80213886D01*
X111085298Y-80174901D01*
X111114669Y-80155277D01*
X116283127Y-74986819D01*
X116344450Y-74953334D01*
X116370808Y-74950500D01*
X116488693Y-74950500D01*
X116488694Y-74950499D01*
X116546682Y-74938964D01*
X116662658Y-74915896D01*
X116662661Y-74915894D01*
X116662666Y-74915894D01*
X116826547Y-74848013D01*
X116974035Y-74749464D01*
X117099464Y-74624035D01*
X117198013Y-74476547D01*
X117265894Y-74312666D01*
X117300500Y-74138691D01*
X117300500Y-73961309D01*
X117300500Y-73961306D01*
X117300499Y-73961304D01*
X117265896Y-73787341D01*
X117265893Y-73787332D01*
X117198016Y-73623459D01*
X117198009Y-73623446D01*
X117099464Y-73475965D01*
X117099461Y-73475961D01*
X116974038Y-73350538D01*
X116974034Y-73350535D01*
X116826553Y-73251990D01*
X116826540Y-73251983D01*
X116721507Y-73208478D01*
X116667103Y-73164637D01*
X116645038Y-73098343D01*
X116662317Y-73030644D01*
X116685070Y-73002601D01*
X117416313Y-72330941D01*
X117479000Y-72300090D01*
X117495703Y-72298348D01*
X121468181Y-72154764D01*
X121535887Y-72172014D01*
G37*
%TD.AperFunction*%
%TA.AperFunction,Conductor*%
G36*
X102645313Y-86456433D02*
G01*
X102689661Y-86484934D01*
X102757838Y-86553111D01*
X102850495Y-86615022D01*
X102897138Y-86646188D01*
X103051919Y-86710301D01*
X103202685Y-86740290D01*
X103213690Y-86742479D01*
X103230446Y-86751244D01*
X103248926Y-86755264D01*
X103273960Y-86774004D01*
X103275601Y-86774863D01*
X103277180Y-86776415D01*
X103290139Y-86789374D01*
X103290149Y-86789385D01*
X103294479Y-86793715D01*
X103294480Y-86793716D01*
X103406284Y-86905520D01*
X103493095Y-86955639D01*
X103493097Y-86955641D01*
X103531151Y-86977611D01*
X103543215Y-86984577D01*
X103695943Y-87025501D01*
X103695946Y-87025501D01*
X103861653Y-87025501D01*
X103861669Y-87025500D01*
X103925500Y-87025500D01*
X103992539Y-87045185D01*
X104038294Y-87097989D01*
X104049500Y-87149500D01*
X104049500Y-90582310D01*
X101918983Y-90593235D01*
X101971442Y-90502374D01*
X102012366Y-90349647D01*
X102012366Y-90191532D01*
X102006976Y-90171416D01*
X102004725Y-90163014D01*
X102000500Y-90130922D01*
X102000500Y-87050096D01*
X102020185Y-86983057D01*
X102036815Y-86962419D01*
X102514301Y-86484932D01*
X102575622Y-86451449D01*
X102645313Y-86456433D01*
G37*
%TD.AperFunction*%
%TD*%
%TA.AperFunction,Conductor*%
%TO.N,GND*%
G36*
X99725204Y-99952967D02*
G01*
X99792128Y-99973029D01*
X99837584Y-100026090D01*
X99848500Y-100076964D01*
X99848500Y-100480248D01*
X99828815Y-100547287D01*
X99812181Y-100567929D01*
X99718481Y-100661628D01*
X99718479Y-100661631D01*
X99668361Y-100748440D01*
X99668359Y-100748442D01*
X99639425Y-100798555D01*
X99639424Y-100798556D01*
X99630796Y-100830756D01*
X99598499Y-100951289D01*
X99598499Y-100951291D01*
X99598499Y-101119392D01*
X99598500Y-101119405D01*
X99598500Y-101300902D01*
X99578815Y-101367941D01*
X99562181Y-101388583D01*
X98369481Y-102581282D01*
X98369479Y-102581285D01*
X98330098Y-102649497D01*
X98330094Y-102649503D01*
X98314191Y-102677045D01*
X98294489Y-102702720D01*
X98189375Y-102807836D01*
X98189371Y-102807841D01*
X98096295Y-102947139D01*
X98032184Y-103101917D01*
X98032182Y-103101925D01*
X97999500Y-103266228D01*
X97999500Y-103433771D01*
X98032182Y-103598074D01*
X98032184Y-103598082D01*
X98096295Y-103752860D01*
X98189373Y-103892162D01*
X98307837Y-104010626D01*
X98400494Y-104072537D01*
X98447137Y-104103703D01*
X98601918Y-104167816D01*
X98755786Y-104198422D01*
X98766228Y-104200499D01*
X98766232Y-104200500D01*
X98766233Y-104200500D01*
X98933768Y-104200500D01*
X98933769Y-104200499D01*
X99098082Y-104167816D01*
X99252863Y-104103703D01*
X99392162Y-104010626D01*
X99510626Y-103892162D01*
X99603703Y-103752863D01*
X99667816Y-103598082D01*
X99700500Y-103433767D01*
X99700500Y-103266233D01*
X99667816Y-103101918D01*
X99664227Y-103093255D01*
X99656761Y-103023786D01*
X99688037Y-102961308D01*
X99691080Y-102958153D01*
X100411535Y-102237699D01*
X100400000Y-102950000D01*
X103705370Y-102916442D01*
X103789373Y-103042162D01*
X103907837Y-103160626D01*
X104000494Y-103222537D01*
X104047137Y-103253703D01*
X104201918Y-103317816D01*
X104328156Y-103342926D01*
X104366228Y-103350499D01*
X104366232Y-103350500D01*
X104495473Y-103350500D01*
X104562512Y-103370185D01*
X104598573Y-103405607D01*
X104621550Y-103439994D01*
X104689630Y-103541884D01*
X104808094Y-103660348D01*
X104900751Y-103722259D01*
X104947394Y-103753425D01*
X105102175Y-103817538D01*
X105266485Y-103850221D01*
X105266489Y-103850222D01*
X105266490Y-103850222D01*
X105434025Y-103850222D01*
X105434026Y-103850221D01*
X105598339Y-103817538D01*
X105625003Y-103806492D01*
X105694472Y-103799024D01*
X105741347Y-103817952D01*
X105838077Y-103882585D01*
X105992858Y-103946698D01*
X106157168Y-103979381D01*
X106157172Y-103979382D01*
X106157173Y-103979382D01*
X106190842Y-103979382D01*
X106257881Y-103999067D01*
X106278523Y-104015701D01*
X106409342Y-104146520D01*
X106409344Y-104146521D01*
X106409348Y-104146524D01*
X106502837Y-104200499D01*
X106546274Y-104225577D01*
X106699001Y-104266501D01*
X106699003Y-104266501D01*
X106701782Y-104266867D01*
X106703953Y-104267827D01*
X106706851Y-104268604D01*
X106706729Y-104269055D01*
X106765678Y-104295134D01*
X106804148Y-104353459D01*
X106804979Y-104423324D01*
X106773276Y-104477487D01*
X105687583Y-105563181D01*
X105626260Y-105596666D01*
X105599902Y-105599500D01*
X103899668Y-105599500D01*
X103832629Y-105579815D01*
X103786874Y-105527011D01*
X103785107Y-105522952D01*
X103753706Y-105447143D01*
X103753699Y-105447130D01*
X103660626Y-105307838D01*
X103660623Y-105307834D01*
X103542162Y-105189373D01*
X103402860Y-105096295D01*
X103248082Y-105032184D01*
X103248074Y-105032182D01*
X103083771Y-104999500D01*
X103083767Y-104999500D01*
X102916233Y-104999500D01*
X102916228Y-104999500D01*
X102751925Y-105032182D01*
X102751917Y-105032184D01*
X102597139Y-105096295D01*
X102457837Y-105189373D01*
X102339373Y-105307837D01*
X102246295Y-105447139D01*
X102182184Y-105601917D01*
X102182182Y-105601925D01*
X102154740Y-105739884D01*
X102149727Y-105749466D01*
X102148843Y-105760244D01*
X102133816Y-105779884D01*
X102122355Y-105801795D01*
X102112958Y-105807145D01*
X102106387Y-105815735D01*
X102083128Y-105824132D01*
X102061639Y-105836370D01*
X102050839Y-105835791D01*
X102040670Y-105839463D01*
X102016566Y-105833953D01*
X101991870Y-105832630D01*
X101981303Y-105825894D01*
X101972557Y-105823895D01*
X101956853Y-105810307D01*
X101944526Y-105802449D01*
X101934002Y-105791702D01*
X101930520Y-105785670D01*
X101818716Y-105673866D01*
X101818713Y-105673864D01*
X101583204Y-105438355D01*
X101583202Y-105438352D01*
X101464331Y-105319481D01*
X101464323Y-105319475D01*
X101357364Y-105257723D01*
X101357363Y-105257722D01*
X101357363Y-105257723D01*
X101327399Y-105240423D01*
X101174671Y-105199499D01*
X101016557Y-105199499D01*
X101008961Y-105199499D01*
X101008945Y-105199500D01*
X97670943Y-105199500D01*
X97518213Y-105240423D01*
X97488251Y-105257723D01*
X97488250Y-105257723D01*
X97381287Y-105319477D01*
X97381282Y-105319481D01*
X97269478Y-105431286D01*
X97020341Y-105680422D01*
X96959018Y-105713907D01*
X96908470Y-105714359D01*
X96833767Y-105699500D01*
X96666233Y-105699500D01*
X96666228Y-105699500D01*
X96501925Y-105732182D01*
X96501917Y-105732184D01*
X96347139Y-105796295D01*
X96207837Y-105889373D01*
X96089373Y-106007837D01*
X95996295Y-106147139D01*
X95932184Y-106301917D01*
X95932182Y-106301925D01*
X95899500Y-106466228D01*
X95899500Y-106633771D01*
X95932182Y-106798074D01*
X95932184Y-106798082D01*
X95996295Y-106952860D01*
X96089373Y-107092162D01*
X96207837Y-107210626D01*
X96300494Y-107272537D01*
X96347137Y-107303703D01*
X96501918Y-107367816D01*
X96666233Y-107400500D01*
X96666244Y-107400500D01*
X96670505Y-107400920D01*
X96735295Y-107427075D01*
X96746044Y-107436643D01*
X97347220Y-108037819D01*
X97380705Y-108099142D01*
X97375721Y-108168834D01*
X97333849Y-108224767D01*
X97268385Y-108249184D01*
X97259539Y-108249500D01*
X94774000Y-108249500D01*
X94706961Y-108229815D01*
X94661206Y-108177011D01*
X94650000Y-108125500D01*
X94650000Y-101520820D01*
X94669685Y-101453781D01*
X94722489Y-101408026D01*
X94770775Y-101396862D01*
X98500000Y-101300000D01*
X99165079Y-100017346D01*
X99213414Y-99966893D01*
X99275858Y-99950428D01*
X99725204Y-99952967D01*
G37*
%TD.AperFunction*%
%TA.AperFunction,Conductor*%
G36*
X121548432Y-101120185D02*
G01*
X121594187Y-101172989D01*
X121605369Y-101222053D01*
X121741573Y-108123053D01*
X121723215Y-108190468D01*
X121671324Y-108237256D01*
X121617597Y-108249500D01*
X111578543Y-108249500D01*
X111511504Y-108229815D01*
X111465749Y-108177011D01*
X111455805Y-108107853D01*
X111463982Y-108078047D01*
X111480645Y-108037819D01*
X111517816Y-107948082D01*
X111550500Y-107783767D01*
X111550500Y-107616233D01*
X111517816Y-107451918D01*
X111453703Y-107297137D01*
X111395898Y-107210626D01*
X111360626Y-107157837D01*
X111242165Y-107039376D01*
X111242161Y-107039373D01*
X111155609Y-106981540D01*
X111150518Y-106975449D01*
X111143297Y-106972151D01*
X111128431Y-106949020D01*
X111110804Y-106927927D01*
X111108852Y-106918553D01*
X111105523Y-106913373D01*
X111100500Y-106878438D01*
X111100500Y-106703650D01*
X111120185Y-106636611D01*
X111136815Y-106615972D01*
X111160626Y-106592162D01*
X111253703Y-106452863D01*
X111317816Y-106298082D01*
X111350500Y-106133767D01*
X111350500Y-105966233D01*
X111317816Y-105801918D01*
X111253703Y-105647137D01*
X111197605Y-105563181D01*
X111160626Y-105507837D01*
X111042162Y-105389373D01*
X110902860Y-105296295D01*
X110806728Y-105256476D01*
X110751524Y-105233610D01*
X110697123Y-105189770D01*
X110675058Y-105123476D01*
X110692337Y-105055777D01*
X110711294Y-105031373D01*
X110980520Y-104762148D01*
X111059577Y-104625216D01*
X111100501Y-104472489D01*
X111100501Y-104314374D01*
X111100501Y-104306779D01*
X111100500Y-104306761D01*
X111100500Y-103834410D01*
X111120185Y-103767371D01*
X111136816Y-103746731D01*
X111150506Y-103733042D01*
X111243583Y-103593743D01*
X111307696Y-103438962D01*
X111340380Y-103274647D01*
X111340380Y-103107113D01*
X111338705Y-103098692D01*
X111344931Y-103029102D01*
X111387793Y-102973924D01*
X111453683Y-102950678D01*
X111460322Y-102950500D01*
X116913331Y-102950500D01*
X116913347Y-102950501D01*
X116920943Y-102950501D01*
X117079054Y-102950501D01*
X117079057Y-102950501D01*
X117231785Y-102909577D01*
X117281904Y-102880639D01*
X117368716Y-102830520D01*
X117480520Y-102718716D01*
X117480520Y-102718714D01*
X117490728Y-102708507D01*
X117490729Y-102708504D01*
X119062416Y-101136819D01*
X119123739Y-101103334D01*
X119150097Y-101100500D01*
X121481393Y-101100500D01*
X121548432Y-101120185D01*
G37*
%TD.AperFunction*%
%TA.AperFunction,Conductor*%
G36*
X124744418Y-97299217D02*
G01*
X124811307Y-97319398D01*
X124856670Y-97372539D01*
X124866055Y-97404359D01*
X124991722Y-98221202D01*
X124982460Y-98290455D01*
X124937228Y-98343707D01*
X124870385Y-98364051D01*
X124844973Y-98361674D01*
X124783771Y-98349500D01*
X124783767Y-98349500D01*
X124616233Y-98349500D01*
X124616228Y-98349500D01*
X124451925Y-98382182D01*
X124451917Y-98382184D01*
X124297139Y-98446295D01*
X124157837Y-98539373D01*
X124039373Y-98657837D01*
X123946295Y-98797139D01*
X123946293Y-98797143D01*
X123919921Y-98860810D01*
X123876080Y-98915213D01*
X123809785Y-98937277D01*
X123742086Y-98919997D01*
X123736471Y-98916459D01*
X123715753Y-98902616D01*
X123660511Y-98865704D01*
X123660508Y-98865702D01*
X123660507Y-98865702D01*
X123505730Y-98801591D01*
X123505722Y-98801589D01*
X123341419Y-98768907D01*
X123341415Y-98768907D01*
X123173881Y-98768907D01*
X123173876Y-98768907D01*
X123009573Y-98801589D01*
X123009565Y-98801591D01*
X122854787Y-98865702D01*
X122715485Y-98958780D01*
X122715482Y-98958783D01*
X122691678Y-98982588D01*
X122630355Y-99016073D01*
X122603997Y-99018907D01*
X119067263Y-99018907D01*
X119067247Y-99018906D01*
X119059651Y-99018906D01*
X118901536Y-99018906D01*
X118825172Y-99039368D01*
X118748807Y-99059830D01*
X118748802Y-99059833D01*
X118611883Y-99138882D01*
X118611875Y-99138888D01*
X116637584Y-101113181D01*
X116576261Y-101146666D01*
X116549903Y-101149500D01*
X110263825Y-101149500D01*
X110273068Y-100012559D01*
X116900000Y-100050000D01*
X118067532Y-97325758D01*
X118112031Y-97271896D01*
X118178589Y-97250641D01*
X118182387Y-97250610D01*
X124744418Y-97299217D01*
G37*
%TD.AperFunction*%
%TD*%
%TA.AperFunction,Conductor*%
%TO.N,GND*%
G36*
X104149500Y-90687770D02*
G01*
X104129815Y-90754809D01*
X104113181Y-90775451D01*
X104067051Y-90821580D01*
X104067048Y-90821584D01*
X103984919Y-90944498D01*
X103984912Y-90944511D01*
X103928343Y-91081082D01*
X103928340Y-91081092D01*
X103899500Y-91226079D01*
X103899500Y-91226082D01*
X103899500Y-91373918D01*
X103901591Y-91384430D01*
X103906439Y-91408804D01*
X103904596Y-91465085D01*
X103899501Y-91484100D01*
X103899500Y-91484109D01*
X103899500Y-100898707D01*
X103879815Y-100965746D01*
X103844392Y-101001808D01*
X103821586Y-101017046D01*
X103821580Y-101017051D01*
X103717051Y-101121580D01*
X103717048Y-101121584D01*
X103634919Y-101244498D01*
X103634912Y-101244511D01*
X103578343Y-101381082D01*
X103578340Y-101381092D01*
X103549500Y-101526079D01*
X103549500Y-101526082D01*
X103549500Y-101673918D01*
X103549500Y-101673920D01*
X103549499Y-101673920D01*
X103578340Y-101818907D01*
X103578343Y-101818917D01*
X103634912Y-101955488D01*
X103634919Y-101955501D01*
X103717048Y-102078415D01*
X103717051Y-102078419D01*
X103725808Y-102087176D01*
X103759293Y-102148499D01*
X103754309Y-102218191D01*
X103752688Y-102222309D01*
X103728343Y-102281082D01*
X103728340Y-102281092D01*
X103699500Y-102426079D01*
X103699500Y-102426082D01*
X103699500Y-102573918D01*
X103699500Y-102573920D01*
X103699499Y-102573920D01*
X103728340Y-102718907D01*
X103728343Y-102718917D01*
X103784912Y-102855488D01*
X103784919Y-102855501D01*
X103824828Y-102915230D01*
X100400000Y-102950000D01*
X100413862Y-102093950D01*
X100615173Y-101892641D01*
X100681065Y-101778513D01*
X100715173Y-101651219D01*
X100715173Y-101519435D01*
X100703725Y-101476709D01*
X100699500Y-101444617D01*
X100699500Y-101289022D01*
X100719185Y-101221983D01*
X100735814Y-101201345D01*
X100849499Y-101087661D01*
X100851136Y-101084827D01*
X100915392Y-100973532D01*
X100949500Y-100846238D01*
X100949500Y-99942576D01*
X100969185Y-99875537D01*
X100985819Y-99854895D01*
X101464128Y-99376586D01*
X101999500Y-98841214D01*
X102065392Y-98727086D01*
X102099500Y-98599792D01*
X102099500Y-98468007D01*
X102099500Y-92100208D01*
X102099310Y-92099500D01*
X102065392Y-91972914D01*
X101999500Y-91858786D01*
X101817338Y-91676624D01*
X101783853Y-91615301D01*
X101781019Y-91588943D01*
X101781019Y-91375350D01*
X101778485Y-91365897D01*
X101778482Y-91365887D01*
X101746910Y-91248056D01*
X101734221Y-91226079D01*
X101681018Y-91133929D01*
X101567338Y-91020249D01*
X101552634Y-90993321D01*
X101536042Y-90967503D01*
X101535150Y-90961302D01*
X101533853Y-90958926D01*
X101531019Y-90932568D01*
X101531019Y-90910612D01*
X101550704Y-90843573D01*
X101567338Y-90822931D01*
X101614818Y-90775451D01*
X101796405Y-90593863D01*
X104149500Y-90581797D01*
X104149500Y-90687770D01*
G37*
%TD.AperFunction*%
%TA.AperFunction,Conductor*%
G36*
X110248368Y-93011959D02*
G01*
X110304301Y-93053831D01*
X110328718Y-93119295D01*
X110329030Y-93129149D01*
X110283519Y-98727087D01*
X110273068Y-100012559D01*
X110263012Y-101249500D01*
X109965893Y-101249500D01*
X109834108Y-101249500D01*
X109706814Y-101283608D01*
X109706813Y-101283608D01*
X109706811Y-101283609D01*
X109706810Y-101283609D01*
X109621460Y-101332887D01*
X109605971Y-101337037D01*
X109594395Y-101344477D01*
X109559460Y-101349500D01*
X109523500Y-101349500D01*
X109456461Y-101329815D01*
X109410706Y-101277011D01*
X109399500Y-101225500D01*
X109399500Y-93809675D01*
X109419185Y-93742636D01*
X109435814Y-93721999D01*
X110117355Y-93040458D01*
X110178676Y-93006975D01*
X110248368Y-93011959D01*
G37*
%TD.AperFunction*%
%TA.AperFunction,Conductor*%
G36*
X110347372Y-90873161D02*
G01*
X110347372Y-90873162D01*
X110343508Y-91348318D01*
X110323279Y-91415196D01*
X110307193Y-91434991D01*
X108913181Y-92829004D01*
X108851858Y-92862489D01*
X108782166Y-92857505D01*
X108726233Y-92815633D01*
X108701816Y-92750169D01*
X108701500Y-92741323D01*
X108701500Y-90558453D01*
X110350000Y-90550000D01*
X110347372Y-90873161D01*
G37*
%TD.AperFunction*%
%TD*%
M02*
