%TF.GenerationSoftware,KiCad,Pcbnew,9.0.4*%
%TF.CreationDate,2025-12-02T17:22:54+01:00*%
%TF.ProjectId,iec62386-panel,69656336-3233-4383-962d-70616e656c2e,rev?*%
%TF.SameCoordinates,Original*%
%TF.FileFunction,Soldermask,Top*%
%TF.FilePolarity,Negative*%
%FSLAX46Y46*%
G04 Gerber Fmt 4.6, Leading zero omitted, Abs format (unit mm)*
G04 Created by KiCad (PCBNEW 9.0.4) date 2025-12-02 17:22:54*
%MOMM*%
%LPD*%
G01*
G04 APERTURE LIST*
G04 Aperture macros list*
%AMRoundRect*
0 Rectangle with rounded corners*
0 $1 Rounding radius*
0 $2 $3 $4 $5 $6 $7 $8 $9 X,Y pos of 4 corners*
0 Add a 4 corners polygon primitive as box body*
4,1,4,$2,$3,$4,$5,$6,$7,$8,$9,$2,$3,0*
0 Add four circle primitives for the rounded corners*
1,1,$1+$1,$2,$3*
1,1,$1+$1,$4,$5*
1,1,$1+$1,$6,$7*
1,1,$1+$1,$8,$9*
0 Add four rect primitives between the rounded corners*
20,1,$1+$1,$2,$3,$4,$5,0*
20,1,$1+$1,$4,$5,$6,$7,0*
20,1,$1+$1,$6,$7,$8,$9,0*
20,1,$1+$1,$8,$9,$2,$3,0*%
%AMOutline5P*
0 Free polygon, 5 corners , with rotation*
0 The origin of the aperture is its center*
0 number of corners: always 5*
0 $1 to $10 corner X, Y*
0 $11 Rotation angle, in degrees counterclockwise*
0 create outline with 5 corners*
4,1,5,$1,$2,$3,$4,$5,$6,$7,$8,$9,$10,$1,$2,$11*%
%AMOutline6P*
0 Free polygon, 6 corners , with rotation*
0 The origin of the aperture is its center*
0 number of corners: always 6*
0 $1 to $12 corner X, Y*
0 $13 Rotation angle, in degrees counterclockwise*
0 create outline with 6 corners*
4,1,6,$1,$2,$3,$4,$5,$6,$7,$8,$9,$10,$11,$12,$1,$2,$13*%
%AMOutline7P*
0 Free polygon, 7 corners , with rotation*
0 The origin of the aperture is its center*
0 number of corners: always 7*
0 $1 to $14 corner X, Y*
0 $15 Rotation angle, in degrees counterclockwise*
0 create outline with 7 corners*
4,1,7,$1,$2,$3,$4,$5,$6,$7,$8,$9,$10,$11,$12,$13,$14,$1,$2,$15*%
%AMOutline8P*
0 Free polygon, 8 corners , with rotation*
0 The origin of the aperture is its center*
0 number of corners: always 8*
0 $1 to $16 corner X, Y*
0 $17 Rotation angle, in degrees counterclockwise*
0 create outline with 8 corners*
4,1,8,$1,$2,$3,$4,$5,$6,$7,$8,$9,$10,$11,$12,$13,$14,$15,$16,$1,$2,$17*%
G04 Aperture macros list end*
%ADD10RoundRect,0.300000X0.400000X0.300000X-0.400000X0.300000X-0.400000X-0.300000X0.400000X-0.300000X0*%
%ADD11RoundRect,0.225000X0.865000X-0.585000X0.865000X0.585000X-0.865000X0.585000X-0.865000X-0.585000X0*%
%ADD12RoundRect,0.237500X-0.300000X-0.237500X0.300000X-0.237500X0.300000X0.237500X-0.300000X0.237500X0*%
%ADD13RoundRect,0.237500X-0.250000X-0.237500X0.250000X-0.237500X0.250000X0.237500X-0.250000X0.237500X0*%
%ADD14C,1.050000*%
%ADD15RoundRect,0.237500X0.250000X0.237500X-0.250000X0.237500X-0.250000X-0.237500X0.250000X-0.237500X0*%
%ADD16RoundRect,0.250000X0.250000X0.250000X-0.250000X0.250000X-0.250000X-0.250000X0.250000X-0.250000X0*%
%ADD17RoundRect,0.150000X-0.587500X-0.150000X0.587500X-0.150000X0.587500X0.150000X-0.587500X0.150000X0*%
%ADD18RoundRect,0.237500X-0.237500X0.250000X-0.237500X-0.250000X0.237500X-0.250000X0.237500X0.250000X0*%
%ADD19RoundRect,0.150000X0.587500X0.150000X-0.587500X0.150000X-0.587500X-0.150000X0.587500X-0.150000X0*%
%ADD20RoundRect,0.237500X-0.237500X0.300000X-0.237500X-0.300000X0.237500X-0.300000X0.237500X0.300000X0*%
%ADD21RoundRect,0.200000X0.200000X-0.562500X0.200000X0.562500X-0.200000X0.562500X-0.200000X-0.562500X0*%
%ADD22R,2.006600X2.794000*%
%ADD23RoundRect,0.250000X-0.250000X-0.250000X0.250000X-0.250000X0.250000X0.250000X-0.250000X0.250000X0*%
%ADD24RoundRect,0.237500X0.287500X0.237500X-0.287500X0.237500X-0.287500X-0.237500X0.287500X-0.237500X0*%
%ADD25RoundRect,0.237500X0.300000X0.237500X-0.300000X0.237500X-0.300000X-0.237500X0.300000X-0.237500X0*%
%ADD26RoundRect,0.250000X-0.550000X1.500000X-0.550000X-1.500000X0.550000X-1.500000X0.550000X1.500000X0*%
%ADD27Outline5P,-0.400000X0.180200X-0.155200X0.425000X0.400000X0.425000X0.400000X-0.425000X-0.400000X-0.425000X270.000000*%
%ADD28R,0.850000X0.850000*%
%ADD29R,0.850000X0.800000*%
%ADD30RoundRect,0.250000X-0.337500X-0.475000X0.337500X-0.475000X0.337500X0.475000X-0.337500X0.475000X0*%
%ADD31R,1.700000X1.700000*%
%ADD32C,1.700000*%
%ADD33R,1.000000X0.430000*%
%ADD34R,1.200000X2.000000*%
%ADD35RoundRect,0.237500X0.237500X-0.300000X0.237500X0.300000X-0.237500X0.300000X-0.237500X-0.300000X0*%
%ADD36RoundRect,0.250000X0.650000X-0.412500X0.650000X0.412500X-0.650000X0.412500X-0.650000X-0.412500X0*%
%ADD37RoundRect,0.062500X0.062500X-0.375000X0.062500X0.375000X-0.062500X0.375000X-0.062500X-0.375000X0*%
%ADD38RoundRect,0.062500X0.375000X-0.062500X0.375000X0.062500X-0.375000X0.062500X-0.375000X-0.062500X0*%
%ADD39R,3.100000X3.100000*%
%ADD40RoundRect,0.072500X-0.390000X-0.072500X0.390000X-0.072500X0.390000X0.072500X-0.390000X0.072500X0*%
%ADD41RoundRect,0.072500X-0.072500X-0.372500X0.072500X-0.372500X0.072500X0.372500X-0.072500X0.372500X0*%
%ADD42RoundRect,0.072500X-0.072500X-0.390000X0.072500X-0.390000X0.072500X0.390000X-0.072500X0.390000X0*%
%ADD43RoundRect,0.250000X-0.650000X0.412500X-0.650000X-0.412500X0.650000X-0.412500X0.650000X0.412500X0*%
%ADD44R,1.000000X0.400000*%
%ADD45R,0.700000X1.600000*%
%ADD46R,2.000000X4.200000*%
%ADD47RoundRect,0.050000X0.385000X0.100000X-0.385000X0.100000X-0.385000X-0.100000X0.385000X-0.100000X0*%
%ADD48RoundRect,0.250000X0.625000X0.625000X-0.625000X0.625000X-0.625000X-0.625000X0.625000X-0.625000X0*%
%ADD49C,1.750000*%
G04 APERTURE END LIST*
D10*
%TO.C,D4*%
X108050000Y-75150000D03*
X104150000Y-75150000D03*
%TD*%
D11*
%TO.C,D5*%
X112900000Y-71660000D03*
X112900000Y-67440000D03*
%TD*%
D12*
%TO.C,C16*%
X104637500Y-90300000D03*
X106362500Y-90300000D03*
%TD*%
D13*
%TO.C,R19*%
X104587500Y-88635000D03*
X106412500Y-88635000D03*
%TD*%
D14*
%TO.C,J6*%
X105105000Y-86425000D03*
X106375000Y-86425000D03*
X105105000Y-85155000D03*
X106375000Y-85155000D03*
X105105000Y-83885000D03*
X106375000Y-83885000D03*
%TD*%
D13*
%TO.C,R18*%
X102512500Y-84900000D03*
X100687500Y-84900000D03*
%TD*%
D15*
%TO.C,R2*%
X112975000Y-81362500D03*
X114800000Y-81362500D03*
%TD*%
D16*
%TO.C,D1*%
X116887500Y-77712500D03*
X119387500Y-77712500D03*
%TD*%
D17*
%TO.C,Q3*%
X120625000Y-80750000D03*
X118750000Y-81700000D03*
X118750000Y-79800000D03*
%TD*%
D18*
%TO.C,R3*%
X116637500Y-81675000D03*
X116637500Y-79850000D03*
%TD*%
%TO.C,R1*%
X121637500Y-79225000D03*
X121637500Y-77400000D03*
%TD*%
D19*
%TO.C,Q1*%
X112662500Y-78612500D03*
X114537500Y-77662500D03*
X114537500Y-79562500D03*
%TD*%
D20*
%TO.C,C4*%
X104375000Y-81675000D03*
X104375000Y-79950000D03*
%TD*%
D21*
%TO.C,D9*%
X117150000Y-72887500D03*
X121150000Y-72887500D03*
X121150000Y-67012500D03*
X117150000Y-67012500D03*
%TD*%
D22*
%TO.C,F1*%
X100307500Y-75150000D03*
X95252900Y-75150000D03*
%TD*%
D23*
%TO.C,D7*%
X116600000Y-75400000D03*
X119100000Y-75400000D03*
%TD*%
D24*
%TO.C,D2*%
X97375000Y-103950000D03*
X95625000Y-103950000D03*
%TD*%
D13*
%TO.C,R21*%
X100687500Y-88350000D03*
X102512500Y-88350000D03*
%TD*%
%TO.C,R20*%
X100675000Y-86700000D03*
X102500000Y-86700000D03*
%TD*%
D25*
%TO.C,C17*%
X102450000Y-90050000D03*
X100725000Y-90050000D03*
%TD*%
D26*
%TO.C,C15*%
X95800000Y-83750000D03*
X95800000Y-89150000D03*
%TD*%
D27*
%TO.C,U5*%
X109590000Y-103990000D03*
D28*
X108450000Y-103990000D03*
D29*
X107300000Y-103990000D03*
X106925000Y-105020000D03*
X107300000Y-106040000D03*
D28*
X108440000Y-106050000D03*
D29*
X109590000Y-106050000D03*
X109975000Y-105020000D03*
%TD*%
D15*
%TO.C,R16*%
X123962500Y-98550000D03*
X122137500Y-98550000D03*
%TD*%
D30*
%TO.C,C3*%
X114962500Y-84300000D03*
X117037500Y-84300000D03*
%TD*%
D31*
%TO.C,J2*%
X88900000Y-75810000D03*
D32*
X88900000Y-78350000D03*
X88900000Y-80890000D03*
X88900000Y-83430000D03*
X88900000Y-85970000D03*
X88900000Y-88510000D03*
X88900000Y-91050000D03*
X88900000Y-93590000D03*
X88900000Y-96130000D03*
X88900000Y-98670000D03*
%TD*%
D33*
%TO.C,RN4*%
X114580000Y-97950000D03*
X114580000Y-97150000D03*
X114580000Y-96350000D03*
X114580000Y-95550000D03*
X112820000Y-95550000D03*
X112820000Y-96350000D03*
X112820000Y-97150000D03*
X112820000Y-97950000D03*
%TD*%
D25*
%TO.C,C14*%
X109312500Y-107704386D03*
X107587500Y-107704386D03*
%TD*%
D20*
%TO.C,C8*%
X110860000Y-86437500D03*
X110860000Y-88162500D03*
%TD*%
D34*
%TO.C,L1*%
X109500000Y-83950000D03*
X112700000Y-83950000D03*
%TD*%
D33*
%TO.C,RN3*%
X111230000Y-94750000D03*
X111230000Y-93950000D03*
X111230000Y-93150000D03*
X111230000Y-92350000D03*
X109470000Y-92350000D03*
X109470000Y-93150000D03*
X109470000Y-93950000D03*
X109470000Y-94750000D03*
%TD*%
D35*
%TO.C,C9*%
X99650000Y-102412500D03*
X99650000Y-100687500D03*
%TD*%
%TO.C,C10*%
X101450000Y-102412500D03*
X101450000Y-100687500D03*
%TD*%
D36*
%TO.C,C1*%
X124200000Y-81012500D03*
X124200000Y-77887500D03*
%TD*%
D18*
%TO.C,R11*%
X119300000Y-86387500D03*
X119300000Y-88212500D03*
%TD*%
D15*
%TO.C,R7*%
X122975000Y-88825000D03*
X121150000Y-88825000D03*
%TD*%
D35*
%TO.C,C11*%
X106400000Y-93862500D03*
X106400000Y-92137500D03*
%TD*%
D13*
%TO.C,R5*%
X109187500Y-89950000D03*
X111012500Y-89950000D03*
%TD*%
D18*
%TO.C,R4*%
X117650000Y-86387500D03*
X117650000Y-88212500D03*
%TD*%
D12*
%TO.C,C12*%
X99737500Y-107704386D03*
X101462500Y-107704386D03*
%TD*%
D37*
%TO.C,U6*%
X105200000Y-101525000D03*
X105700000Y-101525000D03*
X106200000Y-101525000D03*
X106700000Y-101525000D03*
X107200000Y-101525000D03*
X107700000Y-101525000D03*
X108200000Y-101525000D03*
X108700000Y-101525000D03*
D38*
X109387500Y-100837500D03*
X109387500Y-100337500D03*
X109387500Y-99837500D03*
X109387500Y-99337500D03*
X109387500Y-98837500D03*
X109387500Y-98337500D03*
X109387500Y-97837500D03*
X109387500Y-97337500D03*
D37*
X108700000Y-96650000D03*
X108200000Y-96650000D03*
X107700000Y-96650000D03*
X107200000Y-96650000D03*
X106700000Y-96650000D03*
X106200000Y-96650000D03*
X105700000Y-96650000D03*
X105200000Y-96650000D03*
D38*
X104512500Y-97337500D03*
X104512500Y-97837500D03*
X104512500Y-98337500D03*
X104512500Y-98837500D03*
X104512500Y-99337500D03*
X104512500Y-99837500D03*
X104512500Y-100337500D03*
X104512500Y-100837500D03*
D39*
X106950000Y-99087500D03*
%TD*%
D13*
%TO.C,R12*%
X95587500Y-105854386D03*
X97412500Y-105854386D03*
%TD*%
D15*
%TO.C,R13*%
X97412500Y-107704386D03*
X95587500Y-107704386D03*
%TD*%
D17*
%TO.C,Q2*%
X106275000Y-79850000D03*
X106275000Y-81750000D03*
X108150000Y-80800000D03*
%TD*%
D15*
%TO.C,R14*%
X120462500Y-98200000D03*
X118637500Y-98200000D03*
%TD*%
D20*
%TO.C,C7*%
X109200000Y-86437500D03*
X109200000Y-88162500D03*
%TD*%
D12*
%TO.C,C13*%
X103547500Y-107720000D03*
X105272500Y-107720000D03*
%TD*%
D31*
%TO.C,J3*%
X127500000Y-75810000D03*
D32*
X127500000Y-78350000D03*
X127500000Y-80890000D03*
X127500000Y-83430000D03*
X127500000Y-85970000D03*
X127500000Y-88510000D03*
X127500000Y-91050000D03*
X127500000Y-93590000D03*
X127500000Y-96130000D03*
X127500000Y-98670000D03*
%TD*%
D40*
%TO.C,U4*%
X103387500Y-104754386D03*
X103387500Y-105254386D03*
D41*
X103900000Y-106046886D03*
D42*
X104400000Y-106046886D03*
D41*
X104900000Y-106046886D03*
D40*
X105412500Y-105254386D03*
X105412500Y-104754386D03*
D41*
X104900000Y-103961886D03*
D42*
X104400000Y-103961886D03*
D41*
X103900000Y-103961886D03*
%TD*%
D33*
%TO.C,RN1*%
X96090000Y-96500000D03*
X96090000Y-97300000D03*
X96090000Y-98100000D03*
X96090000Y-98900000D03*
X97850000Y-98900000D03*
X97850000Y-98100000D03*
X97850000Y-97300000D03*
X97850000Y-96500000D03*
%TD*%
D13*
%TO.C,R15*%
X122137500Y-100200000D03*
X123962500Y-100200000D03*
%TD*%
D20*
%TO.C,C2*%
X116000000Y-86437500D03*
X116000000Y-88162500D03*
%TD*%
D43*
%TO.C,C5*%
X122150000Y-83537500D03*
X122150000Y-86662500D03*
%TD*%
D33*
%TO.C,RN2*%
X101140000Y-93300000D03*
X101140000Y-94100000D03*
X101140000Y-94900000D03*
X101140000Y-95700000D03*
X102900000Y-95700000D03*
X102900000Y-94900000D03*
X102900000Y-94100000D03*
X102900000Y-93300000D03*
%TD*%
D44*
%TO.C,U3*%
X99450000Y-104779386D03*
X99450000Y-105729386D03*
X101750000Y-105729386D03*
X101750000Y-104779386D03*
D45*
X100600000Y-105254386D03*
%TD*%
D15*
%TO.C,R17*%
X97412500Y-102204386D03*
X95587500Y-102204386D03*
%TD*%
D46*
%TO.C,BZ1*%
X112450000Y-103850000D03*
X120450000Y-103850000D03*
%TD*%
D47*
%TO.C,U2*%
X114300000Y-88100000D03*
X114300000Y-87600000D03*
X114300000Y-87100000D03*
X114300000Y-86600000D03*
X112620000Y-86600000D03*
X112620000Y-87100000D03*
X112620000Y-87600000D03*
X112620000Y-88100000D03*
%TD*%
D13*
%TO.C,R8*%
X117587500Y-90450000D03*
X119412500Y-90450000D03*
%TD*%
%TO.C,R9*%
X100687500Y-81400000D03*
X102512500Y-81400000D03*
%TD*%
D12*
%TO.C,C6*%
X121200000Y-90475000D03*
X122925000Y-90475000D03*
%TD*%
D15*
%TO.C,R6*%
X114512500Y-89950000D03*
X112687500Y-89950000D03*
%TD*%
D48*
%TO.C,J1*%
X108165000Y-69621886D03*
D49*
X104355000Y-69621886D03*
X100545000Y-69621886D03*
X96735000Y-69621886D03*
%TD*%
D13*
%TO.C,R10*%
X100687500Y-83100000D03*
X102512500Y-83100000D03*
%TD*%
D10*
%TO.C,D6*%
X124800000Y-75150000D03*
X121000000Y-75150000D03*
%TD*%
M02*
