%TF.GenerationSoftware,KiCad,Pcbnew,9.0.4*%
%TF.CreationDate,2025-12-02T17:22:53+01:00*%
%TF.ProjectId,iec62386-panel,69656336-3233-4383-962d-70616e656c2e,rev?*%
%TF.SameCoordinates,Original*%
%TF.FileFunction,Copper,L1,Top*%
%TF.FilePolarity,Positive*%
%FSLAX46Y46*%
G04 Gerber Fmt 4.6, Leading zero omitted, Abs format (unit mm)*
G04 Created by KiCad (PCBNEW 9.0.4) date 2025-12-02 17:22:53*
%MOMM*%
%LPD*%
G01*
G04 APERTURE LIST*
G04 Aperture macros list*
%AMRoundRect*
0 Rectangle with rounded corners*
0 $1 Rounding radius*
0 $2 $3 $4 $5 $6 $7 $8 $9 X,Y pos of 4 corners*
0 Add a 4 corners polygon primitive as box body*
4,1,4,$2,$3,$4,$5,$6,$7,$8,$9,$2,$3,0*
0 Add four circle primitives for the rounded corners*
1,1,$1+$1,$2,$3*
1,1,$1+$1,$4,$5*
1,1,$1+$1,$6,$7*
1,1,$1+$1,$8,$9*
0 Add four rect primitives between the rounded corners*
20,1,$1+$1,$2,$3,$4,$5,0*
20,1,$1+$1,$4,$5,$6,$7,0*
20,1,$1+$1,$6,$7,$8,$9,0*
20,1,$1+$1,$8,$9,$2,$3,0*%
%AMOutline5P*
0 Free polygon, 5 corners , with rotation*
0 The origin of the aperture is its center*
0 number of corners: always 5*
0 $1 to $10 corner X, Y*
0 $11 Rotation angle, in degrees counterclockwise*
0 create outline with 5 corners*
4,1,5,$1,$2,$3,$4,$5,$6,$7,$8,$9,$10,$1,$2,$11*%
%AMOutline6P*
0 Free polygon, 6 corners , with rotation*
0 The origin of the aperture is its center*
0 number of corners: always 6*
0 $1 to $12 corner X, Y*
0 $13 Rotation angle, in degrees counterclockwise*
0 create outline with 6 corners*
4,1,6,$1,$2,$3,$4,$5,$6,$7,$8,$9,$10,$11,$12,$1,$2,$13*%
%AMOutline7P*
0 Free polygon, 7 corners , with rotation*
0 The origin of the aperture is its center*
0 number of corners: always 7*
0 $1 to $14 corner X, Y*
0 $15 Rotation angle, in degrees counterclockwise*
0 create outline with 7 corners*
4,1,7,$1,$2,$3,$4,$5,$6,$7,$8,$9,$10,$11,$12,$13,$14,$1,$2,$15*%
%AMOutline8P*
0 Free polygon, 8 corners , with rotation*
0 The origin of the aperture is its center*
0 number of corners: always 8*
0 $1 to $16 corner X, Y*
0 $17 Rotation angle, in degrees counterclockwise*
0 create outline with 8 corners*
4,1,8,$1,$2,$3,$4,$5,$6,$7,$8,$9,$10,$11,$12,$13,$14,$15,$16,$1,$2,$17*%
G04 Aperture macros list end*
%TA.AperFunction,SMDPad,CuDef*%
%ADD10RoundRect,0.300000X0.400000X0.300000X-0.400000X0.300000X-0.400000X-0.300000X0.400000X-0.300000X0*%
%TD*%
%TA.AperFunction,SMDPad,CuDef*%
%ADD11RoundRect,0.225000X0.865000X-0.585000X0.865000X0.585000X-0.865000X0.585000X-0.865000X-0.585000X0*%
%TD*%
%TA.AperFunction,SMDPad,CuDef*%
%ADD12RoundRect,0.237500X-0.300000X-0.237500X0.300000X-0.237500X0.300000X0.237500X-0.300000X0.237500X0*%
%TD*%
%TA.AperFunction,SMDPad,CuDef*%
%ADD13RoundRect,0.237500X-0.250000X-0.237500X0.250000X-0.237500X0.250000X0.237500X-0.250000X0.237500X0*%
%TD*%
%TA.AperFunction,ComponentPad*%
%ADD14C,1.050000*%
%TD*%
%TA.AperFunction,SMDPad,CuDef*%
%ADD15RoundRect,0.237500X0.250000X0.237500X-0.250000X0.237500X-0.250000X-0.237500X0.250000X-0.237500X0*%
%TD*%
%TA.AperFunction,SMDPad,CuDef*%
%ADD16RoundRect,0.250000X0.250000X0.250000X-0.250000X0.250000X-0.250000X-0.250000X0.250000X-0.250000X0*%
%TD*%
%TA.AperFunction,SMDPad,CuDef*%
%ADD17RoundRect,0.150000X-0.587500X-0.150000X0.587500X-0.150000X0.587500X0.150000X-0.587500X0.150000X0*%
%TD*%
%TA.AperFunction,SMDPad,CuDef*%
%ADD18RoundRect,0.237500X-0.237500X0.250000X-0.237500X-0.250000X0.237500X-0.250000X0.237500X0.250000X0*%
%TD*%
%TA.AperFunction,SMDPad,CuDef*%
%ADD19RoundRect,0.150000X0.587500X0.150000X-0.587500X0.150000X-0.587500X-0.150000X0.587500X-0.150000X0*%
%TD*%
%TA.AperFunction,SMDPad,CuDef*%
%ADD20RoundRect,0.237500X-0.237500X0.300000X-0.237500X-0.300000X0.237500X-0.300000X0.237500X0.300000X0*%
%TD*%
%TA.AperFunction,SMDPad,CuDef*%
%ADD21RoundRect,0.200000X0.200000X-0.562500X0.200000X0.562500X-0.200000X0.562500X-0.200000X-0.562500X0*%
%TD*%
%TA.AperFunction,SMDPad,CuDef*%
%ADD22R,2.006600X2.794000*%
%TD*%
%TA.AperFunction,SMDPad,CuDef*%
%ADD23RoundRect,0.250000X-0.250000X-0.250000X0.250000X-0.250000X0.250000X0.250000X-0.250000X0.250000X0*%
%TD*%
%TA.AperFunction,SMDPad,CuDef*%
%ADD24RoundRect,0.237500X0.287500X0.237500X-0.287500X0.237500X-0.287500X-0.237500X0.287500X-0.237500X0*%
%TD*%
%TA.AperFunction,SMDPad,CuDef*%
%ADD25RoundRect,0.237500X0.300000X0.237500X-0.300000X0.237500X-0.300000X-0.237500X0.300000X-0.237500X0*%
%TD*%
%TA.AperFunction,SMDPad,CuDef*%
%ADD26RoundRect,0.250000X-0.550000X1.500000X-0.550000X-1.500000X0.550000X-1.500000X0.550000X1.500000X0*%
%TD*%
%TA.AperFunction,SMDPad,CuDef*%
%ADD27Outline5P,-0.400000X0.180200X-0.155200X0.425000X0.400000X0.425000X0.400000X-0.425000X-0.400000X-0.425000X270.000000*%
%TD*%
%TA.AperFunction,SMDPad,CuDef*%
%ADD28R,0.850000X0.850000*%
%TD*%
%TA.AperFunction,SMDPad,CuDef*%
%ADD29R,0.850000X0.800000*%
%TD*%
%TA.AperFunction,SMDPad,CuDef*%
%ADD30RoundRect,0.250000X-0.337500X-0.475000X0.337500X-0.475000X0.337500X0.475000X-0.337500X0.475000X0*%
%TD*%
%TA.AperFunction,ComponentPad*%
%ADD31R,1.700000X1.700000*%
%TD*%
%TA.AperFunction,ComponentPad*%
%ADD32C,1.700000*%
%TD*%
%TA.AperFunction,SMDPad,CuDef*%
%ADD33R,1.000000X0.430000*%
%TD*%
%TA.AperFunction,SMDPad,CuDef*%
%ADD34R,1.200000X2.000000*%
%TD*%
%TA.AperFunction,SMDPad,CuDef*%
%ADD35RoundRect,0.237500X0.237500X-0.300000X0.237500X0.300000X-0.237500X0.300000X-0.237500X-0.300000X0*%
%TD*%
%TA.AperFunction,SMDPad,CuDef*%
%ADD36RoundRect,0.250000X0.650000X-0.412500X0.650000X0.412500X-0.650000X0.412500X-0.650000X-0.412500X0*%
%TD*%
%TA.AperFunction,SMDPad,CuDef*%
%ADD37RoundRect,0.062500X0.062500X-0.375000X0.062500X0.375000X-0.062500X0.375000X-0.062500X-0.375000X0*%
%TD*%
%TA.AperFunction,SMDPad,CuDef*%
%ADD38RoundRect,0.062500X0.375000X-0.062500X0.375000X0.062500X-0.375000X0.062500X-0.375000X-0.062500X0*%
%TD*%
%TA.AperFunction,HeatsinkPad*%
%ADD39R,3.100000X3.100000*%
%TD*%
%TA.AperFunction,SMDPad,CuDef*%
%ADD40RoundRect,0.072500X-0.390000X-0.072500X0.390000X-0.072500X0.390000X0.072500X-0.390000X0.072500X0*%
%TD*%
%TA.AperFunction,SMDPad,CuDef*%
%ADD41RoundRect,0.072500X-0.072500X-0.372500X0.072500X-0.372500X0.072500X0.372500X-0.072500X0.372500X0*%
%TD*%
%TA.AperFunction,SMDPad,CuDef*%
%ADD42RoundRect,0.072500X-0.072500X-0.390000X0.072500X-0.390000X0.072500X0.390000X-0.072500X0.390000X0*%
%TD*%
%TA.AperFunction,SMDPad,CuDef*%
%ADD43RoundRect,0.250000X-0.650000X0.412500X-0.650000X-0.412500X0.650000X-0.412500X0.650000X0.412500X0*%
%TD*%
%TA.AperFunction,SMDPad,CuDef*%
%ADD44R,1.000000X0.400000*%
%TD*%
%TA.AperFunction,SMDPad,CuDef*%
%ADD45R,0.700000X1.600000*%
%TD*%
%TA.AperFunction,SMDPad,CuDef*%
%ADD46R,2.000000X4.200000*%
%TD*%
%TA.AperFunction,SMDPad,CuDef*%
%ADD47RoundRect,0.050000X0.385000X0.100000X-0.385000X0.100000X-0.385000X-0.100000X0.385000X-0.100000X0*%
%TD*%
%TA.AperFunction,ComponentPad*%
%ADD48RoundRect,0.250000X0.625000X0.625000X-0.625000X0.625000X-0.625000X-0.625000X0.625000X-0.625000X0*%
%TD*%
%TA.AperFunction,ComponentPad*%
%ADD49C,1.750000*%
%TD*%
%TA.AperFunction,ViaPad*%
%ADD50C,0.700000*%
%TD*%
%TA.AperFunction,ViaPad*%
%ADD51C,0.800000*%
%TD*%
%TA.AperFunction,Conductor*%
%ADD52C,0.800000*%
%TD*%
%TA.AperFunction,Conductor*%
%ADD53C,0.200000*%
%TD*%
%TA.AperFunction,Conductor*%
%ADD54C,0.250000*%
%TD*%
%TA.AperFunction,Conductor*%
%ADD55C,0.300000*%
%TD*%
G04 APERTURE END LIST*
D10*
%TO.P,D4,1,A1*%
%TO.N,/IEC 62386 interface/BUS_2*%
X108050000Y-75150000D03*
%TO.P,D4,2,A2*%
%TO.N,Net-(D4-A2)*%
X104150000Y-75150000D03*
%TD*%
D11*
%TO.P,D5,1,A1*%
%TO.N,Net-(D4-A2)*%
X112900000Y-71660000D03*
%TO.P,D5,2,A2*%
%TO.N,/IEC 62386 interface/BUS_2*%
X112900000Y-67440000D03*
%TD*%
D12*
%TO.P,C16,1*%
%TO.N,Net-(J6-Pin_1)*%
X104637500Y-90300000D03*
%TO.P,C16,2*%
%TO.N,GND*%
X106362500Y-90300000D03*
%TD*%
D13*
%TO.P,R19,1*%
%TO.N,Net-(J6-Pin_3)*%
X104587500Y-88635000D03*
%TO.P,R19,2*%
%TO.N,UART_TX*%
X106412500Y-88635000D03*
%TD*%
D14*
%TO.P,J6,1,Pin_1*%
%TO.N,Net-(J6-Pin_1)*%
X105105000Y-86425000D03*
%TO.P,J6,2,Pin_2*%
%TO.N,Net-(J6-Pin_2)*%
X106375000Y-86425000D03*
%TO.P,J6,3,Pin_3*%
%TO.N,Net-(J6-Pin_3)*%
X105105000Y-85155000D03*
%TO.P,J6,4,Pin_4*%
%TO.N,GND*%
X106375000Y-85155000D03*
%TO.P,J6,5,Pin_5*%
X105105000Y-83885000D03*
%TO.P,J6,6,Pin_6*%
%TO.N,+2V7*%
X106375000Y-83885000D03*
%TD*%
D13*
%TO.P,R18,2*%
%TO.N,+2V7*%
X102512500Y-84900000D03*
%TO.P,R18,1*%
%TO.N,Net-(J6-Pin_1)*%
X100687500Y-84900000D03*
%TD*%
D15*
%TO.P,R2,2*%
%TO.N,Net-(D7-K)*%
X112975000Y-81362500D03*
%TO.P,R2,1*%
%TO.N,/IEC 62386 interface/HV_2*%
X114800000Y-81362500D03*
%TD*%
D16*
%TO.P,D1,2,A*%
%TO.N,/IEC 62386 interface/HV_1*%
X116887500Y-77712500D03*
%TO.P,D1,1,K*%
%TO.N,/IEC 62386 interface/HV_3*%
X119387500Y-77712500D03*
%TD*%
D17*
%TO.P,Q3,3,C*%
%TO.N,/IEC 62386 interface/HV_2*%
X120625000Y-80750000D03*
%TO.P,Q3,2,E*%
%TO.N,VS*%
X118750000Y-81700000D03*
%TO.P,Q3,1,B*%
%TO.N,/IEC 62386 interface/HV_1*%
X118750000Y-79800000D03*
%TD*%
D18*
%TO.P,R3,2*%
%TO.N,VS*%
X116637500Y-81675000D03*
%TO.P,R3,1*%
%TO.N,/IEC 62386 interface/HV_1*%
X116637500Y-79850000D03*
%TD*%
%TO.P,R1,2*%
%TO.N,/IEC 62386 interface/HV_2*%
X121637500Y-79225000D03*
%TO.P,R1,1*%
%TO.N,/IEC 62386 interface/HV_3*%
X121637500Y-77400000D03*
%TD*%
D19*
%TO.P,Q1,3,C*%
%TO.N,Net-(D7-K)*%
X112662500Y-78612500D03*
%TO.P,Q1,2,E*%
%TO.N,/IEC 62386 interface/HV_1*%
X114537500Y-77662500D03*
%TO.P,Q1,1,B*%
%TO.N,/IEC 62386 interface/HV_2*%
X114537500Y-79562500D03*
%TD*%
D20*
%TO.P,C4,2*%
%TO.N,GND*%
X104375000Y-81675000D03*
%TO.P,C4,1*%
%TO.N,Net-(Q2-G)*%
X104375000Y-79950000D03*
%TD*%
D21*
%TO.P,D9,1,+*%
%TO.N,VBUS*%
X117150000Y-72887500D03*
%TO.P,D9,2,-*%
%TO.N,GND*%
X121150000Y-72887500D03*
%TO.P,D9,3*%
%TO.N,Net-(D4-A2)*%
X121150000Y-67012500D03*
%TO.P,D9,4*%
%TO.N,/IEC 62386 interface/BUS_2*%
X117150000Y-67012500D03*
%TD*%
D22*
%TO.P,F1,2*%
%TO.N,Net-(D4-A2)*%
X100307500Y-75150000D03*
%TO.P,F1,1*%
%TO.N,/IEC 62386 interface/BUS_1*%
X95252900Y-75150000D03*
%TD*%
D23*
%TO.P,D7,1,K*%
%TO.N,Net-(D7-K)*%
X116600000Y-75400000D03*
%TO.P,D7,2,A*%
%TO.N,VBUS*%
X119100000Y-75400000D03*
%TD*%
D24*
%TO.P,D2,1,K*%
%TO.N,GND*%
X97375000Y-103950000D03*
%TO.P,D2,2,A*%
%TO.N,Net-(D2-A)*%
X95625000Y-103950000D03*
%TD*%
D13*
%TO.P,R21,1*%
%TO.N,GND*%
X100687500Y-88350000D03*
%TO.P,R21,2*%
%TO.N,VBUF_TEST*%
X102512500Y-88350000D03*
%TD*%
%TO.P,R20,1*%
%TO.N,VS*%
X100675000Y-86700000D03*
%TO.P,R20,2*%
%TO.N,VBUF_TEST*%
X102500000Y-86700000D03*
%TD*%
D25*
%TO.P,C17,1*%
%TO.N,VBUF_TEST*%
X102450000Y-90050000D03*
%TO.P,C17,2*%
%TO.N,GND*%
X100725000Y-90050000D03*
%TD*%
D26*
%TO.P,C15,1*%
%TO.N,VS*%
X95800000Y-83750000D03*
%TO.P,C15,2*%
%TO.N,GND*%
X95800000Y-89150000D03*
%TD*%
D27*
%TO.P,U5,1,SCL*%
%TO.N,SCL*%
X109590000Y-103990000D03*
D28*
%TO.P,U5,2,SDA_C*%
%TO.N,unconnected-(U5-SDA_C-Pad2)*%
X108450000Y-103990000D03*
D29*
%TO.P,U5,3,ADDR*%
%TO.N,GND*%
X107300000Y-103990000D03*
%TO.P,U5,4,VSS*%
X106925000Y-105020000D03*
%TO.P,U5,5,SDA*%
%TO.N,SDA*%
X107300000Y-106040000D03*
D28*
%TO.P,U5,6,VDDIO*%
%TO.N,+2V7*%
X108440000Y-106050000D03*
D29*
%TO.P,U5,7,VDD*%
X109590000Y-106050000D03*
%TO.P,U5,8,SDL_C*%
%TO.N,unconnected-(U5-SDL_C-Pad8)*%
X109975000Y-105020000D03*
%TD*%
D15*
%TO.P,R16,1*%
%TO.N,BUZZER1*%
X123962500Y-98550000D03*
%TO.P,R16,2*%
%TO.N,Net-(BZ1-+)*%
X122137500Y-98550000D03*
%TD*%
D30*
%TO.P,C3,1*%
%TO.N,+2V7*%
X114962500Y-84300000D03*
%TO.P,C3,2*%
%TO.N,GND*%
X117037500Y-84300000D03*
%TD*%
D31*
%TO.P,J2,1,Pin_1*%
%TO.N,unconnected-(J2-Pin_1-Pad1)*%
X88900000Y-75810000D03*
D32*
%TO.P,J2,2,Pin_2*%
%TO.N,Net-(J2-Pin_2)*%
X88900000Y-78350000D03*
%TO.P,J2,3,Pin_3*%
%TO.N,Net-(J2-Pin_3)*%
X88900000Y-80890000D03*
%TO.P,J2,4,Pin_4*%
%TO.N,Net-(J2-Pin_4)*%
X88900000Y-83430000D03*
%TO.P,J2,5,Pin_5*%
%TO.N,Net-(J2-Pin_5)*%
X88900000Y-85970000D03*
%TO.P,J2,6,Pin_6*%
%TO.N,Net-(J2-Pin_6)*%
X88900000Y-88510000D03*
%TO.P,J2,7,Pin_7*%
%TO.N,Net-(J2-Pin_7)*%
X88900000Y-91050000D03*
%TO.P,J2,8,Pin_8*%
%TO.N,Net-(J2-Pin_8)*%
X88900000Y-93590000D03*
%TO.P,J2,9,Pin_9*%
%TO.N,Net-(J2-Pin_9)*%
X88900000Y-96130000D03*
%TO.P,J2,10,Pin_10*%
%TO.N,unconnected-(J2-Pin_10-Pad10)*%
X88900000Y-98670000D03*
%TD*%
D33*
%TO.P,RN4,1,R1.1*%
%TO.N,Net-(J3-Pin_9)*%
X114580000Y-97950000D03*
%TO.P,RN4,2,R2.1*%
%TO.N,Net-(J3-Pin_8)*%
X114580000Y-97150000D03*
%TO.P,RN4,3,R3.1*%
%TO.N,Net-(J3-Pin_7)*%
X114580000Y-96350000D03*
%TO.P,RN4,4,R4.1*%
%TO.N,Net-(J3-Pin_6)*%
X114580000Y-95550000D03*
%TO.P,RN4,5,R4.2*%
%TO.N,CAP0.3*%
X112820000Y-95550000D03*
%TO.P,RN4,6,R3.2*%
%TO.N,CAP0.2*%
X112820000Y-96350000D03*
%TO.P,RN4,7,R2.2*%
%TO.N,CAP0.1*%
X112820000Y-97150000D03*
%TO.P,RN4,8,R1.2*%
%TO.N,CAP0.0*%
X112820000Y-97950000D03*
%TD*%
D25*
%TO.P,C14,1*%
%TO.N,+2V7*%
X109312500Y-107704386D03*
%TO.P,C14,2*%
%TO.N,GND*%
X107587500Y-107704386D03*
%TD*%
D20*
%TO.P,C8,1*%
%TO.N,Net-(U2-SW)*%
X110860000Y-86437500D03*
%TO.P,C8,2*%
%TO.N,Net-(U2-BST)*%
X110860000Y-88162500D03*
%TD*%
D34*
%TO.P,L1,1,1*%
%TO.N,Net-(U2-SW)*%
X109500000Y-83950000D03*
%TO.P,L1,2,2*%
%TO.N,+2V7*%
X112700000Y-83950000D03*
%TD*%
D33*
%TO.P,RN3,1,R1.1*%
%TO.N,Net-(J3-Pin_5)*%
X111230000Y-94750000D03*
%TO.P,RN3,2,R2.1*%
%TO.N,Net-(J3-Pin_4)*%
X111230000Y-93950000D03*
%TO.P,RN3,3,R3.1*%
%TO.N,Net-(J3-Pin_3)*%
X111230000Y-93150000D03*
%TO.P,RN3,4,R4.1*%
%TO.N,Net-(J3-Pin_2)*%
X111230000Y-92350000D03*
%TO.P,RN3,5,R4.2*%
%TO.N,CAP1.3*%
X109470000Y-92350000D03*
%TO.P,RN3,6,R3.2*%
%TO.N,CAP1.2*%
X109470000Y-93150000D03*
%TO.P,RN3,7,R2.2*%
%TO.N,CAP1.1*%
X109470000Y-93950000D03*
%TO.P,RN3,8,R1.2*%
%TO.N,CAP1.0*%
X109470000Y-94750000D03*
%TD*%
D35*
%TO.P,C9,1*%
%TO.N,+2V7*%
X99650000Y-102412500D03*
%TO.P,C9,2*%
%TO.N,GND*%
X99650000Y-100687500D03*
%TD*%
%TO.P,C10,1*%
%TO.N,+2V7*%
X101450000Y-102412500D03*
%TO.P,C10,2*%
%TO.N,GND*%
X101450000Y-100687500D03*
%TD*%
D36*
%TO.P,C1,1*%
%TO.N,VS*%
X124200000Y-81012500D03*
%TO.P,C1,2*%
%TO.N,GND*%
X124200000Y-77887500D03*
%TD*%
D18*
%TO.P,R11,1*%
%TO.N,GND*%
X119300000Y-86387500D03*
%TO.P,R11,2*%
%TO.N,Net-(U2-EN)*%
X119300000Y-88212500D03*
%TD*%
D15*
%TO.P,R7,1*%
%TO.N,VBUS*%
X122975000Y-88825000D03*
%TO.P,R7,2*%
%TO.N,DALI_RX*%
X121150000Y-88825000D03*
%TD*%
D35*
%TO.P,C11,1*%
%TO.N,Net-(U6-VREG)*%
X106400000Y-93862500D03*
%TO.P,C11,2*%
%TO.N,GND*%
X106400000Y-92137500D03*
%TD*%
D13*
%TO.P,R5,1*%
%TO.N,+2V7*%
X109187500Y-89950000D03*
%TO.P,R5,2*%
%TO.N,Net-(U2-FB)*%
X111012500Y-89950000D03*
%TD*%
D18*
%TO.P,R4,1*%
%TO.N,VS*%
X117650000Y-86387500D03*
%TO.P,R4,2*%
%TO.N,Net-(U2-EN)*%
X117650000Y-88212500D03*
%TD*%
D12*
%TO.P,C12,1*%
%TO.N,+2V7*%
X99737500Y-107704386D03*
%TO.P,C12,2*%
%TO.N,GND*%
X101462500Y-107704386D03*
%TD*%
D37*
%TO.P,U6,1,RST_NMI_SBWTDIO_N*%
%TO.N,Net-(J6-Pin_1)*%
X105200000Y-101525000D03*
%TO.P,U6,2,TEST_SBWTCK*%
%TO.N,Net-(J6-Pin_2)*%
X105700000Y-101525000D03*
%TO.P,U6,3,P1.4_UCA0TXD_UCA0SIMO_TA1.2_TCK_A4_VREF+*%
%TO.N,UART_TX*%
X106200000Y-101525000D03*
%TO.P,U6,4,P1.5_UCA0RXD_UCA0SOMI_TA1.1_TMS_A5*%
%TO.N,BUZZER1*%
X106700000Y-101525000D03*
%TO.P,U6,5,P1.6_UCA0CLK_TA1CLK_TDI_TCLK_A6*%
%TO.N,VBUF_TEST*%
X107200000Y-101525000D03*
%TO.P,U6,6,P1.7_UCA0STE_SMCLK_TDO_A7*%
%TO.N,DALI_TX*%
X107700000Y-101525000D03*
%TO.P,U6,7,P1.0_UCB0STE_TA0CLK_A0_VEREF+*%
%TO.N,DALI_RX*%
X108200000Y-101525000D03*
%TO.P,U6,8,P1.1_UCB0CLK_TA0.1_COMP0.0_A1*%
%TO.N,BUZZER2*%
X108700000Y-101525000D03*
D38*
%TO.P,U6,9,P1.2_UCB0SIMO_UCB0SDA_TA0.2_A2_VEREF-*%
%TO.N,SDA*%
X109387500Y-100837500D03*
%TO.P,U6,10,P1.3_UCB0SOMI_UCB0SCL_MCLK_A3*%
%TO.N,SCL*%
X109387500Y-100337500D03*
%TO.P,U6,11,P2.2_SYNC_ACLK_COMP0.1*%
%TO.N,unconnected-(U6-P2.2_SYNC_ACLK_COMP0.1-Pad11)*%
X109387500Y-99837500D03*
%TO.P,U6,12,P3.0_TA2.2_CAP0.0*%
%TO.N,CAP0.0*%
X109387500Y-99337500D03*
%TO.P,U6,13,P3.3_TA2.1_CAP0.1*%
%TO.N,CAP0.1*%
X109387500Y-98837500D03*
%TO.P,U6,14,P2.3_TA2.0_CAP0.2*%
%TO.N,CAP0.2*%
X109387500Y-98337500D03*
%TO.P,U6,15,P3.4_TA2CLK_COMP0OUT_CAP0.3*%
%TO.N,CAP0.3*%
X109387500Y-97837500D03*
%TO.P,U6,16,P3.1_UCA1STE_CAP1.0*%
%TO.N,CAP1.0*%
X109387500Y-97337500D03*
D37*
%TO.P,U6,17,P2.4_UCA1CLK_CAP1.1*%
%TO.N,CAP1.1*%
X108700000Y-96650000D03*
%TO.P,U6,18,P2.5_UCA1RXD_UCA1SOMI_CAP1.2*%
%TO.N,CAP1.2*%
X108200000Y-96650000D03*
%TO.P,U6,19,P2.6_UCA1TXD_UCA1SIMO_CAP1.3*%
%TO.N,CAP1.3*%
X107700000Y-96650000D03*
%TO.P,U6,20,VREG*%
%TO.N,Net-(U6-VREG)*%
X107200000Y-96650000D03*
%TO.P,U6,21,P3.7_TA3.2_CAP2.0*%
%TO.N,CAP2.0*%
X106700000Y-96650000D03*
%TO.P,U6,22,P4.0_TA3.1_CAP2.1*%
%TO.N,CAP2.1*%
X106200000Y-96650000D03*
%TO.P,U6,23,P4.1_TA3.0_CAP2.2*%
%TO.N,CAP2.2*%
X105700000Y-96650000D03*
%TO.P,U6,24,P4.2_TA3CLK_CAP2.3*%
%TO.N,CAP2.3*%
X105200000Y-96650000D03*
D38*
%TO.P,U6,25,P2.7_UCB1STE_CAP3.0*%
%TO.N,CAP3.0*%
X104512500Y-97337500D03*
%TO.P,U6,26,P3.5_UCB1CLK_TB0TRG_CAP3.1*%
%TO.N,CAP3.1*%
X104512500Y-97837500D03*
%TO.P,U6,27,P3.2_UCB1SIMO_UCB1SDA_CAP3.2*%
%TO.N,CAP3.2*%
X104512500Y-98337500D03*
%TO.P,U6,28,P3.6_UCB1SOMI_UCB1SCL_CAP3.3*%
%TO.N,CAP3.3*%
X104512500Y-98837500D03*
%TO.P,U6,29,P2.0_XOUT*%
%TO.N,LED1*%
X104512500Y-99337500D03*
%TO.P,U6,30,P2.1_XIN*%
%TO.N,unconnected-(U6-P2.1_XIN-Pad30)*%
X104512500Y-99837500D03*
%TO.P,U6,31,DVSS*%
%TO.N,GND*%
X104512500Y-100337500D03*
%TO.P,U6,32,DVCC*%
%TO.N,+2V7*%
X104512500Y-100837500D03*
D39*
%TO.P,U6,33,PAD*%
%TO.N,GND*%
X106950000Y-99087500D03*
%TD*%
D13*
%TO.P,R12,1*%
%TO.N,+2V7*%
X95587500Y-105854386D03*
%TO.P,R12,2*%
%TO.N,SDA*%
X97412500Y-105854386D03*
%TD*%
D15*
%TO.P,R13,1*%
%TO.N,SCL*%
X97412500Y-107704386D03*
%TO.P,R13,2*%
%TO.N,+2V7*%
X95587500Y-107704386D03*
%TD*%
D17*
%TO.P,Q2,1,G*%
%TO.N,Net-(Q2-G)*%
X106275000Y-79850000D03*
%TO.P,Q2,2,S*%
%TO.N,GND*%
X106275000Y-81750000D03*
%TO.P,Q2,3,D*%
%TO.N,VBUS*%
X108150000Y-80800000D03*
%TD*%
D15*
%TO.P,R14,1*%
%TO.N,Net-(BZ1--)*%
X120462500Y-98200000D03*
%TO.P,R14,2*%
%TO.N,Net-(BZ1-+)*%
X118637500Y-98200000D03*
%TD*%
D20*
%TO.P,C7,1*%
%TO.N,GND*%
X109200000Y-86437500D03*
%TO.P,C7,2*%
%TO.N,Net-(U2-SS)*%
X109200000Y-88162500D03*
%TD*%
D12*
%TO.P,C13,1*%
%TO.N,GND*%
X103547500Y-107720000D03*
%TO.P,C13,2*%
%TO.N,+2V7*%
X105272500Y-107720000D03*
%TD*%
D31*
%TO.P,J3,1,Pin_1*%
%TO.N,unconnected-(J3-Pin_1-Pad1)*%
X127500000Y-75810000D03*
D32*
%TO.P,J3,2,Pin_2*%
%TO.N,Net-(J3-Pin_2)*%
X127500000Y-78350000D03*
%TO.P,J3,3,Pin_3*%
%TO.N,Net-(J3-Pin_3)*%
X127500000Y-80890000D03*
%TO.P,J3,4,Pin_4*%
%TO.N,Net-(J3-Pin_4)*%
X127500000Y-83430000D03*
%TO.P,J3,5,Pin_5*%
%TO.N,Net-(J3-Pin_5)*%
X127500000Y-85970000D03*
%TO.P,J3,6,Pin_6*%
%TO.N,Net-(J3-Pin_6)*%
X127500000Y-88510000D03*
%TO.P,J3,7,Pin_7*%
%TO.N,Net-(J3-Pin_7)*%
X127500000Y-91050000D03*
%TO.P,J3,8,Pin_8*%
%TO.N,Net-(J3-Pin_8)*%
X127500000Y-93590000D03*
%TO.P,J3,9,Pin_9*%
%TO.N,Net-(J3-Pin_9)*%
X127500000Y-96130000D03*
%TO.P,J3,10,Pin_10*%
%TO.N,unconnected-(J3-Pin_10-Pad10)*%
X127500000Y-98670000D03*
%TD*%
D40*
%TO.P,U4,1,Vdd_IO*%
%TO.N,+2V7*%
X103387500Y-104754386D03*
%TO.P,U4,2,SCL*%
%TO.N,SCL*%
X103387500Y-105254386D03*
D41*
%TO.P,U4,3,GND*%
%TO.N,GND*%
X103900000Y-106046886D03*
D42*
%TO.P,U4,4,SDA*%
%TO.N,SDA*%
X104400000Y-106046886D03*
D41*
%TO.P,U4,5,SA0*%
%TO.N,+2V7*%
X104900000Y-106046886D03*
D40*
%TO.P,U4,6,~{CS}*%
X105412500Y-105254386D03*
%TO.P,U4,7,INT_DRDY*%
%TO.N,unconnected-(U4-INT_DRDY-Pad7)*%
X105412500Y-104754386D03*
D41*
%TO.P,U4,8,GND*%
%TO.N,GND*%
X104900000Y-103961886D03*
D42*
%TO.P,U4,9,GND*%
X104400000Y-103961886D03*
D41*
%TO.P,U4,10,VDD*%
%TO.N,+2V7*%
X103900000Y-103961886D03*
%TD*%
D33*
%TO.P,RN1,1,R1.1*%
%TO.N,Net-(J2-Pin_6)*%
X96090000Y-96500000D03*
%TO.P,RN1,2,R2.1*%
%TO.N,Net-(J2-Pin_7)*%
X96090000Y-97300000D03*
%TO.P,RN1,3,R3.1*%
%TO.N,Net-(J2-Pin_8)*%
X96090000Y-98100000D03*
%TO.P,RN1,4,R4.1*%
%TO.N,Net-(J2-Pin_9)*%
X96090000Y-98900000D03*
%TO.P,RN1,5,R4.2*%
%TO.N,CAP3.3*%
X97850000Y-98900000D03*
%TO.P,RN1,6,R3.2*%
%TO.N,CAP3.2*%
X97850000Y-98100000D03*
%TO.P,RN1,7,R2.2*%
%TO.N,CAP3.1*%
X97850000Y-97300000D03*
%TO.P,RN1,8,R1.2*%
%TO.N,CAP3.0*%
X97850000Y-96500000D03*
%TD*%
D13*
%TO.P,R15,1*%
%TO.N,Net-(BZ1--)*%
X122137500Y-100200000D03*
%TO.P,R15,2*%
%TO.N,BUZZER2*%
X123962500Y-100200000D03*
%TD*%
D20*
%TO.P,C2,1*%
%TO.N,VS*%
X116000000Y-86437500D03*
%TO.P,C2,2*%
%TO.N,GND*%
X116000000Y-88162500D03*
%TD*%
D43*
%TO.P,C5,1*%
%TO.N,VS*%
X122150000Y-83537500D03*
%TO.P,C5,2*%
%TO.N,GND*%
X122150000Y-86662500D03*
%TD*%
D33*
%TO.P,RN2,1,R1.1*%
%TO.N,Net-(J2-Pin_2)*%
X101140000Y-93300000D03*
%TO.P,RN2,2,R2.1*%
%TO.N,Net-(J2-Pin_3)*%
X101140000Y-94100000D03*
%TO.P,RN2,3,R3.1*%
%TO.N,Net-(J2-Pin_4)*%
X101140000Y-94900000D03*
%TO.P,RN2,4,R4.1*%
%TO.N,Net-(J2-Pin_5)*%
X101140000Y-95700000D03*
%TO.P,RN2,5,R4.2*%
%TO.N,CAP2.3*%
X102900000Y-95700000D03*
%TO.P,RN2,6,R3.2*%
%TO.N,CAP2.2*%
X102900000Y-94900000D03*
%TO.P,RN2,7,R2.2*%
%TO.N,CAP2.1*%
X102900000Y-94100000D03*
%TO.P,RN2,8,R1.2*%
%TO.N,CAP2.0*%
X102900000Y-93300000D03*
%TD*%
D44*
%TO.P,U3,1,VDD*%
%TO.N,+2V7*%
X99450000Y-104779386D03*
%TO.P,U3,2,SCL*%
%TO.N,SCL*%
X99450000Y-105729386D03*
%TO.P,U3,3,SDA*%
%TO.N,SDA*%
X101750000Y-105729386D03*
%TO.P,U3,4,GND*%
%TO.N,GND*%
X101750000Y-104779386D03*
D45*
%TO.P,U3,5,GND*%
X100600000Y-105254386D03*
%TD*%
D15*
%TO.P,R17,1*%
%TO.N,LED1*%
X97412500Y-102204386D03*
%TO.P,R17,2*%
%TO.N,Net-(D2-A)*%
X95587500Y-102204386D03*
%TD*%
D46*
%TO.P,BZ1,1,+*%
%TO.N,Net-(BZ1-+)*%
X112450000Y-103850000D03*
%TO.P,BZ1,2,-*%
%TO.N,Net-(BZ1--)*%
X120450000Y-103850000D03*
%TD*%
D47*
%TO.P,U2,1,RT*%
%TO.N,GND*%
X114300000Y-88100000D03*
%TO.P,U2,2,EN*%
%TO.N,Net-(U2-EN)*%
X114300000Y-87600000D03*
%TO.P,U2,3,VIN*%
%TO.N,VS*%
X114300000Y-87100000D03*
%TO.P,U2,4,GND*%
%TO.N,GND*%
X114300000Y-86600000D03*
%TO.P,U2,5,SW*%
%TO.N,Net-(U2-SW)*%
X112620000Y-86600000D03*
%TO.P,U2,6,BST*%
%TO.N,Net-(U2-BST)*%
X112620000Y-87100000D03*
%TO.P,U2,7,SS*%
%TO.N,Net-(U2-SS)*%
X112620000Y-87600000D03*
%TO.P,U2,8,FB*%
%TO.N,Net-(U2-FB)*%
X112620000Y-88100000D03*
%TD*%
D13*
%TO.P,R8,1*%
%TO.N,GND*%
X117587500Y-90450000D03*
%TO.P,R8,2*%
%TO.N,DALI_RX*%
X119412500Y-90450000D03*
%TD*%
%TO.P,R9,1*%
%TO.N,DALI_TX*%
X100687500Y-81400000D03*
%TO.P,R9,2*%
%TO.N,Net-(Q2-G)*%
X102512500Y-81400000D03*
%TD*%
D12*
%TO.P,C6,1*%
%TO.N,DALI_RX*%
X121200000Y-90475000D03*
%TO.P,C6,2*%
%TO.N,GND*%
X122925000Y-90475000D03*
%TD*%
D15*
%TO.P,R6,1*%
%TO.N,GND*%
X114512500Y-89950000D03*
%TO.P,R6,2*%
%TO.N,Net-(U2-FB)*%
X112687500Y-89950000D03*
%TD*%
D48*
%TO.P,J1,1,Pin_1*%
%TO.N,/IEC 62386 interface/BUS_2*%
X108165000Y-69621886D03*
D49*
%TO.P,J1,2,Pin_2*%
X104355000Y-69621886D03*
%TO.P,J1,3,Pin_3*%
%TO.N,/IEC 62386 interface/BUS_1*%
X100545000Y-69621886D03*
%TO.P,J1,4,Pin_4*%
X96735000Y-69621886D03*
%TD*%
D13*
%TO.P,R10,1*%
%TO.N,DALI_TX*%
X100687500Y-83100000D03*
%TO.P,R10,2*%
%TO.N,GND*%
X102512500Y-83100000D03*
%TD*%
D10*
%TO.P,D6,1,K*%
%TO.N,VS*%
X124800000Y-75150000D03*
%TO.P,D6,2,A*%
%TO.N,GND*%
X121000000Y-75150000D03*
%TD*%
D50*
%TO.N,GND*%
X100600000Y-103750000D03*
X114550000Y-100950000D03*
X114550000Y-103200000D03*
X113850000Y-106900000D03*
%TO.N,+2V7*%
X110500000Y-106050000D03*
%TO.N,GND*%
X109150000Y-91200000D03*
D51*
X111650000Y-80400000D03*
D50*
X98150000Y-87850000D03*
D51*
X97350000Y-81400000D03*
D50*
%TO.N,Net-(J3-Pin_4)*%
X113216729Y-93774999D03*
%TO.N,GND*%
X103400000Y-102950000D03*
%TO.N,DALI_RX*%
X109177577Y-102919332D03*
%TO.N,GND*%
X117000000Y-83200000D03*
X119900000Y-73800000D03*
%TO.N,+2V7*%
X98850000Y-103350000D03*
D51*
%TO.N,VS*%
X97450000Y-83250000D03*
X110850000Y-81600000D03*
D50*
%TO.N,DALI_TX*%
X101350000Y-82050000D03*
%TO.N,VBUF_TEST*%
X107550000Y-89450000D03*
%TO.N,UART_TX*%
X106450000Y-87800000D03*
%TO.N,BUZZER1*%
X124700000Y-99200000D03*
%TO.N,BUZZER2*%
X123257648Y-99619407D03*
%TO.N,DALI_RX*%
X120400000Y-89750000D03*
D51*
%TO.N,VBUS*%
X119900000Y-76500000D03*
X108150000Y-79650000D03*
X116400000Y-74050000D03*
D50*
%TO.N,Net-(J6-Pin_1)*%
X103300001Y-85892485D03*
%TO.N,Net-(J3-Pin_5)*%
X113750000Y-94500000D03*
%TO.N,+2V7*%
X103400000Y-84750000D03*
%TO.N,VBUF_TEST*%
X107150261Y-102999122D03*
%TO.N,BUZZER2*%
X109550000Y-102100000D03*
D51*
%TO.N,Net-(D4-A2)*%
X111609875Y-72592679D03*
X121150000Y-68050000D03*
D50*
%TO.N,Net-(J2-Pin_2)*%
X100000000Y-92600000D03*
D51*
%TO.N,Net-(D4-A2)*%
X102250000Y-73650000D03*
D50*
%TO.N,GND*%
X102400000Y-107000000D03*
X101681519Y-90921590D03*
X100850000Y-101300000D03*
%TO.N,+2V7*%
X110700000Y-107700000D03*
X111800000Y-83950000D03*
X109500000Y-89400000D03*
X106400000Y-107700000D03*
D51*
%TO.N,VBUS*%
X122212500Y-88275000D03*
D50*
%TO.N,Net-(J2-Pin_5)*%
X99400000Y-95700000D03*
%TO.N,Net-(J2-Pin_3)*%
X99800000Y-93700000D03*
%TO.N,Net-(J2-Pin_4)*%
X99475000Y-94675000D03*
%TO.N,Net-(J3-Pin_3)*%
X113750000Y-93050000D03*
%TO.N,Net-(J3-Pin_2)*%
X114250000Y-92300000D03*
%TO.N,SDA*%
X104400000Y-106900000D03*
X110489880Y-103190880D03*
X96750000Y-106550000D03*
X101450000Y-106550000D03*
X107990000Y-105050000D03*
%TO.N,SCL*%
X108919383Y-105053395D03*
X99500000Y-106504386D03*
X103000000Y-105850000D03*
X98500000Y-107350000D03*
%TO.N,BUZZER1*%
X106240940Y-103128882D03*
%TO.N,UART_TX*%
X105350257Y-102999722D03*
%TO.N,Net-(J6-Pin_1)*%
X104300000Y-101600000D03*
%TO.N,Net-(J6-Pin_2)*%
X104450000Y-102500000D03*
%TO.N,DALI_TX*%
X108051539Y-103015000D03*
%TO.N,Net-(J6-Pin_1)*%
X104650000Y-91300000D03*
%TD*%
D52*
%TO.N,/IEC 62386 interface/BUS_1*%
X96046850Y-70310036D02*
X96046850Y-73496850D01*
X96046850Y-73496850D02*
X95252900Y-74290800D01*
X96735000Y-69621886D02*
X96046850Y-70310036D01*
X95252900Y-74290800D02*
X95252900Y-75150000D01*
D53*
%TO.N,GND*%
X105911886Y-103961886D02*
X106550000Y-103961886D01*
X106925000Y-105020000D02*
X106925000Y-104975000D01*
X105911886Y-103961886D02*
X104900000Y-103961886D01*
%TO.N,+2V7*%
X105416886Y-107700000D02*
X105412500Y-107704386D01*
X106400000Y-107700000D02*
X105416886Y-107700000D01*
%TO.N,GND*%
X103863330Y-102950000D02*
X104400000Y-103486670D01*
X103400000Y-102950000D02*
X103863330Y-102950000D01*
X104400000Y-103486670D02*
X104400000Y-103961886D01*
X103547500Y-107720000D02*
X103547500Y-107000000D01*
X102400000Y-107000000D02*
X103547500Y-107000000D01*
X103547500Y-107000000D02*
X103547500Y-106702500D01*
X103900000Y-106350000D02*
X103900000Y-106046886D01*
X103547500Y-106702500D02*
X103900000Y-106350000D01*
%TO.N,+2V7*%
X105272500Y-107720000D02*
X105272500Y-106672500D01*
X105272500Y-106672500D02*
X104900000Y-106300000D01*
X104900000Y-106300000D02*
X104900000Y-106046886D01*
X104600216Y-105254386D02*
X104900000Y-105254386D01*
X104900000Y-106046886D02*
X104900000Y-105254386D01*
X103387500Y-104754386D02*
X103900000Y-104754386D01*
X103900000Y-103961886D02*
X103900000Y-104754386D01*
D54*
%TO.N,VS*%
X122150000Y-83537500D02*
X122312500Y-83537500D01*
X122312500Y-83537500D02*
X123250000Y-82600000D01*
X123250000Y-82600000D02*
X123250000Y-81700000D01*
X123250000Y-81700000D02*
X123937500Y-81012500D01*
X123937500Y-81012500D02*
X124200000Y-81012500D01*
D53*
%TO.N,GND*%
X114550000Y-103200000D02*
X114550000Y-100950000D01*
X108391886Y-106900000D02*
X113850000Y-106900000D01*
X107587500Y-107704386D02*
X108391886Y-106900000D01*
%TO.N,+2V7*%
X109590000Y-106050000D02*
X110500000Y-106050000D01*
%TO.N,LED1*%
X97412500Y-102204386D02*
X98550000Y-101066886D01*
X98550000Y-101066886D02*
X98550000Y-100200000D01*
X98550000Y-100200000D02*
X99000000Y-99750000D01*
X99000000Y-99750000D02*
X103259292Y-99750000D01*
X103259292Y-99750000D02*
X103671792Y-99337500D01*
X103671792Y-99337500D02*
X104512500Y-99337500D01*
D54*
%TO.N,Net-(D7-K)*%
X112662500Y-78612500D02*
X112662500Y-77887500D01*
X112662500Y-77887500D02*
X113850000Y-76700000D01*
X113850000Y-76700000D02*
X115300000Y-76700000D01*
X115300000Y-76700000D02*
X116600000Y-75400000D01*
D53*
%TO.N,GND*%
X114512500Y-89950000D02*
X113662500Y-90800000D01*
X113662500Y-90800000D02*
X107737500Y-90800000D01*
X107737500Y-90800000D02*
X106400000Y-92137500D01*
%TO.N,Net-(U2-SS)*%
X109200000Y-88162500D02*
X109362500Y-88162500D01*
X110300000Y-89100000D02*
X111450000Y-89100000D01*
X111450000Y-89100000D02*
X111750000Y-88800000D01*
X111750000Y-88800000D02*
X111750000Y-87987226D01*
X109362500Y-88162500D02*
X110300000Y-89100000D01*
X111750000Y-87987226D02*
X112137226Y-87600000D01*
X112137226Y-87600000D02*
X112620000Y-87600000D01*
%TO.N,+2V7*%
X109500000Y-89587500D02*
X109137500Y-89950000D01*
X109500000Y-89400000D02*
X109500000Y-89587500D01*
%TO.N,Net-(J2-Pin_9)*%
X96090000Y-98900000D02*
X95940000Y-99050000D01*
X89414386Y-96164386D02*
X88900000Y-96164386D01*
X95940000Y-99050000D02*
X92300000Y-99050000D01*
X92300000Y-99050000D02*
X89414386Y-96164386D01*
D54*
%TO.N,GND*%
X101681519Y-90921590D02*
X101681519Y-90881519D01*
D53*
X101681519Y-90921590D02*
X102659929Y-91900000D01*
X102659929Y-91900000D02*
X102700000Y-91900000D01*
D54*
X101681519Y-90881519D02*
X100850000Y-90050000D01*
X100850000Y-90050000D02*
X100725000Y-90050000D01*
D53*
X102700000Y-91900000D02*
X102937500Y-92137500D01*
X102937500Y-92137500D02*
X106400000Y-92137500D01*
D55*
%TO.N,VBUS*%
X108150000Y-80800000D02*
X108150000Y-79650000D01*
D53*
%TO.N,Net-(J3-Pin_3)*%
X112700000Y-93150000D02*
X111230000Y-93150000D01*
X113750000Y-93050000D02*
X112800000Y-93050000D01*
X112800000Y-93050000D02*
X112700000Y-93150000D01*
X112800000Y-93050000D02*
X112650000Y-93200000D01*
D54*
%TO.N,VS*%
X125600000Y-76750000D02*
X124800000Y-75950000D01*
X124800000Y-75950000D02*
X124800000Y-75150000D01*
%TO.N,VBUS*%
X119900000Y-76050000D02*
X119250000Y-75400000D01*
X119250000Y-75400000D02*
X119100000Y-75400000D01*
X119900000Y-76500000D02*
X119900000Y-76050000D01*
D53*
%TO.N,SCL*%
X109387500Y-100337500D02*
X110237500Y-100337500D01*
X111149000Y-101249000D02*
X111149000Y-103451000D01*
X110237500Y-100337500D02*
X111149000Y-101249000D01*
X111149000Y-103451000D02*
X110625614Y-103974386D01*
X110625614Y-103974386D02*
X109540000Y-103974386D01*
X109540000Y-103974386D02*
X109540000Y-104110000D01*
%TO.N,Net-(J6-Pin_2)*%
X105378298Y-102300000D02*
X105700000Y-101978298D01*
X104450000Y-102500000D02*
X104697773Y-102500000D01*
X104697773Y-102500000D02*
X104897773Y-102300000D01*
X104897773Y-102300000D02*
X105378298Y-102300000D01*
X105700000Y-101978298D02*
X105700000Y-101525000D01*
%TO.N,Net-(J6-Pin_1)*%
X104300000Y-101600000D02*
X104600000Y-101600000D01*
X104600000Y-101600000D02*
X104675000Y-101525000D01*
X104675000Y-101525000D02*
X105200000Y-101525000D01*
%TO.N,+2V7*%
X103387500Y-104754386D02*
X103387500Y-104437500D01*
X103387500Y-104437500D02*
X102900000Y-103950000D01*
X101450000Y-103500000D02*
X101450000Y-102412500D01*
X102900000Y-103950000D02*
X101900000Y-103950000D01*
X101900000Y-103950000D02*
X101450000Y-103500000D01*
X104512500Y-100837500D02*
X104075001Y-100837500D01*
X104075001Y-100837500D02*
X103749000Y-101163501D01*
X103749000Y-101163501D02*
X102686499Y-101163501D01*
X102686499Y-101163501D02*
X101450000Y-102400000D01*
X101450000Y-102400000D02*
X101450000Y-102412500D01*
%TO.N,GND*%
X104512500Y-100337500D02*
X103238892Y-100337500D01*
X103238892Y-100337500D02*
X102888892Y-100687500D01*
X102888892Y-100687500D02*
X101450000Y-100687500D01*
%TO.N,+2V7*%
X103900000Y-104754386D02*
X104100216Y-104754386D01*
X104100216Y-104754386D02*
X104600216Y-105254386D01*
X104900000Y-105254386D02*
X105412500Y-105254386D01*
%TO.N,DALI_RX*%
X109177577Y-102919332D02*
X109102688Y-102994221D01*
X109102688Y-102994221D02*
X109044221Y-102994221D01*
X109044221Y-102994221D02*
X108200000Y-102150000D01*
X108200000Y-102150000D02*
X108200000Y-101525000D01*
%TO.N,GND*%
X99650000Y-100687500D02*
X98580346Y-101757154D01*
X98580346Y-101757154D02*
X98580346Y-102699000D01*
X98580346Y-102699000D02*
X97375000Y-103904346D01*
X97375000Y-103904346D02*
X97375000Y-103950000D01*
D54*
X117000000Y-83200000D02*
X117000000Y-84262500D01*
X121150000Y-72787500D02*
X120912500Y-72787500D01*
X120912500Y-72787500D02*
X119900000Y-73800000D01*
X117000000Y-84262500D02*
X117037500Y-84300000D01*
X122150000Y-86662500D02*
X120300000Y-86662500D01*
D53*
X117587500Y-90450000D02*
X118712500Y-89325000D01*
X118712500Y-89325000D02*
X119454634Y-89325000D01*
X119454634Y-89325000D02*
X120300000Y-88479634D01*
X120300000Y-88479634D02*
X120300000Y-86662500D01*
X106925000Y-104922463D02*
X106925000Y-105020000D01*
%TO.N,+2V7*%
X99650000Y-102916886D02*
X99650000Y-103400000D01*
X98850000Y-103350000D02*
X99600000Y-103350000D01*
X99600000Y-103350000D02*
X99650000Y-103400000D01*
%TO.N,GND*%
X109200000Y-86437500D02*
X108359000Y-87278500D01*
X108359000Y-90178500D02*
X106400000Y-92137500D01*
X108359000Y-87278500D02*
X108359000Y-90178500D01*
D54*
%TO.N,VS*%
X110850000Y-81600000D02*
X111650000Y-82400000D01*
X111650000Y-82400000D02*
X115912500Y-82400000D01*
X115912500Y-82400000D02*
X116637500Y-81675000D01*
X97450000Y-83250000D02*
X96300000Y-83250000D01*
X96300000Y-83250000D02*
X95800000Y-83750000D01*
D53*
X97050000Y-83750000D02*
X95800000Y-83750000D01*
%TO.N,DALI_TX*%
X101350000Y-82050000D02*
X101337500Y-82050000D01*
X101337500Y-82050000D02*
X100687500Y-81400000D01*
%TO.N,VBUF_TEST*%
X102450000Y-90050000D02*
X103050000Y-89450000D01*
X103050000Y-89450000D02*
X107550000Y-89450000D01*
%TO.N,UART_TX*%
X106450000Y-87800000D02*
X106450000Y-88597500D01*
X106450000Y-88597500D02*
X106412500Y-88635000D01*
D52*
%TO.N,/IEC 62386 interface/BUS_2*%
X117150000Y-66912500D02*
X113286500Y-66912500D01*
X113286500Y-66912500D02*
X112900000Y-67299000D01*
X108165000Y-69621886D02*
X110487886Y-67299000D01*
X110487886Y-67299000D02*
X112900000Y-67299000D01*
D53*
%TO.N,BUZZER1*%
X124612500Y-99200000D02*
X123962500Y-98550000D01*
X124700000Y-99200000D02*
X124612500Y-99200000D01*
%TO.N,BUZZER2*%
X123838241Y-100200000D02*
X123257648Y-99619407D01*
X123962500Y-100200000D02*
X123838241Y-100200000D01*
%TO.N,SDA*%
X110489880Y-103190880D02*
X110440880Y-103190880D01*
X110440880Y-103190880D02*
X110500000Y-103131760D01*
X110500000Y-103131760D02*
X110500000Y-101950000D01*
X110500000Y-101950000D02*
X109387500Y-100837500D01*
%TO.N,DALI_TX*%
X108051539Y-103015000D02*
X108050123Y-103013584D01*
X108050123Y-102978330D02*
X107700000Y-102628207D01*
X108050123Y-103013584D02*
X108050123Y-102978330D01*
X107700000Y-102628207D02*
X107700000Y-101525000D01*
%TO.N,VBUF_TEST*%
X107150261Y-102999122D02*
X107200000Y-102949383D01*
X107200000Y-102949383D02*
X107200000Y-101525000D01*
%TO.N,BUZZER1*%
X106240942Y-103128880D02*
X106240942Y-102987787D01*
X106240940Y-103128882D02*
X106240942Y-103128880D01*
X106240942Y-102987787D02*
X106700000Y-102528729D01*
X106700000Y-102528729D02*
X106700000Y-101525000D01*
%TO.N,DALI_RX*%
X121200000Y-90475000D02*
X121125000Y-90475000D01*
X121125000Y-90475000D02*
X120400000Y-89750000D01*
%TO.N,CAP1.3*%
X107700000Y-96650000D02*
X107700000Y-93150000D01*
X108500000Y-92350000D02*
X109470000Y-92350000D01*
X107700000Y-93150000D02*
X108500000Y-92350000D01*
%TO.N,GND*%
X104512500Y-100337500D02*
X105700000Y-100337500D01*
X105700000Y-100337500D02*
X106950000Y-99087500D01*
D55*
%TO.N,VBUS*%
X116400000Y-74050000D02*
X116400000Y-73950000D01*
X117150000Y-73200000D02*
X117150000Y-72787500D01*
X116400000Y-73950000D02*
X117150000Y-73200000D01*
D53*
%TO.N,Net-(J6-Pin_1)*%
X101679985Y-85892485D02*
X103300001Y-85892485D01*
X100687500Y-84900000D02*
X101679985Y-85892485D01*
%TO.N,GND*%
X116000000Y-88162500D02*
X116000000Y-88862500D01*
X116000000Y-88862500D02*
X117587500Y-90450000D01*
%TO.N,Net-(J3-Pin_5)*%
X113750000Y-94500000D02*
X113050000Y-94500000D01*
X111280000Y-94800000D02*
X111230000Y-94750000D01*
X113050000Y-94500000D02*
X112750000Y-94800000D01*
X112750000Y-94800000D02*
X111280000Y-94800000D01*
%TO.N,Net-(J3-Pin_2)*%
X114250000Y-92300000D02*
X113450000Y-92300000D01*
X113450000Y-92300000D02*
X113400000Y-92350000D01*
X113400000Y-92350000D02*
X111230000Y-92350000D01*
D54*
%TO.N,GND*%
X122150000Y-86662500D02*
X123212500Y-86662500D01*
X123212500Y-86662500D02*
X123950000Y-87400000D01*
X123950000Y-87400000D02*
X123950000Y-89550000D01*
X123950000Y-89550000D02*
X123025000Y-90475000D01*
X123025000Y-90475000D02*
X122925000Y-90475000D01*
D53*
%TO.N,DALI_RX*%
X119412500Y-90450000D02*
X121175000Y-90450000D01*
X121175000Y-90450000D02*
X121200000Y-90475000D01*
D54*
%TO.N,GND*%
X100725000Y-90050000D02*
X96700000Y-90050000D01*
X96700000Y-90050000D02*
X95800000Y-89150000D01*
X100725000Y-90050000D02*
X100725000Y-88387500D01*
X100725000Y-88387500D02*
X100687500Y-88350000D01*
D53*
%TO.N,+2V7*%
X102512500Y-84900000D02*
X103250000Y-84900000D01*
X103250000Y-84900000D02*
X103400000Y-84750000D01*
D54*
%TO.N,GND*%
X120300000Y-86662500D02*
X119575000Y-86662500D01*
X119575000Y-86662500D02*
X119300000Y-86387500D01*
%TO.N,VS*%
X122150000Y-83537500D02*
X120500000Y-83537500D01*
X120500000Y-83537500D02*
X117650000Y-86387500D01*
X118750000Y-81700000D02*
X120312500Y-81700000D01*
X120312500Y-81700000D02*
X122150000Y-83537500D01*
%TO.N,/IEC 62386 interface/HV_2*%
X120625000Y-80750000D02*
X120625000Y-80237500D01*
X120625000Y-80237500D02*
X121637500Y-79225000D01*
%TO.N,/IEC 62386 interface/HV_3*%
X119387500Y-77712500D02*
X121325000Y-77712500D01*
X121325000Y-77712500D02*
X121637500Y-77400000D01*
%TO.N,VS*%
X125600000Y-76750000D02*
X125600000Y-79612500D01*
X125600000Y-79612500D02*
X124200000Y-81012500D01*
%TO.N,GND*%
X121400000Y-75350000D02*
X121662500Y-75350000D01*
X121662500Y-75350000D02*
X124200000Y-77887500D01*
X121400000Y-75350000D02*
X121400000Y-73037500D01*
X121400000Y-73037500D02*
X121150000Y-72787500D01*
%TO.N,VBUS*%
X117150000Y-72787500D02*
X119100000Y-74737500D01*
X119100000Y-74737500D02*
X119100000Y-75400000D01*
%TO.N,/IEC 62386 interface/HV_2*%
X114800000Y-81362500D02*
X114800000Y-80750000D01*
X120625000Y-80750000D02*
X114800000Y-80750000D01*
%TO.N,VS*%
X118750000Y-81700000D02*
X116662500Y-81700000D01*
X116662500Y-81700000D02*
X116637500Y-81675000D01*
%TO.N,/IEC 62386 interface/HV_1*%
X116637500Y-79850000D02*
X118700000Y-79850000D01*
X118700000Y-79850000D02*
X118750000Y-79800000D01*
X116637500Y-79850000D02*
X116637500Y-77962500D01*
X116637500Y-77962500D02*
X116887500Y-77712500D01*
X114537500Y-77662500D02*
X116837500Y-77662500D01*
X116837500Y-77662500D02*
X116887500Y-77712500D01*
%TO.N,Net-(D7-K)*%
X112975000Y-81362500D02*
X112975000Y-78925000D01*
X112975000Y-78925000D02*
X112662500Y-78612500D01*
%TO.N,/IEC 62386 interface/HV_2*%
X114800000Y-80750000D02*
X114800000Y-79825000D01*
X114800000Y-79825000D02*
X114537500Y-79562500D01*
%TO.N,Net-(Q2-G)*%
X104375000Y-79950000D02*
X106175000Y-79950000D01*
X106175000Y-79950000D02*
X106275000Y-79850000D01*
X102512500Y-81400000D02*
X102925000Y-81400000D01*
X102925000Y-81400000D02*
X104375000Y-79950000D01*
%TO.N,GND*%
X104375000Y-81675000D02*
X104375000Y-83045000D01*
X104375000Y-83045000D02*
X104320000Y-83100000D01*
X102512500Y-83100000D02*
X104320000Y-83100000D01*
X104320000Y-83100000D02*
X105105000Y-83885000D01*
X106275000Y-81750000D02*
X104450000Y-81750000D01*
X104450000Y-81750000D02*
X104375000Y-81675000D01*
D53*
%TO.N,VBUF_TEST*%
X102512500Y-88350000D02*
X102512500Y-86712500D01*
X102512500Y-86712500D02*
X102500000Y-86700000D01*
X102450000Y-90050000D02*
X102450000Y-88412500D01*
X102450000Y-88412500D02*
X102512500Y-88350000D01*
%TO.N,VS*%
X100675000Y-86700000D02*
X100000000Y-86700000D01*
X100000000Y-86700000D02*
X97050000Y-83750000D01*
%TO.N,GND*%
X117037500Y-84300000D02*
X115837500Y-85500000D01*
X114300000Y-86150000D02*
X114300000Y-86600000D01*
X115837500Y-85500000D02*
X114950000Y-85500000D01*
X114950000Y-85500000D02*
X114300000Y-86150000D01*
%TO.N,+2V7*%
X114962500Y-84300000D02*
X113050000Y-84300000D01*
X113050000Y-84300000D02*
X112700000Y-83950000D01*
%TO.N,VS*%
X114300000Y-87100000D02*
X114800000Y-87100000D01*
X114800000Y-87100000D02*
X115462500Y-86437500D01*
X115462500Y-86437500D02*
X116000000Y-86437500D01*
%TO.N,Net-(U2-EN)*%
X117650000Y-88212500D02*
X116761500Y-87324000D01*
X115274000Y-87324000D02*
X114998000Y-87600000D01*
X114998000Y-87600000D02*
X114300000Y-87600000D01*
X116761500Y-87324000D02*
X115274000Y-87324000D01*
%TO.N,VS*%
X116000000Y-86437500D02*
X117600000Y-86437500D01*
X117600000Y-86437500D02*
X117650000Y-86387500D01*
%TO.N,GND*%
X116000000Y-88162500D02*
X114362500Y-88162500D01*
X114362500Y-88162500D02*
X114300000Y-88100000D01*
%TO.N,Net-(D2-A)*%
X95587500Y-102204386D02*
X95587500Y-103912500D01*
X95587500Y-103912500D02*
X95625000Y-103950000D01*
%TO.N,DALI_TX*%
X100687500Y-83100000D02*
X100687500Y-81400000D01*
%TO.N,CAP0.1*%
X109387500Y-98837500D02*
X110787500Y-98837500D01*
X110787500Y-98837500D02*
X112475000Y-97150000D01*
X112475000Y-97150000D02*
X112820000Y-97150000D01*
%TO.N,CAP1.0*%
X109470000Y-94750000D02*
X109470000Y-97255000D01*
X109470000Y-97255000D02*
X109387500Y-97337500D01*
%TO.N,CAP1.1*%
X108700000Y-96650000D02*
X108650000Y-96600000D01*
X108650000Y-96600000D02*
X108650000Y-94253000D01*
X108953000Y-93950000D02*
X109470000Y-93950000D01*
X108650000Y-94253000D02*
X108953000Y-93950000D01*
%TO.N,CAP1.2*%
X109470000Y-93150000D02*
X108770000Y-93150000D01*
X108770000Y-93150000D02*
X108200000Y-93720000D01*
X108200000Y-93720000D02*
X108200000Y-96650000D01*
%TO.N,Net-(U6-VREG)*%
X106400000Y-93862500D02*
X107200000Y-94662500D01*
X107200000Y-94662500D02*
X107200000Y-96650000D01*
%TO.N,CAP2.3*%
X105200000Y-96650000D02*
X103450000Y-96650000D01*
X103450000Y-96650000D02*
X102900000Y-96100000D01*
X102900000Y-96100000D02*
X102900000Y-95700000D01*
%TO.N,CAP3.0*%
X104512500Y-97337500D02*
X102737500Y-97337500D01*
X102737500Y-97337500D02*
X101950000Y-96550000D01*
X101950000Y-96550000D02*
X97900000Y-96550000D01*
X97900000Y-96550000D02*
X97850000Y-96500000D01*
%TO.N,CAP2.0*%
X106700000Y-96650000D02*
X106700000Y-95650000D01*
X106700000Y-95650000D02*
X104350000Y-93300000D01*
X104350000Y-93300000D02*
X102900000Y-93300000D01*
%TO.N,CAP2.1*%
X105250000Y-94950000D02*
X106200000Y-95900000D01*
X104400000Y-94950000D02*
X105250000Y-94950000D01*
X102900000Y-94100000D02*
X103550000Y-94100000D01*
X103550000Y-94100000D02*
X104400000Y-94950000D01*
X106200000Y-95900000D02*
X106200000Y-96650000D01*
%TO.N,CAP2.2*%
X105700000Y-96650000D02*
X105700000Y-96196702D01*
X105203298Y-95700000D02*
X104150000Y-95700000D01*
X105700000Y-96196702D02*
X105203298Y-95700000D01*
X104150000Y-95700000D02*
X103350000Y-94900000D01*
X103350000Y-94900000D02*
X102900000Y-94900000D01*
%TO.N,CAP3.1*%
X102287500Y-97837500D02*
X101750000Y-97300000D01*
X104512500Y-97837500D02*
X102287500Y-97837500D01*
X101750000Y-97300000D02*
X97850000Y-97300000D01*
%TO.N,CAP3.2*%
X104512500Y-98337500D02*
X101637500Y-98337500D01*
X101637500Y-98337500D02*
X101400000Y-98100000D01*
X101400000Y-98100000D02*
X97850000Y-98100000D01*
%TO.N,CAP3.3*%
X104512500Y-98837500D02*
X97912500Y-98837500D01*
X97912500Y-98837500D02*
X97850000Y-98900000D01*
%TO.N,BUZZER2*%
X108700000Y-101525000D02*
X108975000Y-101525000D01*
X108975000Y-101525000D02*
X109550000Y-102100000D01*
%TO.N,UART_TX*%
X106200000Y-101525000D02*
X106200000Y-102149979D01*
X106200000Y-102149979D02*
X105350257Y-102999722D01*
X105350257Y-102999722D02*
X105249088Y-102999722D01*
X105249088Y-102999722D02*
X105174405Y-103074405D01*
%TO.N,+2V7*%
X95587500Y-105854386D02*
X96662500Y-104779386D01*
X96662500Y-104779386D02*
X99450000Y-104779386D01*
D52*
%TO.N,Net-(D4-A2)*%
X111609875Y-72592679D02*
X112601554Y-71601000D01*
X112601554Y-71601000D02*
X112900000Y-71601000D01*
X121150000Y-66912500D02*
X121150000Y-68050000D01*
D53*
%TO.N,Net-(J2-Pin_2)*%
X101140000Y-93300000D02*
X100700000Y-93300000D01*
X100700000Y-93300000D02*
X100000000Y-92600000D01*
D52*
%TO.N,Net-(D4-A2)*%
X102250000Y-73650000D02*
X102250000Y-75150000D01*
X100307500Y-75150000D02*
X102250000Y-75150000D01*
%TO.N,/IEC 62386 interface/BUS_2*%
X108165000Y-69621886D02*
X108251000Y-69707886D01*
X108251000Y-69707886D02*
X108251000Y-75150000D01*
%TO.N,Net-(D4-A2)*%
X102250000Y-75150000D02*
X103949000Y-75150000D01*
D53*
%TO.N,Net-(BZ1-+)*%
X119457500Y-97380000D02*
X120967500Y-97380000D01*
X118637500Y-98200000D02*
X119457500Y-97380000D01*
X112450000Y-103850000D02*
X115700000Y-103850000D01*
X118637500Y-98762500D02*
X118637500Y-98200000D01*
X117450000Y-99950000D02*
X118637500Y-98762500D01*
X115700000Y-103850000D02*
X117450000Y-102100000D01*
X120967500Y-97380000D02*
X122137500Y-98550000D01*
X117450000Y-102100000D02*
X117450000Y-99950000D01*
%TO.N,Net-(BZ1--)*%
X120462500Y-98200000D02*
X120462500Y-98525000D01*
X122137500Y-100200000D02*
X121650000Y-100200000D01*
X120462500Y-98525000D02*
X122137500Y-100200000D01*
X120450000Y-101400000D02*
X120450000Y-103850000D01*
X121650000Y-100200000D02*
X120450000Y-101400000D01*
%TO.N,VS*%
X117650000Y-86387500D02*
X117462500Y-86387500D01*
X117650000Y-86387500D02*
X117650000Y-86550000D01*
%TO.N,GND*%
X101750000Y-104779386D02*
X101075000Y-104779386D01*
X113800000Y-88100000D02*
X114300000Y-88100000D01*
X109200000Y-86437500D02*
X108487500Y-86437500D01*
X114300000Y-86600000D02*
X113700000Y-86600000D01*
X101695614Y-107704386D02*
X102400000Y-107000000D01*
X104900000Y-103900057D02*
X104900000Y-103991886D01*
X104400000Y-103991886D02*
X104900000Y-103991886D01*
X101462500Y-107704386D02*
X101695614Y-107704386D01*
X100854386Y-100687500D02*
X100850000Y-100691886D01*
X114600000Y-86600000D02*
X114300000Y-86600000D01*
X101450000Y-100687500D02*
X100854386Y-100687500D01*
X113450000Y-87750000D02*
X113800000Y-88100000D01*
X100000000Y-100691886D02*
X99761500Y-100453386D01*
X113700000Y-86600000D02*
X113450000Y-86850000D01*
X113450000Y-86850000D02*
X113450000Y-87750000D01*
X101075000Y-104779386D02*
X100600000Y-105254386D01*
X101462500Y-107704386D02*
X100600000Y-106841886D01*
X114462500Y-88262500D02*
X114300000Y-88100000D01*
X100850000Y-100691886D02*
X100850000Y-101300000D01*
X100600000Y-106841886D02*
X100600000Y-105254386D01*
X100150000Y-100691886D02*
X100850000Y-100691886D01*
X114462500Y-89950000D02*
X114462500Y-88262500D01*
X106400000Y-92137500D02*
X106212500Y-91950000D01*
%TO.N,+2V7*%
X99650000Y-103400000D02*
X99650000Y-103754386D01*
X104900000Y-106016886D02*
X104900000Y-105766886D01*
X108390000Y-106034386D02*
X109540000Y-106034386D01*
X112700000Y-83950000D02*
X111800000Y-83950000D01*
X109540000Y-107476886D02*
X109312500Y-107704386D01*
X98450000Y-105527386D02*
X98450000Y-106375040D01*
X99450000Y-103954386D02*
X99450000Y-104779386D01*
X100150000Y-102416886D02*
X99650000Y-102916886D01*
X99737500Y-107662540D02*
X99737500Y-107704386D01*
X99650000Y-102412500D02*
X101450000Y-102412500D01*
X99198000Y-104779386D02*
X99450000Y-104779386D01*
X98450000Y-106375040D02*
X99737500Y-107662540D01*
X101450000Y-102412500D02*
X101762500Y-102412500D01*
X110695614Y-107704386D02*
X110700000Y-107700000D01*
X95587500Y-105854386D02*
X95587500Y-107704386D01*
X109312500Y-107704386D02*
X110695614Y-107704386D01*
X98450000Y-105527386D02*
X99198000Y-104779386D01*
X99650000Y-103754386D02*
X99450000Y-103954386D01*
X103387500Y-104754386D02*
X103387500Y-104504386D01*
%TO.N,DALI_RX*%
X121150000Y-88825000D02*
X121150000Y-90425000D01*
X121150000Y-90425000D02*
X121200000Y-90475000D01*
%TO.N,Net-(U2-SW)*%
X112620000Y-86600000D02*
X111022500Y-86600000D01*
X109500000Y-84400000D02*
X110860000Y-85760000D01*
X110860000Y-85760000D02*
X110860000Y-86437500D01*
X111022500Y-86600000D02*
X110860000Y-86437500D01*
X109500000Y-83950000D02*
X109500000Y-84400000D01*
%TO.N,Net-(U2-BST)*%
X111922500Y-87100000D02*
X110860000Y-88162500D01*
X112620000Y-87100000D02*
X111922500Y-87100000D01*
%TO.N,VBUS*%
X122975000Y-88825000D02*
X122762500Y-88825000D01*
X122762500Y-88825000D02*
X122212500Y-88275000D01*
%TO.N,Net-(J2-Pin_8)*%
X96090000Y-98100000D02*
X93375614Y-98100000D01*
X93375614Y-98100000D02*
X88900000Y-93624386D01*
%TO.N,Net-(J2-Pin_5)*%
X99500000Y-95700000D02*
X101140000Y-95700000D01*
%TO.N,Net-(J2-Pin_6)*%
X96090000Y-96500000D02*
X96090000Y-95734386D01*
X96090000Y-95734386D02*
X88900000Y-88544386D01*
%TO.N,Net-(J2-Pin_3)*%
X101140000Y-94100000D02*
X100200000Y-94100000D01*
X100200000Y-94100000D02*
X99800000Y-93700000D01*
%TO.N,Net-(J2-Pin_7)*%
X96090000Y-97300000D02*
X95115614Y-97300000D01*
X95115614Y-97300000D02*
X88900000Y-91084386D01*
%TO.N,Net-(J2-Pin_4)*%
X99475000Y-94675000D02*
X99700000Y-94900000D01*
X99450000Y-94650000D02*
X99475000Y-94675000D01*
X99700000Y-94900000D02*
X101140000Y-94900000D01*
%TO.N,Net-(J3-Pin_8)*%
X117500000Y-95300000D02*
X115650000Y-97150000D01*
X115650000Y-97150000D02*
X114580000Y-97150000D01*
X125764386Y-95300000D02*
X117500000Y-95300000D01*
X127550000Y-93514386D02*
X125764386Y-95300000D01*
%TO.N,Net-(J3-Pin_7)*%
X117295441Y-94254559D02*
X124269827Y-94254559D01*
X114580000Y-96350000D02*
X115200000Y-96350000D01*
X115200000Y-96350000D02*
X117295441Y-94254559D01*
X124269827Y-94254559D02*
X127550000Y-90974386D01*
%TO.N,Net-(J3-Pin_6)*%
X127354721Y-88434386D02*
X127550000Y-88434386D01*
X114800000Y-95550000D02*
X117100000Y-93250000D01*
X122539107Y-93250000D02*
X127354721Y-88434386D01*
X114580000Y-95550000D02*
X114800000Y-95550000D01*
X117100000Y-93250000D02*
X122539107Y-93250000D01*
%TO.N,Net-(J3-Pin_9)*%
X127550000Y-96054386D02*
X127154386Y-96450000D01*
X117650000Y-96450000D02*
X116150000Y-97950000D01*
X127154386Y-96450000D02*
X117650000Y-96450000D01*
X116150000Y-97950000D02*
X114580000Y-97950000D01*
%TO.N,Net-(U2-EN)*%
X117650000Y-88212500D02*
X119300000Y-88212500D01*
%TO.N,Net-(U2-FB)*%
X110962500Y-89950000D02*
X112637500Y-89950000D01*
X112620000Y-88100000D02*
X112620000Y-89932500D01*
X112620000Y-89932500D02*
X112637500Y-89950000D01*
%TO.N,SDA*%
X101450000Y-106550000D02*
X101654386Y-106550000D01*
X107939999Y-104999999D02*
X107850001Y-104999999D01*
X104400000Y-106900000D02*
X104400000Y-106016886D01*
X107250000Y-105850000D02*
X107250000Y-106024386D01*
X107300000Y-106040000D02*
X107714000Y-105626000D01*
X97412500Y-105887500D02*
X96750000Y-106550000D01*
X107714000Y-105326000D02*
X107990000Y-105050000D01*
X97412500Y-105854386D02*
X97412500Y-105887500D01*
X107714000Y-105626000D02*
X107714000Y-105326000D01*
X97412500Y-105854386D02*
X97412500Y-106016886D01*
X101654386Y-106550000D02*
X101750000Y-106454386D01*
X107990000Y-105050000D02*
X107939999Y-104999999D01*
X101750000Y-106454386D02*
X101750000Y-105729386D01*
%TO.N,SCL*%
X108919383Y-105053395D02*
X108919383Y-104933437D01*
X99450000Y-106454386D02*
X99500000Y-106504386D01*
X108919383Y-104933437D02*
X109180000Y-104672820D01*
X108919383Y-105053395D02*
X108908988Y-105043000D01*
X109180000Y-104400000D02*
X109590000Y-103990000D01*
X99450000Y-105729386D02*
X99450000Y-106454386D01*
X97412500Y-107704386D02*
X98145614Y-107704386D01*
X109180000Y-104672820D02*
X109180000Y-104400000D01*
X103387500Y-105254386D02*
X103387500Y-105462500D01*
X103387500Y-105462500D02*
X103000000Y-105850000D01*
X98145614Y-107704386D02*
X98500000Y-107350000D01*
D52*
%TO.N,/IEC 62386 interface/BUS_2*%
X106050000Y-69621886D02*
X106900000Y-69621886D01*
X104355000Y-69621886D02*
X106050000Y-69621886D01*
X108032500Y-69621886D02*
X108165000Y-69621886D01*
X106900000Y-69621886D02*
X108165000Y-69621886D01*
%TO.N,/IEC 62386 interface/BUS_1*%
X100500000Y-69666886D02*
X100545000Y-69621886D01*
D53*
%TO.N,CAP0.3*%
X110015500Y-97837500D02*
X109387500Y-97837500D01*
X112303000Y-95550000D02*
X110015500Y-97837500D01*
X112820000Y-95550000D02*
X112303000Y-95550000D01*
%TO.N,GND*%
X106400000Y-90337500D02*
X106362500Y-90300000D01*
X106400000Y-92137500D02*
X106400000Y-90337500D01*
%TO.N,Net-(J6-Pin_1)*%
X104637500Y-91287500D02*
X104650000Y-91300000D01*
X104637500Y-90300000D02*
X104637500Y-91287500D01*
%TO.N,GND*%
X108487500Y-86437500D02*
X107205000Y-85155000D01*
X107205000Y-85155000D02*
X106375000Y-85155000D01*
X105105000Y-83885000D02*
X106375000Y-85155000D01*
%TO.N,CAP0.2*%
X110412500Y-98337500D02*
X109387500Y-98337500D01*
X112400000Y-96350000D02*
X110412500Y-98337500D01*
X112820000Y-96350000D02*
X112400000Y-96350000D01*
%TO.N,CAP0.0*%
X111887500Y-99337500D02*
X109387500Y-99337500D01*
X112820000Y-98405000D02*
X111887500Y-99337500D01*
X112820000Y-97950000D02*
X112820000Y-98405000D01*
%TO.N,Net-(J6-Pin_3)*%
X105105000Y-85155000D02*
X104397894Y-85155000D01*
X104397894Y-85155000D02*
X103950000Y-85602894D01*
X103950000Y-87997500D02*
X104587500Y-88635000D01*
X103950000Y-85602894D02*
X103950000Y-87997500D01*
%TO.N,Net-(J3-Pin_4)*%
X112600000Y-93950000D02*
X111230000Y-93950000D01*
X112750000Y-93800000D02*
X112600000Y-93950000D01*
X113191728Y-93800000D02*
X112750000Y-93800000D01*
X113216729Y-93774999D02*
X113191728Y-93800000D01*
%TO.N,+2V7*%
X106375000Y-83885000D02*
X107860000Y-82400000D01*
X107860000Y-82400000D02*
X110650000Y-82400000D01*
X110650000Y-82400000D02*
X111450000Y-83200000D01*
X111450000Y-83200000D02*
X112500000Y-83200000D01*
X112500000Y-83200000D02*
X112500000Y-83750000D01*
X112500000Y-83750000D02*
X112700000Y-83950000D01*
%TO.N,GND*%
X106830000Y-105020000D02*
X106925000Y-105020000D01*
X106400000Y-105450000D02*
X106830000Y-105020000D01*
X106400000Y-106516886D02*
X106400000Y-105450000D01*
X107587500Y-107704386D02*
X106400000Y-106516886D01*
X107288114Y-103961886D02*
X107300000Y-103950000D01*
X106550000Y-104645000D02*
X106925000Y-105020000D01*
X106550000Y-103961886D02*
X106550000Y-104645000D01*
X106550000Y-103961886D02*
X107288114Y-103961886D01*
D52*
%TO.N,/IEC 62386 interface/BUS_1*%
X96735000Y-69621886D02*
X100545000Y-69621886D01*
%TD*%
%TA.AperFunction,Conductor*%
%TO.N,GND*%
G36*
X100975000Y-90305821D02*
G01*
X100975000Y-91024999D01*
X101074140Y-91024999D01*
X101074154Y-91024998D01*
X101175152Y-91014680D01*
X101338800Y-90960453D01*
X101338811Y-90960448D01*
X101485533Y-90869948D01*
X101570174Y-90785307D01*
X101631497Y-90751822D01*
X101701189Y-90756806D01*
X101745537Y-90785307D01*
X101755851Y-90795621D01*
X101755855Y-90795624D01*
X101755857Y-90795626D01*
X101755860Y-90795627D01*
X101755863Y-90795630D01*
X101848356Y-90850329D01*
X101894606Y-90877681D01*
X101935428Y-90889541D01*
X102049397Y-90922653D01*
X102049400Y-90922653D01*
X102049402Y-90922654D01*
X102085565Y-90925500D01*
X102814434Y-90925499D01*
X102850598Y-90922654D01*
X103005394Y-90877681D01*
X103144143Y-90795626D01*
X103258126Y-90681643D01*
X103340181Y-90542894D01*
X103385154Y-90388098D01*
X103388000Y-90351935D01*
X103387999Y-90316840D01*
X103699500Y-90318262D01*
X103699500Y-90601922D01*
X103699501Y-90601947D01*
X103702346Y-90638098D01*
X103747317Y-90792889D01*
X103747320Y-90792896D01*
X103829369Y-90931636D01*
X103829373Y-90931641D01*
X103829374Y-90931643D01*
X103889850Y-90992119D01*
X103923334Y-91053440D01*
X103923785Y-91103990D01*
X103899500Y-91226077D01*
X103899500Y-91226082D01*
X103899500Y-91373918D01*
X103899500Y-91373920D01*
X103899499Y-91373920D01*
X103928340Y-91518907D01*
X103928343Y-91518917D01*
X103984912Y-91655488D01*
X103984919Y-91655501D01*
X104067048Y-91778415D01*
X104067051Y-91778419D01*
X104171580Y-91882948D01*
X104171584Y-91882951D01*
X104294498Y-91965080D01*
X104294511Y-91965087D01*
X104375456Y-91998615D01*
X104431087Y-92021658D01*
X104431091Y-92021658D01*
X104431092Y-92021659D01*
X104576079Y-92050500D01*
X104576082Y-92050500D01*
X104723920Y-92050500D01*
X104821462Y-92031096D01*
X104868913Y-92021658D01*
X105005495Y-91965084D01*
X105128416Y-91882951D01*
X105162107Y-91849260D01*
X105213319Y-91798049D01*
X105274642Y-91764564D01*
X105344334Y-91769548D01*
X105400267Y-91811420D01*
X105424684Y-91876884D01*
X105425000Y-91885730D01*
X105425000Y-91887500D01*
X106150000Y-91887500D01*
X106150000Y-91405000D01*
X106148819Y-91403819D01*
X106115334Y-91342496D01*
X106112500Y-91316138D01*
X106112500Y-90970000D01*
X106612500Y-90970000D01*
X106613681Y-90971181D01*
X106647166Y-91032504D01*
X106650000Y-91058862D01*
X106650000Y-91887500D01*
X107374999Y-91887500D01*
X107374999Y-91788360D01*
X107374998Y-91788345D01*
X107364680Y-91687347D01*
X107310453Y-91523699D01*
X107310448Y-91523688D01*
X107219947Y-91376965D01*
X107219944Y-91376961D01*
X107130664Y-91287681D01*
X107097179Y-91226358D01*
X107102163Y-91156666D01*
X107130664Y-91112319D01*
X107244944Y-90998038D01*
X107244947Y-90998034D01*
X107335448Y-90851311D01*
X107335453Y-90851300D01*
X107389680Y-90687652D01*
X107399999Y-90586654D01*
X107400000Y-90586641D01*
X107400000Y-90550000D01*
X106612500Y-90550000D01*
X106612500Y-90970000D01*
X106112500Y-90970000D01*
X106112500Y-90424000D01*
X106132185Y-90356961D01*
X106163858Y-90329515D01*
X108317235Y-90339348D01*
X108347317Y-90442889D01*
X108347320Y-90442896D01*
X108429369Y-90581636D01*
X108429373Y-90581641D01*
X108429373Y-90581642D01*
X108429378Y-90581648D01*
X108543351Y-90695621D01*
X108543355Y-90695624D01*
X108543357Y-90695626D01*
X108543360Y-90695627D01*
X108543363Y-90695630D01*
X108631975Y-90748034D01*
X108682106Y-90777681D01*
X108708355Y-90785307D01*
X108836897Y-90822653D01*
X108836900Y-90822653D01*
X108836902Y-90822654D01*
X108873065Y-90825500D01*
X109501934Y-90825499D01*
X109538098Y-90822654D01*
X109692894Y-90777681D01*
X109831643Y-90695626D01*
X109945626Y-90581643D01*
X109993269Y-90501082D01*
X110044336Y-90453400D01*
X110113078Y-90440896D01*
X110177667Y-90467541D01*
X110206730Y-90501080D01*
X110254374Y-90581643D01*
X110254376Y-90581645D01*
X110254378Y-90581648D01*
X110288330Y-90615600D01*
X109392352Y-91273584D01*
X109392351Y-91273585D01*
X108659981Y-91811420D01*
X108640883Y-91825445D01*
X108575197Y-91849260D01*
X108567486Y-91849500D01*
X108434108Y-91849500D01*
X108306812Y-91883608D01*
X108192686Y-91949500D01*
X108192683Y-91949502D01*
X107586681Y-92555505D01*
X107525358Y-92588990D01*
X107455666Y-92584006D01*
X107399733Y-92542134D01*
X107375316Y-92476670D01*
X107375000Y-92467824D01*
X107375000Y-92387500D01*
X105425001Y-92387500D01*
X105425001Y-92486654D01*
X105432842Y-92563398D01*
X105420073Y-92632090D01*
X105372192Y-92682975D01*
X105309484Y-92700000D01*
X104860938Y-92700000D01*
X104839234Y-92698086D01*
X102605312Y-92300944D01*
X102594779Y-92298594D01*
X100071854Y-91619345D01*
X100012237Y-91582909D01*
X99983267Y-91527492D01*
X99936219Y-91323617D01*
X99779983Y-90646596D01*
X99842552Y-90748034D01*
X99842555Y-90748038D01*
X99964461Y-90869944D01*
X99964465Y-90869947D01*
X100111188Y-90960448D01*
X100111199Y-90960453D01*
X100274847Y-91014680D01*
X100375851Y-91024999D01*
X100475000Y-91024998D01*
X100475000Y-90303538D01*
X100975000Y-90305821D01*
G37*
%TD.AperFunction*%
%TD*%
%TA.AperFunction,Conductor*%
%TO.N,GND*%
G36*
X97205703Y-84613963D02*
G01*
X97212181Y-84619995D01*
X99692686Y-87100500D01*
X99762226Y-87140649D01*
X99797367Y-87160938D01*
X99842099Y-87205204D01*
X99912649Y-87324500D01*
X99916873Y-87331642D01*
X99916878Y-87331648D01*
X100029152Y-87443922D01*
X100062637Y-87505245D01*
X100057653Y-87574937D01*
X100029153Y-87619284D01*
X99929773Y-87718664D01*
X99929770Y-87718668D01*
X99847780Y-87857307D01*
X99847779Y-87857310D01*
X99802844Y-88011975D01*
X99802843Y-88011981D01*
X99800000Y-88048109D01*
X99800000Y-88150000D01*
X100563500Y-88150000D01*
X100630539Y-88169685D01*
X100676294Y-88222489D01*
X100687500Y-88274000D01*
X100687500Y-88350000D01*
X100763500Y-88350000D01*
X100830539Y-88369685D01*
X100876294Y-88422489D01*
X100887500Y-88474000D01*
X100887500Y-89045000D01*
X100888681Y-89046181D01*
X100898187Y-89063591D01*
X100911745Y-89078080D01*
X100916094Y-89096385D01*
X100922166Y-89107504D01*
X100921372Y-89118596D01*
X100925000Y-89133862D01*
X100925000Y-90305593D01*
X100525000Y-90303767D01*
X100525000Y-90250000D01*
X99787501Y-90250000D01*
X99787501Y-90300399D01*
X99700000Y-90300000D01*
X99936219Y-91323616D01*
X99936219Y-91323617D01*
X99794398Y-91324368D01*
X96879464Y-91339791D01*
X96812321Y-91320462D01*
X96766288Y-91267901D01*
X96755978Y-91198796D01*
X96784667Y-91135087D01*
X96791127Y-91128111D01*
X96867681Y-91051557D01*
X96867685Y-91051552D01*
X96951282Y-90910196D01*
X96951283Y-90910193D01*
X96997099Y-90752495D01*
X96997100Y-90752489D01*
X96999999Y-90715649D01*
X97000000Y-90715634D01*
X97000000Y-89748109D01*
X99787500Y-89748109D01*
X99787500Y-89850000D01*
X100525000Y-89850000D01*
X100525000Y-89355000D01*
X100523819Y-89353819D01*
X100514312Y-89336408D01*
X100500755Y-89321920D01*
X100497909Y-89306369D01*
X100490334Y-89292496D01*
X100487500Y-89266138D01*
X100487500Y-88550000D01*
X99800001Y-88550000D01*
X99800001Y-88651893D01*
X99802844Y-88688021D01*
X99847779Y-88842689D01*
X99847780Y-88842692D01*
X99929770Y-88981331D01*
X99929776Y-88981339D01*
X100043661Y-89095224D01*
X100047361Y-89098094D01*
X100088270Y-89154736D01*
X100092062Y-89224502D01*
X100057533Y-89285244D01*
X100034492Y-89302804D01*
X100031171Y-89304767D01*
X100031160Y-89304776D01*
X99917276Y-89418660D01*
X99917270Y-89418668D01*
X99835280Y-89557307D01*
X99835279Y-89557310D01*
X99790344Y-89711975D01*
X99790343Y-89711981D01*
X99787500Y-89748109D01*
X97000000Y-89748109D01*
X97000000Y-89350000D01*
X95924000Y-89350000D01*
X95856961Y-89330315D01*
X95811206Y-89277511D01*
X95800000Y-89226000D01*
X95800000Y-89150000D01*
X95724000Y-89150000D01*
X95656961Y-89130315D01*
X95611206Y-89077511D01*
X95600000Y-89026000D01*
X95600000Y-88950000D01*
X96000000Y-88950000D01*
X97000000Y-88950000D01*
X97000000Y-87584365D01*
X96999999Y-87584350D01*
X96997100Y-87547510D01*
X96997099Y-87547504D01*
X96951283Y-87389806D01*
X96951282Y-87389803D01*
X96867685Y-87248447D01*
X96867678Y-87248438D01*
X96751561Y-87132321D01*
X96751552Y-87132314D01*
X96610196Y-87048717D01*
X96610193Y-87048716D01*
X96452495Y-87002900D01*
X96452489Y-87002899D01*
X96415649Y-87000000D01*
X96000000Y-87000000D01*
X96000000Y-88950000D01*
X95600000Y-88950000D01*
X95600000Y-87000000D01*
X95184350Y-87000000D01*
X95147510Y-87002899D01*
X95147506Y-87002900D01*
X95141521Y-87004639D01*
X95071651Y-87004434D01*
X95012984Y-86966488D01*
X94984145Y-86902848D01*
X94982936Y-86886182D01*
X94978641Y-86014319D01*
X94997995Y-85947187D01*
X95050573Y-85901173D01*
X95119681Y-85890889D01*
X95137230Y-85894634D01*
X95147431Y-85897598D01*
X95184306Y-85900500D01*
X95184314Y-85900500D01*
X96415686Y-85900500D01*
X96415694Y-85900500D01*
X96452569Y-85897598D01*
X96452571Y-85897597D01*
X96452573Y-85897597D01*
X96505200Y-85882307D01*
X96610398Y-85851744D01*
X96751865Y-85768081D01*
X96868081Y-85651865D01*
X96951744Y-85510398D01*
X96990574Y-85376745D01*
X96997597Y-85352573D01*
X96997598Y-85352567D01*
X96997868Y-85349142D01*
X97000500Y-85315694D01*
X97000500Y-84707676D01*
X97020185Y-84640637D01*
X97072989Y-84594882D01*
X97142147Y-84584938D01*
X97205703Y-84613963D01*
G37*
%TD.AperFunction*%
%TA.AperFunction,Conductor*%
G36*
X114229309Y-88170185D02*
G01*
X114275064Y-88222989D01*
X114285008Y-88292147D01*
X114255983Y-88355703D01*
X114249951Y-88362181D01*
X113962131Y-88649998D01*
X113962132Y-88649999D01*
X114637867Y-88649999D01*
X114637867Y-88649998D01*
X114350050Y-88362181D01*
X114339437Y-88342744D01*
X114324937Y-88326011D01*
X114323020Y-88312679D01*
X114316565Y-88300858D01*
X114318144Y-88278771D01*
X114314993Y-88256853D01*
X114320588Y-88244601D01*
X114321549Y-88231166D01*
X114334819Y-88213439D01*
X114344018Y-88193297D01*
X114355349Y-88186014D01*
X114363421Y-88175233D01*
X114384166Y-88167495D01*
X114402796Y-88155523D01*
X114424714Y-88152371D01*
X114428885Y-88150816D01*
X114437731Y-88150500D01*
X114511270Y-88150500D01*
X114578309Y-88170185D01*
X114598951Y-88186819D01*
X114964865Y-88552734D01*
X114974476Y-88553454D01*
X115019142Y-88537140D01*
X115087312Y-88552455D01*
X115136381Y-88602194D01*
X115146224Y-88626286D01*
X115172779Y-88717689D01*
X115172780Y-88717692D01*
X115254770Y-88856331D01*
X115254776Y-88856339D01*
X115368660Y-88970223D01*
X115368668Y-88970229D01*
X115507307Y-89052219D01*
X115507310Y-89052220D01*
X115661975Y-89097155D01*
X115661981Y-89097156D01*
X115698116Y-89099999D01*
X115800000Y-89099998D01*
X115800000Y-88286500D01*
X115802550Y-88277814D01*
X115801262Y-88268853D01*
X115812240Y-88244812D01*
X115819685Y-88219461D01*
X115826525Y-88213533D01*
X115830287Y-88205297D01*
X115852521Y-88191007D01*
X115872489Y-88173706D01*
X115883003Y-88171418D01*
X115889065Y-88167523D01*
X115924000Y-88162500D01*
X116076000Y-88162500D01*
X116143039Y-88182185D01*
X116188794Y-88234989D01*
X116200000Y-88286500D01*
X116200000Y-89099999D01*
X116301872Y-89099999D01*
X116301893Y-89099998D01*
X116338021Y-89097155D01*
X116492689Y-89052220D01*
X116492692Y-89052219D01*
X116631331Y-88970229D01*
X116631335Y-88970226D01*
X116736964Y-88864597D01*
X116798287Y-88831112D01*
X116867979Y-88836096D01*
X116912327Y-88864597D01*
X117018351Y-88970621D01*
X117018354Y-88970623D01*
X117018357Y-88970626D01*
X117018360Y-88970627D01*
X117018363Y-88970630D01*
X117036994Y-88981648D01*
X117157106Y-89052681D01*
X117170155Y-89056472D01*
X117311897Y-89097653D01*
X117311900Y-89097653D01*
X117311902Y-89097654D01*
X117348065Y-89100500D01*
X117951934Y-89100499D01*
X117988098Y-89097654D01*
X118142894Y-89052681D01*
X118281643Y-88970626D01*
X118322454Y-88929815D01*
X118387319Y-88864951D01*
X118448642Y-88831466D01*
X118518334Y-88836450D01*
X118562681Y-88864951D01*
X118668351Y-88970621D01*
X118668354Y-88970623D01*
X118668357Y-88970626D01*
X118668360Y-88970627D01*
X118668363Y-88970630D01*
X118686994Y-88981648D01*
X118807106Y-89052681D01*
X118820155Y-89056472D01*
X118961897Y-89097653D01*
X118961900Y-89097653D01*
X118961902Y-89097654D01*
X118998065Y-89100500D01*
X119601934Y-89100499D01*
X119638098Y-89097654D01*
X119677650Y-89086163D01*
X119747519Y-89086362D01*
X119806189Y-89124304D01*
X119835033Y-89187942D01*
X119824892Y-89257072D01*
X119815347Y-89274130D01*
X119734919Y-89394498D01*
X119734914Y-89394508D01*
X119692066Y-89497953D01*
X119648225Y-89552356D01*
X119581931Y-89574421D01*
X119577505Y-89574500D01*
X119098077Y-89574500D01*
X119098052Y-89574501D01*
X119061901Y-89577346D01*
X118907110Y-89622317D01*
X118907103Y-89622320D01*
X118768363Y-89704369D01*
X118768351Y-89704378D01*
X118654378Y-89818351D01*
X118654374Y-89818357D01*
X118606441Y-89899407D01*
X118555371Y-89947090D01*
X118486630Y-89959593D01*
X118422040Y-89932947D01*
X118392977Y-89899405D01*
X118345232Y-89818672D01*
X118345223Y-89818660D01*
X118231339Y-89704776D01*
X118231331Y-89704770D01*
X118092692Y-89622780D01*
X118092689Y-89622779D01*
X117938024Y-89577844D01*
X117938018Y-89577843D01*
X117901890Y-89575000D01*
X117787500Y-89575000D01*
X117787500Y-90326000D01*
X117767815Y-90393039D01*
X117715011Y-90438794D01*
X117663500Y-90450000D01*
X117587500Y-90450000D01*
X117587500Y-90526000D01*
X117567815Y-90593039D01*
X117515011Y-90638794D01*
X117463500Y-90650000D01*
X116700001Y-90650000D01*
X116700001Y-90751893D01*
X116702844Y-90788021D01*
X116747779Y-90942689D01*
X116747782Y-90942696D01*
X116809928Y-91047781D01*
X116827111Y-91115505D01*
X116804951Y-91181767D01*
X116750484Y-91225530D01*
X116703852Y-91234899D01*
X116350921Y-91236767D01*
X109642726Y-91272260D01*
X109642605Y-91272260D01*
X109466613Y-91273191D01*
X109392353Y-91273583D01*
X110288330Y-90615600D01*
X110368351Y-90695621D01*
X110368355Y-90695624D01*
X110368357Y-90695626D01*
X110368360Y-90695627D01*
X110368363Y-90695630D01*
X110402189Y-90715634D01*
X110507106Y-90777681D01*
X110542696Y-90788021D01*
X110661897Y-90822653D01*
X110661900Y-90822653D01*
X110661902Y-90822654D01*
X110698065Y-90825500D01*
X111326934Y-90825499D01*
X111363098Y-90822654D01*
X111517894Y-90777681D01*
X111656643Y-90695626D01*
X111702269Y-90650000D01*
X111762319Y-90589951D01*
X111823642Y-90556466D01*
X111893334Y-90561450D01*
X111937681Y-90589951D01*
X112043351Y-90695621D01*
X112043355Y-90695624D01*
X112043357Y-90695626D01*
X112043360Y-90695627D01*
X112043363Y-90695630D01*
X112077189Y-90715634D01*
X112182106Y-90777681D01*
X112217696Y-90788021D01*
X112336897Y-90822653D01*
X112336900Y-90822653D01*
X112336902Y-90822654D01*
X112373065Y-90825500D01*
X113001934Y-90825499D01*
X113038098Y-90822654D01*
X113192894Y-90777681D01*
X113331643Y-90695626D01*
X113445626Y-90581643D01*
X113493558Y-90500592D01*
X113544626Y-90452910D01*
X113613368Y-90440406D01*
X113677957Y-90467051D01*
X113707022Y-90500593D01*
X113754770Y-90581331D01*
X113754776Y-90581339D01*
X113868660Y-90695223D01*
X113868668Y-90695229D01*
X114007307Y-90777219D01*
X114007310Y-90777220D01*
X114161975Y-90822155D01*
X114161981Y-90822156D01*
X114198116Y-90824999D01*
X114312499Y-90824999D01*
X114712500Y-90824999D01*
X114826872Y-90824999D01*
X114826893Y-90824998D01*
X114863021Y-90822155D01*
X115017689Y-90777220D01*
X115017692Y-90777219D01*
X115156331Y-90695229D01*
X115156339Y-90695223D01*
X115270223Y-90581339D01*
X115270229Y-90581331D01*
X115352219Y-90442692D01*
X115352220Y-90442689D01*
X115397155Y-90288024D01*
X115397156Y-90288018D01*
X115399999Y-90251890D01*
X115400000Y-90251875D01*
X115400000Y-90150000D01*
X114712500Y-90150000D01*
X114712500Y-90824999D01*
X114312499Y-90824999D01*
X114312500Y-90824998D01*
X114312500Y-90148109D01*
X116700000Y-90148109D01*
X116700000Y-90250000D01*
X117387500Y-90250000D01*
X117387500Y-89575000D01*
X117273129Y-89575000D01*
X117273105Y-89575001D01*
X117236978Y-89577844D01*
X117082310Y-89622779D01*
X117082307Y-89622780D01*
X116943668Y-89704770D01*
X116943660Y-89704776D01*
X116829776Y-89818660D01*
X116829770Y-89818668D01*
X116747780Y-89957307D01*
X116747779Y-89957310D01*
X116702844Y-90111975D01*
X116702843Y-90111981D01*
X116700000Y-90148109D01*
X114312500Y-90148109D01*
X114312500Y-89750000D01*
X114712500Y-89750000D01*
X115399999Y-89750000D01*
X115399999Y-89648128D01*
X115399998Y-89648106D01*
X115397155Y-89611978D01*
X115352220Y-89457310D01*
X115352219Y-89457307D01*
X115270229Y-89318668D01*
X115270223Y-89318660D01*
X115156339Y-89204776D01*
X115156331Y-89204770D01*
X115017692Y-89122780D01*
X115017689Y-89122779D01*
X114863024Y-89077844D01*
X114863018Y-89077843D01*
X114826890Y-89075000D01*
X114712500Y-89075000D01*
X114712500Y-89750000D01*
X114312500Y-89750000D01*
X114312500Y-89075000D01*
X114198129Y-89075000D01*
X114198105Y-89075001D01*
X114161978Y-89077844D01*
X114007310Y-89122779D01*
X114007307Y-89122780D01*
X113868668Y-89204770D01*
X113868660Y-89204776D01*
X113754776Y-89318660D01*
X113754769Y-89318669D01*
X113707022Y-89399406D01*
X113655953Y-89447090D01*
X113587211Y-89459593D01*
X113522622Y-89432947D01*
X113493558Y-89399406D01*
X113447733Y-89321920D01*
X113445626Y-89318357D01*
X113445624Y-89318355D01*
X113445621Y-89318351D01*
X113331648Y-89204378D01*
X113331636Y-89204369D01*
X113186180Y-89118348D01*
X113187192Y-89116636D01*
X113141535Y-89078634D01*
X113120524Y-89011998D01*
X113120500Y-89009538D01*
X113120500Y-88724851D01*
X113140185Y-88657812D01*
X113192989Y-88612057D01*
X113203548Y-88607809D01*
X113217878Y-88602795D01*
X113217879Y-88602793D01*
X113217882Y-88602793D01*
X113327150Y-88522150D01*
X113360541Y-88476906D01*
X113416186Y-88434656D01*
X113485842Y-88429197D01*
X113547392Y-88462263D01*
X113560080Y-88476906D01*
X113593205Y-88521788D01*
X113593208Y-88521791D01*
X113635133Y-88552733D01*
X114001049Y-88186819D01*
X114027976Y-88172115D01*
X114053795Y-88155523D01*
X114059995Y-88154631D01*
X114062372Y-88153334D01*
X114088730Y-88150500D01*
X114162270Y-88150500D01*
X114229309Y-88170185D01*
G37*
%TD.AperFunction*%
%TA.AperFunction,Conductor*%
G36*
X108218833Y-89945047D02*
G01*
X108274767Y-89986918D01*
X108299184Y-90052382D01*
X108299500Y-90061228D01*
X108299500Y-90251921D01*
X108299501Y-90251947D01*
X108302346Y-90288098D01*
X108317235Y-90339348D01*
X106213596Y-90329742D01*
X106234989Y-90311206D01*
X106286500Y-90300000D01*
X106362500Y-90300000D01*
X106362500Y-90224000D01*
X106382185Y-90156961D01*
X106434989Y-90111206D01*
X106486500Y-90100000D01*
X107135224Y-90100000D01*
X107188618Y-90113374D01*
X107188876Y-90112753D01*
X107193066Y-90114488D01*
X107193678Y-90114642D01*
X107194509Y-90115086D01*
X107295605Y-90156961D01*
X107331087Y-90171658D01*
X107331091Y-90171658D01*
X107331092Y-90171659D01*
X107476079Y-90200500D01*
X107476082Y-90200500D01*
X107623920Y-90200500D01*
X107721462Y-90181096D01*
X107768913Y-90171658D01*
X107905495Y-90115084D01*
X108028416Y-90032951D01*
X108087820Y-89973546D01*
X108149141Y-89940063D01*
X108218833Y-89945047D01*
G37*
%TD.AperFunction*%
%TA.AperFunction,Conductor*%
G36*
X103642539Y-89970185D02*
G01*
X103688294Y-90022989D01*
X103699500Y-90074500D01*
X103699500Y-90318262D01*
X103387999Y-90316840D01*
X103387999Y-90074498D01*
X103390549Y-90065813D01*
X103389261Y-90056853D01*
X103400238Y-90032816D01*
X103407683Y-90007461D01*
X103414525Y-90001532D01*
X103418286Y-89993297D01*
X103440517Y-89979010D01*
X103460487Y-89961706D01*
X103471002Y-89959418D01*
X103477064Y-89955523D01*
X103511999Y-89950500D01*
X103575500Y-89950500D01*
X103642539Y-89970185D01*
G37*
%TD.AperFunction*%
%TA.AperFunction,Conductor*%
G36*
X108442539Y-82920185D02*
G01*
X108488294Y-82972989D01*
X108499500Y-83024500D01*
X108499500Y-84981517D01*
X108504914Y-85015697D01*
X108514354Y-85075304D01*
X108571950Y-85188342D01*
X108571952Y-85188344D01*
X108571954Y-85188347D01*
X108661652Y-85278045D01*
X108661656Y-85278048D01*
X108661658Y-85278050D01*
X108736325Y-85316094D01*
X108787119Y-85364068D01*
X108803914Y-85431888D01*
X108781377Y-85498023D01*
X108726662Y-85541475D01*
X108714627Y-85545653D01*
X108707311Y-85547778D01*
X108707307Y-85547780D01*
X108568668Y-85629770D01*
X108568660Y-85629776D01*
X108454776Y-85743660D01*
X108454770Y-85743668D01*
X108372780Y-85882307D01*
X108372779Y-85882310D01*
X108327844Y-86036975D01*
X108327843Y-86036981D01*
X108325000Y-86073109D01*
X108325000Y-86237500D01*
X109076000Y-86237500D01*
X109084685Y-86240050D01*
X109093647Y-86238762D01*
X109117687Y-86249740D01*
X109143039Y-86257185D01*
X109148966Y-86264025D01*
X109157203Y-86267787D01*
X109171492Y-86290021D01*
X109188794Y-86309989D01*
X109191081Y-86320503D01*
X109194977Y-86326565D01*
X109200000Y-86361500D01*
X109200000Y-86513500D01*
X109180315Y-86580539D01*
X109127511Y-86626294D01*
X109076000Y-86637500D01*
X108325001Y-86637500D01*
X108325001Y-86801893D01*
X108327844Y-86838021D01*
X108372779Y-86992689D01*
X108372780Y-86992692D01*
X108454770Y-87131331D01*
X108454776Y-87131339D01*
X108535402Y-87211965D01*
X108568887Y-87273288D01*
X108563903Y-87342980D01*
X108535403Y-87387327D01*
X108454375Y-87468355D01*
X108454369Y-87468363D01*
X108372320Y-87607103D01*
X108372317Y-87607110D01*
X108327346Y-87761897D01*
X108327345Y-87761903D01*
X108324500Y-87798057D01*
X108324500Y-88526922D01*
X108324501Y-88526947D01*
X108327346Y-88563098D01*
X108372317Y-88717889D01*
X108372320Y-88717896D01*
X108454369Y-88856636D01*
X108454378Y-88856648D01*
X108568351Y-88970621D01*
X108568354Y-88970623D01*
X108568357Y-88970626D01*
X108573004Y-88973374D01*
X108620687Y-89024439D01*
X108633194Y-89093181D01*
X108606551Y-89157771D01*
X108590555Y-89174279D01*
X108582326Y-89181327D01*
X108543357Y-89204374D01*
X108471265Y-89276465D01*
X108467625Y-89279584D01*
X108439945Y-89292035D01*
X108413312Y-89306578D01*
X108408399Y-89306226D01*
X108403906Y-89308248D01*
X108373888Y-89303758D01*
X108343621Y-89301593D01*
X108339677Y-89298640D01*
X108334805Y-89297912D01*
X108311984Y-89277910D01*
X108287687Y-89259722D01*
X108284155Y-89253519D01*
X108282261Y-89251859D01*
X108281293Y-89248493D01*
X108272394Y-89232864D01*
X108215087Y-89094511D01*
X108215080Y-89094498D01*
X108132951Y-88971584D01*
X108132948Y-88971580D01*
X108028419Y-88867051D01*
X108028415Y-88867048D01*
X107905501Y-88784919D01*
X107905488Y-88784912D01*
X107768917Y-88728343D01*
X107768907Y-88728340D01*
X107623920Y-88699500D01*
X107623918Y-88699500D01*
X107476082Y-88699500D01*
X107476080Y-88699500D01*
X107448691Y-88704948D01*
X107379099Y-88698721D01*
X107323922Y-88655858D01*
X107300677Y-88589968D01*
X107300499Y-88583331D01*
X107300499Y-88333077D01*
X107300498Y-88333052D01*
X107298276Y-88304814D01*
X107297654Y-88296902D01*
X107252681Y-88142106D01*
X107197847Y-88049387D01*
X107180665Y-87981665D01*
X107182962Y-87962081D01*
X107200500Y-87873918D01*
X107200500Y-87726082D01*
X107200500Y-87726079D01*
X107171659Y-87581092D01*
X107171658Y-87581091D01*
X107171658Y-87581087D01*
X107157750Y-87547510D01*
X107115087Y-87444511D01*
X107115080Y-87444498D01*
X107032951Y-87321584D01*
X107032948Y-87321580D01*
X106997792Y-87286424D01*
X106964307Y-87225101D01*
X106969291Y-87155409D01*
X106997791Y-87111063D01*
X107093883Y-87014972D01*
X107160481Y-86915301D01*
X107195166Y-86863391D01*
X107195168Y-86863387D01*
X107247064Y-86738098D01*
X107264933Y-86694958D01*
X107292333Y-86557213D01*
X107300500Y-86516156D01*
X107300500Y-86333843D01*
X107264934Y-86155047D01*
X107264933Y-86155046D01*
X107264933Y-86155042D01*
X107240977Y-86097206D01*
X107195168Y-85986612D01*
X107195166Y-85986609D01*
X107109527Y-85858440D01*
X107088649Y-85791763D01*
X107107134Y-85724383D01*
X107109527Y-85720659D01*
X107194721Y-85593157D01*
X107194728Y-85593145D01*
X107264451Y-85424817D01*
X107264454Y-85424805D01*
X107299999Y-85246109D01*
X107300000Y-85246106D01*
X107300000Y-85063894D01*
X107299999Y-85063890D01*
X107264454Y-84885194D01*
X107264451Y-84885182D01*
X107194728Y-84716854D01*
X107194721Y-84716841D01*
X107109527Y-84589340D01*
X107088649Y-84522663D01*
X107107133Y-84455282D01*
X107109510Y-84451583D01*
X107195167Y-84323389D01*
X107264933Y-84154958D01*
X107278865Y-84084919D01*
X107300500Y-83976156D01*
X107300500Y-83793845D01*
X107292437Y-83753313D01*
X107298663Y-83683721D01*
X107326370Y-83641442D01*
X108030995Y-82936819D01*
X108092318Y-82903334D01*
X108118676Y-82900500D01*
X108375500Y-82900500D01*
X108442539Y-82920185D01*
G37*
%TD.AperFunction*%
%TA.AperFunction,Conductor*%
G36*
X120807173Y-84076010D02*
G01*
X120863106Y-84117882D01*
X120882915Y-84157596D01*
X120898254Y-84210394D01*
X120898256Y-84210399D01*
X120981917Y-84351862D01*
X120981923Y-84351870D01*
X121098129Y-84468076D01*
X121098133Y-84468079D01*
X121098135Y-84468081D01*
X121239602Y-84551744D01*
X121274549Y-84561897D01*
X121397426Y-84597597D01*
X121397429Y-84597597D01*
X121397431Y-84597598D01*
X121434306Y-84600500D01*
X121434314Y-84600500D01*
X122865686Y-84600500D01*
X122865694Y-84600500D01*
X122902569Y-84597598D01*
X122904579Y-84597014D01*
X122905747Y-84597017D01*
X122908799Y-84596460D01*
X122908902Y-84597026D01*
X122974448Y-84597211D01*
X123033120Y-84635151D01*
X123061965Y-84698788D01*
X123063089Y-84711384D01*
X123092592Y-85488297D01*
X123075465Y-85556035D01*
X123024436Y-85603760D01*
X122955704Y-85616321D01*
X122934088Y-85612079D01*
X122902492Y-85602900D01*
X122902489Y-85602899D01*
X122865649Y-85600000D01*
X122350000Y-85600000D01*
X122350000Y-86538500D01*
X122330315Y-86605539D01*
X122277511Y-86651294D01*
X122226000Y-86662500D01*
X122150000Y-86662500D01*
X122150000Y-86738500D01*
X122130315Y-86805539D01*
X122077511Y-86851294D01*
X122026000Y-86862500D01*
X120850000Y-86862500D01*
X120850000Y-87140649D01*
X120852899Y-87177489D01*
X120852900Y-87177495D01*
X120898716Y-87335193D01*
X120898717Y-87335196D01*
X120982314Y-87476552D01*
X120982321Y-87476561D01*
X121098438Y-87592678D01*
X121098447Y-87592685D01*
X121239803Y-87676282D01*
X121239806Y-87676283D01*
X121343550Y-87706424D01*
X121402436Y-87744030D01*
X121431642Y-87807502D01*
X121421896Y-87876689D01*
X121376292Y-87929623D01*
X121309309Y-87949499D01*
X121308955Y-87949500D01*
X120835577Y-87949500D01*
X120835552Y-87949501D01*
X120799401Y-87952346D01*
X120644610Y-87997317D01*
X120644603Y-87997320D01*
X120505863Y-88079369D01*
X120505855Y-88079375D01*
X120387180Y-88198050D01*
X120325857Y-88231534D01*
X120256165Y-88226550D01*
X120200232Y-88184678D01*
X120175815Y-88119214D01*
X120175499Y-88110368D01*
X120175499Y-87898077D01*
X120175498Y-87898052D01*
X120175216Y-87894468D01*
X120172654Y-87861902D01*
X120127681Y-87707106D01*
X120068540Y-87607103D01*
X120045630Y-87568363D01*
X120045621Y-87568351D01*
X119931648Y-87454378D01*
X119931639Y-87454371D01*
X119850593Y-87406441D01*
X119802909Y-87355372D01*
X119790406Y-87286630D01*
X119817051Y-87222041D01*
X119850594Y-87192976D01*
X119931333Y-87145227D01*
X119931339Y-87145223D01*
X120045223Y-87031339D01*
X120045229Y-87031331D01*
X120127219Y-86892692D01*
X120127220Y-86892689D01*
X120172155Y-86738024D01*
X120172156Y-86738018D01*
X120174999Y-86701890D01*
X120175000Y-86701875D01*
X120175000Y-86587500D01*
X119424000Y-86587500D01*
X119415314Y-86584949D01*
X119406353Y-86586238D01*
X119382312Y-86575259D01*
X119356961Y-86567815D01*
X119351033Y-86560974D01*
X119342797Y-86557213D01*
X119328507Y-86534978D01*
X119311206Y-86515011D01*
X119308918Y-86504496D01*
X119305023Y-86498435D01*
X119300000Y-86463500D01*
X119300000Y-86311500D01*
X119319685Y-86244461D01*
X119372489Y-86198706D01*
X119424000Y-86187500D01*
X120174999Y-86187500D01*
X120174999Y-86184350D01*
X120850000Y-86184350D01*
X120850000Y-86462500D01*
X121950000Y-86462500D01*
X121950000Y-85600000D01*
X121434350Y-85600000D01*
X121397510Y-85602899D01*
X121397504Y-85602900D01*
X121239806Y-85648716D01*
X121239803Y-85648717D01*
X121098447Y-85732314D01*
X121098438Y-85732321D01*
X120982321Y-85848438D01*
X120982314Y-85848447D01*
X120898717Y-85989803D01*
X120898716Y-85989806D01*
X120852900Y-86147504D01*
X120852899Y-86147510D01*
X120850000Y-86184350D01*
X120174999Y-86184350D01*
X120174999Y-86073128D01*
X120174998Y-86073106D01*
X120172155Y-86036978D01*
X120127220Y-85882310D01*
X120127219Y-85882307D01*
X120045229Y-85743668D01*
X120045223Y-85743660D01*
X119931339Y-85629776D01*
X119931331Y-85629770D01*
X119792692Y-85547780D01*
X119792689Y-85547779D01*
X119638024Y-85502844D01*
X119638018Y-85502843D01*
X119601890Y-85500000D01*
X119580030Y-85500000D01*
X119512991Y-85480315D01*
X119467236Y-85427511D01*
X119457292Y-85358353D01*
X119486317Y-85294797D01*
X119492337Y-85288331D01*
X120676160Y-84104509D01*
X120737481Y-84071026D01*
X120807173Y-84076010D01*
G37*
%TD.AperFunction*%
%TA.AperFunction,Conductor*%
G36*
X110705702Y-83163962D02*
G01*
X110712180Y-83169994D01*
X111076849Y-83534663D01*
X111110334Y-83595986D01*
X111105350Y-83665678D01*
X111103729Y-83669796D01*
X111078343Y-83731082D01*
X111078340Y-83731092D01*
X111049500Y-83876079D01*
X111049500Y-83876082D01*
X111049500Y-84023918D01*
X111049500Y-84023920D01*
X111049499Y-84023920D01*
X111078340Y-84168907D01*
X111078343Y-84168917D01*
X111134912Y-84305488D01*
X111134919Y-84305501D01*
X111217048Y-84428415D01*
X111217051Y-84428419D01*
X111321580Y-84532948D01*
X111321584Y-84532951D01*
X111444498Y-84615080D01*
X111444511Y-84615087D01*
X111581082Y-84671656D01*
X111581087Y-84671658D01*
X111590251Y-84673480D01*
X111599691Y-84675359D01*
X111661602Y-84707743D01*
X111696176Y-84768459D01*
X111699500Y-84796975D01*
X111699500Y-84981517D01*
X111704914Y-85015697D01*
X111714354Y-85075304D01*
X111771950Y-85188342D01*
X111771952Y-85188344D01*
X111771954Y-85188347D01*
X111861652Y-85278045D01*
X111861654Y-85278046D01*
X111861658Y-85278050D01*
X111974694Y-85335645D01*
X111974698Y-85335647D01*
X112068475Y-85350499D01*
X112068481Y-85350500D01*
X113331518Y-85350499D01*
X113425304Y-85335646D01*
X113538342Y-85278050D01*
X113628050Y-85188342D01*
X113685646Y-85075304D01*
X113685646Y-85075302D01*
X113685647Y-85075301D01*
X113700500Y-84981524D01*
X113700500Y-84924500D01*
X113703050Y-84915814D01*
X113701762Y-84906853D01*
X113712740Y-84882812D01*
X113720185Y-84857461D01*
X113727025Y-84851533D01*
X113730787Y-84843297D01*
X113753021Y-84829007D01*
X113772989Y-84811706D01*
X113783503Y-84809418D01*
X113789565Y-84805523D01*
X113824500Y-84800500D01*
X113861910Y-84800500D01*
X113928949Y-84820185D01*
X113974704Y-84872989D01*
X113980986Y-84889905D01*
X114023254Y-85035393D01*
X114023255Y-85035396D01*
X114023256Y-85035398D01*
X114046855Y-85075302D01*
X114106917Y-85176862D01*
X114106923Y-85176870D01*
X114223129Y-85293076D01*
X114223133Y-85293079D01*
X114223135Y-85293081D01*
X114364602Y-85376744D01*
X114406224Y-85388836D01*
X114522426Y-85422597D01*
X114522429Y-85422597D01*
X114522431Y-85422598D01*
X114559306Y-85425500D01*
X114559314Y-85425500D01*
X115272868Y-85425500D01*
X115339907Y-85445185D01*
X115385662Y-85497989D01*
X115395606Y-85567147D01*
X115366581Y-85630703D01*
X115360549Y-85637181D01*
X115254378Y-85743351D01*
X115254369Y-85743363D01*
X115172320Y-85882103D01*
X115172317Y-85882110D01*
X115125578Y-86042986D01*
X115123373Y-86042345D01*
X115119119Y-86050791D01*
X115114902Y-86070179D01*
X115097949Y-86092824D01*
X115096616Y-86095472D01*
X115093751Y-86098433D01*
X115083939Y-86108245D01*
X115022616Y-86141730D01*
X115005526Y-86144217D01*
X114964865Y-86147264D01*
X114598951Y-86513181D01*
X114537628Y-86546666D01*
X114511270Y-86549500D01*
X114437731Y-86549500D01*
X114370692Y-86529815D01*
X114324937Y-86477011D01*
X114314993Y-86407853D01*
X114344018Y-86344297D01*
X114350050Y-86337819D01*
X114637867Y-86050000D01*
X113962131Y-86050000D01*
X114249951Y-86337819D01*
X114260563Y-86357255D01*
X114275064Y-86373989D01*
X114276980Y-86387320D01*
X114283436Y-86399142D01*
X114281856Y-86421228D01*
X114285008Y-86443147D01*
X114279412Y-86455398D01*
X114278452Y-86468833D01*
X114265182Y-86486559D01*
X114255983Y-86506703D01*
X114244652Y-86513984D01*
X114236581Y-86524767D01*
X114215833Y-86532505D01*
X114197205Y-86544477D01*
X114175286Y-86547628D01*
X114171116Y-86549184D01*
X114162270Y-86549500D01*
X114088730Y-86549500D01*
X114021691Y-86529815D01*
X114001049Y-86513181D01*
X113635133Y-86147265D01*
X113593206Y-86178209D01*
X113560078Y-86223095D01*
X113504430Y-86265344D01*
X113434774Y-86270801D01*
X113373225Y-86237732D01*
X113360540Y-86223092D01*
X113327151Y-86177851D01*
X113286040Y-86147510D01*
X113217882Y-86097207D01*
X113217880Y-86097206D01*
X113089700Y-86052353D01*
X113059270Y-86049500D01*
X113059266Y-86049500D01*
X112180734Y-86049500D01*
X112180730Y-86049500D01*
X112150300Y-86052353D01*
X112150298Y-86052354D01*
X112035451Y-86092541D01*
X112031362Y-86093235D01*
X112029431Y-86094477D01*
X111994496Y-86099500D01*
X111843942Y-86099500D01*
X111776903Y-86079815D01*
X111731148Y-86027011D01*
X111724866Y-86010095D01*
X111696331Y-85911880D01*
X111687681Y-85882106D01*
X111653613Y-85824500D01*
X111605630Y-85743363D01*
X111605621Y-85743351D01*
X111491648Y-85629378D01*
X111491636Y-85629369D01*
X111352896Y-85547320D01*
X111345731Y-85544219D01*
X111346525Y-85542384D01*
X111296498Y-85510426D01*
X111282601Y-85490967D01*
X111260500Y-85452686D01*
X111167314Y-85359500D01*
X110536818Y-84729004D01*
X110503333Y-84667681D01*
X110500499Y-84641323D01*
X110500499Y-83257675D01*
X110520184Y-83190636D01*
X110572988Y-83144881D01*
X110642146Y-83134937D01*
X110705702Y-83163962D01*
G37*
%TD.AperFunction*%
%TA.AperFunction,Conductor*%
G36*
X103443917Y-79390490D02*
G01*
X103494586Y-79438598D01*
X103511203Y-79506463D01*
X103506408Y-79535419D01*
X103502346Y-79549400D01*
X103502345Y-79549403D01*
X103499500Y-79585557D01*
X103499500Y-80030967D01*
X103479815Y-80098006D01*
X103463181Y-80118648D01*
X103063252Y-80518576D01*
X103001929Y-80552061D01*
X102940976Y-80549971D01*
X102863102Y-80527346D01*
X102863096Y-80527345D01*
X102826935Y-80524500D01*
X102198077Y-80524500D01*
X102198052Y-80524501D01*
X102161901Y-80527346D01*
X102007110Y-80572317D01*
X102007103Y-80572320D01*
X101868363Y-80654369D01*
X101868351Y-80654378D01*
X101754378Y-80768351D01*
X101754372Y-80768359D01*
X101706732Y-80848916D01*
X101655663Y-80896599D01*
X101586922Y-80909103D01*
X101522332Y-80882458D01*
X101493268Y-80848916D01*
X101446313Y-80769519D01*
X101445626Y-80768357D01*
X101445624Y-80768355D01*
X101445621Y-80768351D01*
X101331648Y-80654378D01*
X101331636Y-80654369D01*
X101192896Y-80572320D01*
X101192889Y-80572317D01*
X101038102Y-80527346D01*
X101038096Y-80527345D01*
X101001935Y-80524500D01*
X100373077Y-80524500D01*
X100373052Y-80524501D01*
X100336901Y-80527346D01*
X100182110Y-80572317D01*
X100182103Y-80572320D01*
X100043363Y-80654369D01*
X100043351Y-80654378D01*
X99929378Y-80768351D01*
X99929369Y-80768363D01*
X99847320Y-80907103D01*
X99847317Y-80907110D01*
X99802346Y-81061897D01*
X99802345Y-81061903D01*
X99799500Y-81098057D01*
X99799500Y-81701922D01*
X99799501Y-81701947D01*
X99802346Y-81738098D01*
X99847317Y-81892889D01*
X99847320Y-81892896D01*
X99929369Y-82031636D01*
X99929378Y-82031648D01*
X100043351Y-82145621D01*
X100049520Y-82150406D01*
X100047935Y-82152448D01*
X100087041Y-82194314D01*
X100099559Y-82263053D01*
X100072926Y-82327648D01*
X100048753Y-82348605D01*
X100049520Y-82349594D01*
X100043351Y-82354378D01*
X99929378Y-82468351D01*
X99929369Y-82468363D01*
X99847320Y-82607103D01*
X99847317Y-82607110D01*
X99802346Y-82761897D01*
X99802345Y-82761903D01*
X99799500Y-82798057D01*
X99799500Y-83401922D01*
X99799501Y-83401947D01*
X99802346Y-83438098D01*
X99847317Y-83592889D01*
X99847320Y-83592896D01*
X99929369Y-83731636D01*
X99929373Y-83731641D01*
X99929373Y-83731642D01*
X99929378Y-83731648D01*
X100043351Y-83845621D01*
X100043355Y-83845624D01*
X100043357Y-83845626D01*
X100043359Y-83845627D01*
X100123916Y-83893268D01*
X100171599Y-83944337D01*
X100184103Y-84013078D01*
X100157458Y-84077668D01*
X100123916Y-84106732D01*
X100043359Y-84154372D01*
X100043351Y-84154378D01*
X99929378Y-84268351D01*
X99929369Y-84268363D01*
X99847320Y-84407103D01*
X99847317Y-84407110D01*
X99802346Y-84561897D01*
X99802345Y-84561903D01*
X99799500Y-84598057D01*
X99799500Y-85201922D01*
X99799501Y-85201947D01*
X99802346Y-85238098D01*
X99847317Y-85392889D01*
X99847320Y-85392896D01*
X99929369Y-85531636D01*
X99929378Y-85531648D01*
X100043351Y-85645621D01*
X100043354Y-85645623D01*
X100043357Y-85645626D01*
X100117667Y-85689572D01*
X100165349Y-85740639D01*
X100177853Y-85809380D01*
X100151209Y-85873970D01*
X100117666Y-85903035D01*
X100070496Y-85930931D01*
X100002772Y-85948114D01*
X99936509Y-85925954D01*
X99919694Y-85911880D01*
X98007627Y-83999813D01*
X97974142Y-83938490D01*
X97979126Y-83868798D01*
X98007625Y-83824452D01*
X98071789Y-83760289D01*
X98159394Y-83629179D01*
X98219737Y-83483497D01*
X98250500Y-83328842D01*
X98250500Y-83171158D01*
X98250500Y-83171155D01*
X98250499Y-83171153D01*
X98243295Y-83134937D01*
X98219737Y-83016503D01*
X98211056Y-82995545D01*
X98159397Y-82870827D01*
X98159390Y-82870814D01*
X98071789Y-82739711D01*
X98071786Y-82739707D01*
X97960292Y-82628213D01*
X97960288Y-82628210D01*
X97829185Y-82540609D01*
X97829172Y-82540602D01*
X97683501Y-82480264D01*
X97683489Y-82480261D01*
X97528845Y-82449500D01*
X97528842Y-82449500D01*
X97371158Y-82449500D01*
X97371155Y-82449500D01*
X97216510Y-82480261D01*
X97216498Y-82480264D01*
X97171952Y-82498716D01*
X97102483Y-82506185D01*
X97040004Y-82474909D01*
X97004352Y-82414820D01*
X97000500Y-82384155D01*
X97000500Y-82184313D01*
X97000499Y-82184298D01*
X97000121Y-82179500D01*
X96997598Y-82147431D01*
X96997072Y-82145621D01*
X96951745Y-81989606D01*
X96951744Y-81989603D01*
X96951744Y-81989602D01*
X96868081Y-81848135D01*
X96868079Y-81848133D01*
X96868076Y-81848129D01*
X96751870Y-81731923D01*
X96751862Y-81731917D01*
X96643224Y-81667669D01*
X96610398Y-81648256D01*
X96610397Y-81648255D01*
X96610396Y-81648255D01*
X96610393Y-81648254D01*
X96452573Y-81602402D01*
X96452567Y-81602401D01*
X96415701Y-81599500D01*
X96415694Y-81599500D01*
X95184306Y-81599500D01*
X95184298Y-81599500D01*
X95147432Y-81602401D01*
X95114962Y-81611835D01*
X95045092Y-81611635D01*
X94986423Y-81573692D01*
X94957580Y-81510053D01*
X94956371Y-81493392D01*
X94951468Y-80498032D01*
X94970822Y-80430899D01*
X94983418Y-80414339D01*
X95008095Y-80387000D01*
X95166630Y-80211364D01*
X95226160Y-80174790D01*
X95246614Y-80171040D01*
X103375283Y-79377413D01*
X103443917Y-79390490D01*
G37*
%TD.AperFunction*%
%TA.AperFunction,Conductor*%
G36*
X117726509Y-82231843D02*
G01*
X117748960Y-82233590D01*
X117767562Y-82243898D01*
X117771944Y-82245185D01*
X117779831Y-82250697D01*
X117890156Y-82334360D01*
X117890157Y-82334360D01*
X117890158Y-82334361D01*
X118030936Y-82389877D01*
X118119398Y-82400500D01*
X118119403Y-82400500D01*
X119380597Y-82400500D01*
X119380602Y-82400500D01*
X119469064Y-82389877D01*
X119609842Y-82334361D01*
X119720169Y-82250696D01*
X119741216Y-82242697D01*
X119760160Y-82230523D01*
X119781209Y-82227496D01*
X119785481Y-82225873D01*
X119795095Y-82225500D01*
X120043469Y-82225500D01*
X120110508Y-82245185D01*
X120131150Y-82261819D01*
X120669650Y-82800319D01*
X120703135Y-82861642D01*
X120698151Y-82931334D01*
X120656279Y-82987267D01*
X120590815Y-83011684D01*
X120581969Y-83012000D01*
X120576796Y-83012000D01*
X120576780Y-83011999D01*
X120569184Y-83011999D01*
X120430817Y-83011999D01*
X120312952Y-83043580D01*
X120297161Y-83047812D01*
X120177338Y-83116992D01*
X120177332Y-83116997D01*
X118201951Y-85092378D01*
X118140628Y-85125863D01*
X118070936Y-85120879D01*
X118015003Y-85079007D01*
X117990586Y-85013543D01*
X117995194Y-84970102D01*
X118022099Y-84877495D01*
X118022100Y-84877489D01*
X118024999Y-84840649D01*
X118025000Y-84840634D01*
X118025000Y-84500000D01*
X117237500Y-84500000D01*
X117237500Y-85431076D01*
X117217815Y-85498115D01*
X117165011Y-85543870D01*
X117162753Y-85544875D01*
X117157102Y-85547320D01*
X117018363Y-85629369D01*
X117018351Y-85629378D01*
X116912681Y-85735049D01*
X116851358Y-85768534D01*
X116781666Y-85763550D01*
X116737319Y-85735049D01*
X116638951Y-85636681D01*
X116605466Y-85575358D01*
X116610450Y-85505666D01*
X116652322Y-85449733D01*
X116717786Y-85425316D01*
X116726632Y-85425000D01*
X116837500Y-85425000D01*
X116837500Y-84100000D01*
X117237500Y-84100000D01*
X118025000Y-84100000D01*
X118025000Y-83759365D01*
X118024999Y-83759350D01*
X118022100Y-83722510D01*
X118022099Y-83722504D01*
X117976283Y-83564806D01*
X117976282Y-83564803D01*
X117892685Y-83423447D01*
X117892678Y-83423438D01*
X117776561Y-83307321D01*
X117776552Y-83307314D01*
X117635196Y-83223717D01*
X117635193Y-83223716D01*
X117477495Y-83177900D01*
X117477489Y-83177899D01*
X117440649Y-83175000D01*
X117237500Y-83175000D01*
X117237500Y-84100000D01*
X116837500Y-84100000D01*
X116837500Y-83175000D01*
X116634350Y-83175000D01*
X116597510Y-83177899D01*
X116597504Y-83177900D01*
X116439806Y-83223716D01*
X116439803Y-83223717D01*
X116298447Y-83307314D01*
X116298438Y-83307321D01*
X116182321Y-83423438D01*
X116182314Y-83423447D01*
X116107022Y-83550760D01*
X116055953Y-83598444D01*
X115987211Y-83610947D01*
X115922622Y-83584301D01*
X115893558Y-83550760D01*
X115853781Y-83483501D01*
X115818081Y-83423135D01*
X115818078Y-83423132D01*
X115818076Y-83423129D01*
X115701870Y-83306923D01*
X115701862Y-83306917D01*
X115567593Y-83227511D01*
X115560398Y-83223256D01*
X115560397Y-83223255D01*
X115560396Y-83223255D01*
X115560393Y-83223254D01*
X115402573Y-83177402D01*
X115402567Y-83177401D01*
X115365701Y-83174500D01*
X115365694Y-83174500D01*
X114559306Y-83174500D01*
X114559298Y-83174500D01*
X114522432Y-83177401D01*
X114522426Y-83177402D01*
X114364606Y-83223254D01*
X114364603Y-83223255D01*
X114223137Y-83306917D01*
X114223129Y-83306923D01*
X114106923Y-83423129D01*
X114106917Y-83423137D01*
X114023255Y-83564603D01*
X114023254Y-83564606D01*
X113980986Y-83710095D01*
X113966672Y-83732508D01*
X113955623Y-83756703D01*
X113948156Y-83761501D01*
X113943380Y-83768981D01*
X113919217Y-83780098D01*
X113896845Y-83794477D01*
X113883937Y-83796332D01*
X113879908Y-83798187D01*
X113861910Y-83799500D01*
X113824499Y-83799500D01*
X113757460Y-83779815D01*
X113711705Y-83727011D01*
X113700499Y-83675500D01*
X113700499Y-83049500D01*
X113720184Y-82982461D01*
X113772988Y-82936706D01*
X113824499Y-82925500D01*
X115835705Y-82925500D01*
X115835721Y-82925501D01*
X115843317Y-82925501D01*
X115981681Y-82925501D01*
X115981683Y-82925501D01*
X116104147Y-82892686D01*
X116115336Y-82889688D01*
X116235165Y-82820505D01*
X116333005Y-82722665D01*
X116333005Y-82722663D01*
X116343205Y-82712464D01*
X116343209Y-82712459D01*
X116456352Y-82599315D01*
X116517673Y-82565833D01*
X116544031Y-82562999D01*
X116939422Y-82562999D01*
X116939434Y-82562999D01*
X116975598Y-82560154D01*
X117130394Y-82515181D01*
X117269143Y-82433126D01*
X117383126Y-82319143D01*
X117402503Y-82286377D01*
X117453573Y-82238695D01*
X117509235Y-82225500D01*
X117704905Y-82225500D01*
X117726509Y-82231843D01*
G37*
%TD.AperFunction*%
%TA.AperFunction,Conductor*%
G36*
X116077958Y-85015697D02*
G01*
X116107022Y-85049239D01*
X116182314Y-85176552D01*
X116182321Y-85176561D01*
X116293579Y-85287819D01*
X116327064Y-85349142D01*
X116322080Y-85418834D01*
X116280208Y-85474767D01*
X116214744Y-85499184D01*
X116205898Y-85499500D01*
X115794808Y-85499500D01*
X115727769Y-85479815D01*
X115682014Y-85427011D01*
X115672070Y-85357853D01*
X115701095Y-85294297D01*
X115707113Y-85287832D01*
X115818081Y-85176865D01*
X115893559Y-85049237D01*
X115944627Y-85001556D01*
X116013368Y-84989052D01*
X116077958Y-85015697D01*
G37*
%TD.AperFunction*%
%TA.AperFunction,Conductor*%
G36*
X111403242Y-78597879D02*
G01*
X111418147Y-78595736D01*
X111436869Y-78604286D01*
X111457086Y-78608138D01*
X111468005Y-78618505D01*
X111481703Y-78624761D01*
X111492830Y-78642075D01*
X111507755Y-78656246D01*
X111511945Y-78671820D01*
X111519477Y-78683539D01*
X111524500Y-78718474D01*
X111524500Y-78805602D01*
X111527433Y-78830025D01*
X111535122Y-78894061D01*
X111535122Y-78894063D01*
X111535123Y-78894064D01*
X111537970Y-78901283D01*
X111590639Y-79034843D01*
X111682077Y-79155422D01*
X111802656Y-79246860D01*
X111802657Y-79246860D01*
X111802658Y-79246861D01*
X111943436Y-79302377D01*
X112031898Y-79313000D01*
X112325500Y-79313000D01*
X112392539Y-79332685D01*
X112438294Y-79385489D01*
X112449500Y-79437000D01*
X112449500Y-80475980D01*
X112429815Y-80543019D01*
X112388621Y-80582712D01*
X112330860Y-80616871D01*
X112330851Y-80616878D01*
X112216878Y-80730851D01*
X112216869Y-80730863D01*
X112134820Y-80869603D01*
X112134817Y-80869610D01*
X112089846Y-81024397D01*
X112089845Y-81024403D01*
X112087000Y-81060557D01*
X112087000Y-81664422D01*
X112087001Y-81664447D01*
X112089846Y-81700598D01*
X112094293Y-81715905D01*
X112094218Y-81742158D01*
X112097955Y-81768147D01*
X112094120Y-81776543D01*
X112094094Y-81785774D01*
X112079837Y-81807819D01*
X112068930Y-81831703D01*
X112061164Y-81836693D01*
X112056152Y-81844444D01*
X112032239Y-81855282D01*
X112010152Y-81869477D01*
X111996633Y-81871420D01*
X111992514Y-81873288D01*
X111975217Y-81874500D01*
X111919031Y-81874500D01*
X111851992Y-81854815D01*
X111831350Y-81838181D01*
X111686819Y-81693650D01*
X111653334Y-81632327D01*
X111650500Y-81605969D01*
X111650500Y-81521155D01*
X111650499Y-81521153D01*
X111644278Y-81489877D01*
X111619737Y-81366503D01*
X111619735Y-81366498D01*
X111559397Y-81220827D01*
X111559390Y-81220814D01*
X111471789Y-81089711D01*
X111471786Y-81089707D01*
X111360292Y-80978213D01*
X111360288Y-80978210D01*
X111229185Y-80890609D01*
X111229172Y-80890602D01*
X111083501Y-80830264D01*
X111083489Y-80830261D01*
X110928845Y-80799500D01*
X110928842Y-80799500D01*
X110771158Y-80799500D01*
X110771155Y-80799500D01*
X110616510Y-80830261D01*
X110616498Y-80830264D01*
X110470827Y-80890602D01*
X110470814Y-80890609D01*
X110339711Y-80978210D01*
X110339707Y-80978213D01*
X110228213Y-81089707D01*
X110228210Y-81089711D01*
X110140609Y-81220814D01*
X110140602Y-81220827D01*
X110080264Y-81366498D01*
X110080261Y-81366510D01*
X110049500Y-81521153D01*
X110049500Y-81678846D01*
X110063914Y-81751309D01*
X110057687Y-81820900D01*
X110014824Y-81876078D01*
X109948934Y-81899322D01*
X109942297Y-81899500D01*
X107925892Y-81899500D01*
X107794107Y-81899500D01*
X107666814Y-81933608D01*
X107666813Y-81933608D01*
X107666811Y-81933609D01*
X107666810Y-81933609D01*
X107576088Y-81985988D01*
X107508188Y-82002461D01*
X107442161Y-81979608D01*
X107421327Y-81960889D01*
X107411667Y-81950000D01*
X106475000Y-81950000D01*
X106475000Y-82450000D01*
X106802823Y-82450000D01*
X106869862Y-82469685D01*
X106915617Y-82522489D01*
X106925561Y-82591647D01*
X106896536Y-82655203D01*
X106890504Y-82661681D01*
X106618558Y-82933626D01*
X106557235Y-82967111D01*
X106506685Y-82967562D01*
X106466156Y-82959500D01*
X106466154Y-82959500D01*
X106283846Y-82959500D01*
X106283844Y-82959500D01*
X106105047Y-82995065D01*
X106105037Y-82995068D01*
X105936614Y-83064831D01*
X105808440Y-83150473D01*
X105741762Y-83171350D01*
X105674382Y-83152865D01*
X105670659Y-83150472D01*
X105543158Y-83065278D01*
X105543145Y-83065271D01*
X105374817Y-82995548D01*
X105374805Y-82995545D01*
X105196109Y-82960000D01*
X105013890Y-82960000D01*
X104835194Y-82995545D01*
X104835186Y-82995547D01*
X104666851Y-83065273D01*
X104607662Y-83104820D01*
X105042296Y-83539454D01*
X104969905Y-83558852D01*
X104890095Y-83604930D01*
X104824930Y-83670095D01*
X104778852Y-83749905D01*
X104759454Y-83822296D01*
X104324820Y-83387662D01*
X104285273Y-83446851D01*
X104215547Y-83615186D01*
X104215545Y-83615194D01*
X104180000Y-83793890D01*
X104180000Y-83976109D01*
X104215545Y-84154805D01*
X104215548Y-84154817D01*
X104240367Y-84214735D01*
X104247836Y-84284204D01*
X104216561Y-84346683D01*
X104156472Y-84382335D01*
X104086646Y-84379841D01*
X104029254Y-84339993D01*
X104022704Y-84331078D01*
X103982951Y-84271584D01*
X103982948Y-84271580D01*
X103878419Y-84167051D01*
X103878415Y-84167048D01*
X103755501Y-84084919D01*
X103755488Y-84084912D01*
X103618917Y-84028343D01*
X103618907Y-84028340D01*
X103473920Y-83999500D01*
X103473918Y-83999500D01*
X103326082Y-83999500D01*
X103326079Y-83999500D01*
X103322518Y-84000208D01*
X103320617Y-84000037D01*
X103320017Y-84000097D01*
X103320005Y-83999983D01*
X103252927Y-83993976D01*
X103197753Y-83951109D01*
X103174512Y-83885218D01*
X103190585Y-83817222D01*
X103210654Y-83790907D01*
X103270226Y-83731335D01*
X103270229Y-83731331D01*
X103352219Y-83592692D01*
X103352220Y-83592689D01*
X103397155Y-83438024D01*
X103397156Y-83438018D01*
X103399999Y-83401890D01*
X103400000Y-83401875D01*
X103400000Y-83300000D01*
X102636500Y-83300000D01*
X102627814Y-83297449D01*
X102618853Y-83298738D01*
X102594812Y-83287759D01*
X102569461Y-83280315D01*
X102563533Y-83273474D01*
X102555297Y-83269713D01*
X102541007Y-83247478D01*
X102523706Y-83227511D01*
X102521418Y-83216996D01*
X102517523Y-83210935D01*
X102512500Y-83176000D01*
X102512500Y-83024000D01*
X102532185Y-82956961D01*
X102584989Y-82911206D01*
X102636500Y-82900000D01*
X103399999Y-82900000D01*
X103399999Y-82798128D01*
X103399998Y-82798106D01*
X103397155Y-82761978D01*
X103352220Y-82607310D01*
X103352219Y-82607307D01*
X103270229Y-82468668D01*
X103270223Y-82468660D01*
X103156339Y-82354776D01*
X103150171Y-82349992D01*
X103151715Y-82348001D01*
X103112455Y-82305952D01*
X103099952Y-82237210D01*
X103126598Y-82172621D01*
X103134743Y-82163453D01*
X103146135Y-82151839D01*
X103156643Y-82145626D01*
X103270626Y-82031643D01*
X103280603Y-82014771D01*
X103291150Y-82004021D01*
X103309027Y-81994035D01*
X103323995Y-81980058D01*
X103338913Y-81977343D01*
X103352150Y-81969950D01*
X103372588Y-81971215D01*
X103392735Y-81967549D01*
X103406752Y-81973330D01*
X103421886Y-81974267D01*
X103438396Y-81986381D01*
X103457327Y-81994189D01*
X103465992Y-82006629D01*
X103478218Y-82015600D01*
X103485558Y-82034718D01*
X103497262Y-82051521D01*
X103500913Y-82069429D01*
X103501705Y-82069285D01*
X103502843Y-82075518D01*
X103547779Y-82230189D01*
X103547780Y-82230192D01*
X103629770Y-82368831D01*
X103629776Y-82368839D01*
X103743660Y-82482723D01*
X103743668Y-82482729D01*
X103882307Y-82564719D01*
X103882310Y-82564720D01*
X104036975Y-82609655D01*
X104036981Y-82609656D01*
X104073116Y-82612499D01*
X104575000Y-82612499D01*
X104676872Y-82612499D01*
X104676893Y-82612498D01*
X104713021Y-82609655D01*
X104867689Y-82564720D01*
X104867692Y-82564719D01*
X105006331Y-82482729D01*
X105006339Y-82482723D01*
X105120223Y-82368839D01*
X105120228Y-82368833D01*
X105134644Y-82344456D01*
X105185712Y-82296771D01*
X105254454Y-82284265D01*
X105316303Y-82308770D01*
X105415402Y-82383919D01*
X105556056Y-82439386D01*
X105644446Y-82450000D01*
X106075000Y-82450000D01*
X106075000Y-81950000D01*
X105131500Y-81950000D01*
X105064461Y-81930315D01*
X105046059Y-81909078D01*
X105043819Y-81911319D01*
X105007500Y-81875000D01*
X104575000Y-81875000D01*
X104575000Y-82612499D01*
X104073116Y-82612499D01*
X104175000Y-82612498D01*
X104175000Y-81799000D01*
X104194685Y-81731961D01*
X104247489Y-81686206D01*
X104299000Y-81675000D01*
X104375000Y-81675000D01*
X104375000Y-81599000D01*
X104394685Y-81531961D01*
X104447489Y-81486206D01*
X104499000Y-81475000D01*
X105256000Y-81475000D01*
X105323039Y-81494685D01*
X105341440Y-81515921D01*
X105343681Y-81513681D01*
X105380000Y-81550000D01*
X106075000Y-81550000D01*
X106075000Y-81050000D01*
X105644446Y-81050000D01*
X105556056Y-81060613D01*
X105415402Y-81116080D01*
X105377547Y-81144787D01*
X105312235Y-81169610D01*
X105243871Y-81155182D01*
X105195890Y-81109104D01*
X105120229Y-80981168D01*
X105120223Y-80981160D01*
X105039597Y-80900534D01*
X105006112Y-80839211D01*
X105011096Y-80769519D01*
X105039595Y-80725173D01*
X105120626Y-80644143D01*
X105184357Y-80536379D01*
X105192657Y-80528628D01*
X105197376Y-80518297D01*
X105217737Y-80505211D01*
X105235426Y-80488696D01*
X105248118Y-80485686D01*
X105256154Y-80480523D01*
X105291089Y-80475500D01*
X105369121Y-80475500D01*
X105414611Y-80484145D01*
X105415157Y-80484360D01*
X105415158Y-80484361D01*
X105555936Y-80539877D01*
X105644398Y-80550500D01*
X105644403Y-80550500D01*
X106888000Y-80550500D01*
X106955039Y-80570185D01*
X107000794Y-80622989D01*
X107012000Y-80674500D01*
X107012000Y-80926000D01*
X106992315Y-80993039D01*
X106939511Y-81038794D01*
X106888000Y-81050000D01*
X106475000Y-81050000D01*
X106475000Y-81550000D01*
X107411666Y-81550000D01*
X107418794Y-81541965D01*
X107478007Y-81504877D01*
X107515692Y-81500827D01*
X107515692Y-81500500D01*
X107518736Y-81500500D01*
X107518978Y-81500474D01*
X107519384Y-81500498D01*
X107519398Y-81500500D01*
X107519412Y-81500500D01*
X108780597Y-81500500D01*
X108780602Y-81500500D01*
X108869064Y-81489877D01*
X109009842Y-81434361D01*
X109130422Y-81342922D01*
X109221861Y-81222342D01*
X109277377Y-81081564D01*
X109288000Y-80993102D01*
X109288000Y-80606898D01*
X109277377Y-80518436D01*
X109221861Y-80377658D01*
X109221860Y-80377657D01*
X109221860Y-80377656D01*
X109130422Y-80257077D01*
X109009841Y-80165638D01*
X108949271Y-80141752D01*
X108894128Y-80098846D01*
X108870935Y-80032938D01*
X108880201Y-79978945D01*
X108919737Y-79883497D01*
X108950500Y-79728842D01*
X108950500Y-79571158D01*
X108950500Y-79571155D01*
X108950499Y-79571153D01*
X108920338Y-79419524D01*
X108919737Y-79416503D01*
X108885019Y-79332685D01*
X108859397Y-79270827D01*
X108859390Y-79270814D01*
X108771789Y-79139711D01*
X108771786Y-79139707D01*
X108693925Y-79061846D01*
X108660440Y-79000523D01*
X108665424Y-78930831D01*
X108707296Y-78874898D01*
X108769551Y-78850753D01*
X111388456Y-78595062D01*
X111403242Y-78597879D01*
G37*
%TD.AperFunction*%
%TA.AperFunction,Conductor*%
G36*
X105448176Y-83972435D02*
G01*
X105449062Y-83974057D01*
X105449513Y-83976224D01*
X105476201Y-84110393D01*
X105469974Y-84179984D01*
X105427111Y-84235162D01*
X105361221Y-84258406D01*
X105330393Y-84256201D01*
X105196225Y-84229513D01*
X105187868Y-84225141D01*
X105240095Y-84211148D01*
X105319905Y-84165070D01*
X105385070Y-84099905D01*
X105431148Y-84020095D01*
X105445756Y-83965575D01*
X105448176Y-83972435D01*
G37*
%TD.AperFunction*%
%TA.AperFunction,Conductor*%
G36*
X120275195Y-72338152D02*
G01*
X120328923Y-72382818D01*
X120349974Y-72449442D01*
X120350000Y-72451976D01*
X120350000Y-72687500D01*
X121026000Y-72687500D01*
X121093039Y-72707185D01*
X121138794Y-72759989D01*
X121150000Y-72811500D01*
X121150000Y-72887500D01*
X121226000Y-72887500D01*
X121293039Y-72907185D01*
X121338794Y-72959989D01*
X121350000Y-73011500D01*
X121350000Y-74056000D01*
X121330315Y-74123039D01*
X121277511Y-74168794D01*
X121226000Y-74180000D01*
X121200000Y-74180000D01*
X121200000Y-74950000D01*
X122099999Y-74950000D01*
X122099999Y-74793417D01*
X122093591Y-74722897D01*
X122093590Y-74722892D01*
X122043018Y-74560603D01*
X121955072Y-74415122D01*
X121848225Y-74308275D01*
X121814740Y-74246952D01*
X121819724Y-74177260D01*
X121861596Y-74121327D01*
X121927060Y-74096910D01*
X121934104Y-74096607D01*
X123425000Y-74075000D01*
X123892584Y-74068223D01*
X123959901Y-74086934D01*
X124006416Y-74139069D01*
X124017361Y-74208076D01*
X123989260Y-74272046D01*
X123969819Y-74288763D01*
X123970715Y-74289906D01*
X123964810Y-74294531D01*
X123844530Y-74414811D01*
X123756522Y-74560393D01*
X123705913Y-74722807D01*
X123699500Y-74793386D01*
X123699500Y-75506613D01*
X123705913Y-75577192D01*
X123756522Y-75739606D01*
X123844530Y-75885188D01*
X123964811Y-76005469D01*
X123964813Y-76005470D01*
X123964815Y-76005472D01*
X124110394Y-76093478D01*
X124110397Y-76093479D01*
X124110396Y-76093479D01*
X124266113Y-76142002D01*
X124324261Y-76180739D01*
X124336610Y-76198387D01*
X124379492Y-76272661D01*
X124379496Y-76272666D01*
X124484400Y-76377570D01*
X124484406Y-76377575D01*
X124720150Y-76613319D01*
X124753635Y-76674642D01*
X124748651Y-76744334D01*
X124706779Y-76800267D01*
X124641315Y-76824684D01*
X124632469Y-76825000D01*
X124400000Y-76825000D01*
X124400000Y-78950000D01*
X124915634Y-78950000D01*
X124915644Y-78949999D01*
X124940770Y-78948022D01*
X125009147Y-78962386D01*
X125058905Y-79011437D01*
X125074500Y-79071640D01*
X125074500Y-79343469D01*
X125054815Y-79410508D01*
X125038181Y-79431150D01*
X124556150Y-79913181D01*
X124494827Y-79946666D01*
X124468469Y-79949500D01*
X123484298Y-79949500D01*
X123447432Y-79952401D01*
X123447426Y-79952402D01*
X123289606Y-79998254D01*
X123289603Y-79998255D01*
X123148137Y-80081917D01*
X123148129Y-80081923D01*
X123031923Y-80198129D01*
X123031917Y-80198137D01*
X122948255Y-80339603D01*
X122948254Y-80339606D01*
X122902402Y-80497426D01*
X122902401Y-80497432D01*
X122899500Y-80534298D01*
X122899500Y-81255968D01*
X122879815Y-81323007D01*
X122879684Y-81323212D01*
X122872522Y-81334307D01*
X122829495Y-81377335D01*
X122760312Y-81497164D01*
X122760312Y-81497165D01*
X122755275Y-81515960D01*
X122755274Y-81515963D01*
X122724499Y-81630818D01*
X122724499Y-81779172D01*
X122724500Y-81779185D01*
X122724500Y-82330969D01*
X122715855Y-82360409D01*
X122709332Y-82390396D01*
X122705577Y-82395411D01*
X122704815Y-82398008D01*
X122688181Y-82418650D01*
X122668650Y-82438181D01*
X122607327Y-82471666D01*
X122580969Y-82474500D01*
X121881531Y-82474500D01*
X121814492Y-82454815D01*
X121793850Y-82438181D01*
X121017850Y-81662181D01*
X120984365Y-81600858D01*
X120989349Y-81531166D01*
X121031221Y-81475233D01*
X121096685Y-81450816D01*
X121105531Y-81450500D01*
X121255597Y-81450500D01*
X121255602Y-81450500D01*
X121344064Y-81439877D01*
X121484842Y-81384361D01*
X121605422Y-81292922D01*
X121696861Y-81172342D01*
X121752377Y-81031564D01*
X121763000Y-80943102D01*
X121763000Y-80556898D01*
X121752377Y-80468436D01*
X121696861Y-80327658D01*
X121696860Y-80327657D01*
X121696860Y-80327656D01*
X121684930Y-80311924D01*
X121660107Y-80246612D01*
X121674535Y-80178248D01*
X121723633Y-80128537D01*
X121783734Y-80112999D01*
X121939422Y-80112999D01*
X121939434Y-80112999D01*
X121975598Y-80110154D01*
X122130394Y-80065181D01*
X122269143Y-79983126D01*
X122383126Y-79869143D01*
X122465181Y-79730394D01*
X122510154Y-79575598D01*
X122513000Y-79539435D01*
X122512999Y-78910566D01*
X122510154Y-78874402D01*
X122465181Y-78719606D01*
X122429074Y-78658551D01*
X122383130Y-78580863D01*
X122383121Y-78580851D01*
X122269148Y-78466878D01*
X122269145Y-78466876D01*
X122269143Y-78466874D01*
X122188582Y-78419230D01*
X122140900Y-78368164D01*
X122140443Y-78365649D01*
X122900000Y-78365649D01*
X122902899Y-78402489D01*
X122902900Y-78402495D01*
X122948716Y-78560193D01*
X122948717Y-78560196D01*
X123032314Y-78701552D01*
X123032321Y-78701561D01*
X123148438Y-78817678D01*
X123148447Y-78817685D01*
X123289803Y-78901282D01*
X123289806Y-78901283D01*
X123447504Y-78947099D01*
X123447510Y-78947100D01*
X123484350Y-78949999D01*
X123484366Y-78950000D01*
X124000000Y-78950000D01*
X124000000Y-78087500D01*
X122900000Y-78087500D01*
X122900000Y-78365649D01*
X122140443Y-78365649D01*
X122128396Y-78299422D01*
X122155041Y-78234833D01*
X122188580Y-78205769D01*
X122269143Y-78158126D01*
X122383126Y-78044143D01*
X122465181Y-77905394D01*
X122510154Y-77750598D01*
X122513000Y-77714435D01*
X122512999Y-77409350D01*
X122900000Y-77409350D01*
X122900000Y-77687500D01*
X124000000Y-77687500D01*
X124000000Y-76825000D01*
X123484350Y-76825000D01*
X123447510Y-76827899D01*
X123447504Y-76827900D01*
X123289806Y-76873716D01*
X123289803Y-76873717D01*
X123148447Y-76957314D01*
X123148438Y-76957321D01*
X123032321Y-77073438D01*
X123032314Y-77073447D01*
X122948717Y-77214803D01*
X122948716Y-77214806D01*
X122902900Y-77372504D01*
X122902899Y-77372510D01*
X122900000Y-77409350D01*
X122512999Y-77409350D01*
X122512999Y-77396813D01*
X122512999Y-77085577D01*
X122512998Y-77085552D01*
X122512256Y-77076122D01*
X122510154Y-77049402D01*
X122465181Y-76894606D01*
X122420578Y-76819186D01*
X122383130Y-76755863D01*
X122383121Y-76755851D01*
X122269148Y-76641878D01*
X122269136Y-76641869D01*
X122130396Y-76559820D01*
X122130389Y-76559817D01*
X121975602Y-76514846D01*
X121975596Y-76514845D01*
X121939435Y-76512000D01*
X121335577Y-76512000D01*
X121335552Y-76512001D01*
X121299401Y-76514846D01*
X121144610Y-76559817D01*
X121144603Y-76559820D01*
X121005863Y-76641869D01*
X121005855Y-76641875D01*
X120898074Y-76749656D01*
X120836751Y-76783140D01*
X120767059Y-76778156D01*
X120711126Y-76736284D01*
X120686709Y-76670820D01*
X120688776Y-76637782D01*
X120700500Y-76578844D01*
X120700500Y-76421155D01*
X120700499Y-76421153D01*
X120676041Y-76298190D01*
X120682268Y-76228598D01*
X120725131Y-76173421D01*
X120791021Y-76150177D01*
X120797658Y-76149999D01*
X120800000Y-76149999D01*
X121200000Y-76149999D01*
X121456581Y-76149999D01*
X121527102Y-76143591D01*
X121527107Y-76143590D01*
X121689396Y-76093018D01*
X121834877Y-76005072D01*
X121955072Y-75884877D01*
X122043019Y-75739395D01*
X122093590Y-75577106D01*
X122100000Y-75506572D01*
X122100000Y-75350000D01*
X121200000Y-75350000D01*
X121200000Y-76149999D01*
X120800000Y-76149999D01*
X120800000Y-74144000D01*
X120819685Y-74076961D01*
X120872489Y-74031206D01*
X120924000Y-74020000D01*
X120950000Y-74020000D01*
X120950000Y-73087500D01*
X120350001Y-73087500D01*
X120350001Y-73489324D01*
X120365442Y-73606628D01*
X120365444Y-73606633D01*
X120425899Y-73752585D01*
X120522076Y-73877926D01*
X120589644Y-73929772D01*
X120630847Y-73986200D01*
X120635002Y-74055946D01*
X120600790Y-74116866D01*
X120539073Y-74149619D01*
X120525380Y-74151639D01*
X120472896Y-74156408D01*
X120472892Y-74156409D01*
X120310603Y-74206981D01*
X120165122Y-74294927D01*
X120044927Y-74415122D01*
X119956981Y-74560602D01*
X119952324Y-74575547D01*
X119939088Y-74595412D01*
X119929748Y-74617370D01*
X119920074Y-74623951D01*
X119913584Y-74633693D01*
X119891709Y-74643249D01*
X119871980Y-74656672D01*
X119860281Y-74656978D01*
X119849557Y-74661664D01*
X119825992Y-74657877D01*
X119802135Y-74658503D01*
X119788792Y-74651899D01*
X119780572Y-74650579D01*
X119769657Y-74644687D01*
X119756898Y-74636952D01*
X119751865Y-74631919D01*
X119618333Y-74552949D01*
X119617705Y-74552568D01*
X119612025Y-74546350D01*
X119574601Y-74508532D01*
X119520507Y-74414838D01*
X119520506Y-74414837D01*
X119520505Y-74414835D01*
X119422665Y-74316995D01*
X119422664Y-74316994D01*
X119418334Y-74312664D01*
X119418323Y-74312654D01*
X117997871Y-72892202D01*
X117964386Y-72830879D01*
X117969370Y-72761187D01*
X118011242Y-72705254D01*
X118065398Y-72682169D01*
X120205851Y-72329624D01*
X120275195Y-72338152D01*
G37*
%TD.AperFunction*%
%TD*%
%TA.AperFunction,Conductor*%
%TO.N,GND*%
G36*
X102455703Y-106367516D02*
G01*
X102462167Y-106373534D01*
X102492163Y-106403530D01*
X102521585Y-106432952D01*
X102644498Y-106515080D01*
X102644511Y-106515087D01*
X102723027Y-106547609D01*
X102781087Y-106571658D01*
X102781091Y-106571658D01*
X102781092Y-106571659D01*
X102926079Y-106600500D01*
X102926082Y-106600500D01*
X103073920Y-106600500D01*
X103185502Y-106578304D01*
X103218913Y-106571658D01*
X103334446Y-106523802D01*
X103403912Y-106516334D01*
X103466391Y-106547609D01*
X103479071Y-106561338D01*
X103622714Y-106742557D01*
X103633249Y-106768582D01*
X103646705Y-106793225D01*
X103647303Y-106803302D01*
X103648931Y-106807322D01*
X103647875Y-106812916D01*
X103648295Y-106819990D01*
X103649500Y-106819990D01*
X103649500Y-106826082D01*
X103649500Y-106973918D01*
X103649500Y-106973920D01*
X103649499Y-106973920D01*
X103678340Y-107118907D01*
X103678342Y-107118913D01*
X103683941Y-107132431D01*
X103688061Y-107142376D01*
X103697500Y-107189829D01*
X103697500Y-107596000D01*
X103677815Y-107663039D01*
X103641322Y-107699809D01*
X103542011Y-107764691D01*
X103527815Y-107813039D01*
X103475011Y-107858794D01*
X103423500Y-107870000D01*
X102710000Y-107870000D01*
X102710000Y-107999571D01*
X102720373Y-108085961D01*
X102722320Y-108093661D01*
X102719333Y-108094416D01*
X102720888Y-108111694D01*
X102725411Y-108143147D01*
X102723998Y-108146240D01*
X102724303Y-108149627D01*
X102709588Y-108177792D01*
X102696386Y-108206703D01*
X102693525Y-108208541D01*
X102691951Y-108211555D01*
X102664344Y-108227294D01*
X102637608Y-108244477D01*
X102633060Y-108245130D01*
X102631254Y-108246161D01*
X102602673Y-108249500D01*
X102401169Y-108249500D01*
X102334130Y-108229815D01*
X102288375Y-108177011D01*
X102278431Y-108107853D01*
X102285815Y-108080009D01*
X102289626Y-108070342D01*
X102300000Y-107983957D01*
X102300000Y-107854386D01*
X101586500Y-107854386D01*
X101577814Y-107851835D01*
X101568853Y-107853124D01*
X101544812Y-107842145D01*
X101519461Y-107834701D01*
X101513533Y-107827860D01*
X101505297Y-107824099D01*
X101491007Y-107801864D01*
X101473706Y-107781897D01*
X101471418Y-107771382D01*
X101467523Y-107765321D01*
X101462500Y-107730386D01*
X101462500Y-107678386D01*
X101482185Y-107611347D01*
X101534989Y-107565592D01*
X101586500Y-107554386D01*
X102300000Y-107554386D01*
X102300000Y-107440428D01*
X102710000Y-107440428D01*
X102710000Y-107570000D01*
X103386583Y-107570000D01*
X103397500Y-107562867D01*
X103397500Y-106945000D01*
X103205428Y-106945000D01*
X103119041Y-106955373D01*
X102981592Y-107009576D01*
X102981586Y-107009579D01*
X102863856Y-107098856D01*
X102774579Y-107216586D01*
X102774576Y-107216592D01*
X102720373Y-107354041D01*
X102710000Y-107440428D01*
X102300000Y-107440428D01*
X102300000Y-107424814D01*
X102289626Y-107338427D01*
X102235423Y-107200978D01*
X102235420Y-107200972D01*
X102146146Y-107083247D01*
X102146140Y-107083241D01*
X102139770Y-107078410D01*
X102098247Y-107022217D01*
X102093696Y-106952496D01*
X102098656Y-106935896D01*
X102103676Y-106922567D01*
X102115084Y-106905495D01*
X102171658Y-106768913D01*
X102182961Y-106712086D01*
X102186550Y-106702560D01*
X102190084Y-106697870D01*
X102195201Y-106684273D01*
X102216392Y-106647572D01*
X102250500Y-106520278D01*
X102250500Y-106461229D01*
X102270185Y-106394190D01*
X102322989Y-106348435D01*
X102392147Y-106338491D01*
X102455703Y-106367516D01*
G37*
%TD.AperFunction*%
%TA.AperFunction,Conductor*%
G36*
X119567468Y-98692707D02*
G01*
X119572192Y-98692206D01*
X119599460Y-98705905D01*
X119627667Y-98717541D01*
X119631555Y-98722028D01*
X119634626Y-98723571D01*
X119656729Y-98751079D01*
X119704374Y-98831643D01*
X119704376Y-98831645D01*
X119704378Y-98831648D01*
X119818351Y-98945621D01*
X119818355Y-98945624D01*
X119818357Y-98945626D01*
X119818360Y-98945627D01*
X119818363Y-98945630D01*
X119878319Y-98981087D01*
X119957106Y-99027681D01*
X119997928Y-99039541D01*
X120111897Y-99072653D01*
X120111900Y-99072653D01*
X120111902Y-99072654D01*
X120148065Y-99075500D01*
X120253823Y-99075499D01*
X120320861Y-99095183D01*
X120341504Y-99111818D01*
X121098254Y-99868568D01*
X121131739Y-99929891D01*
X121126755Y-99999583D01*
X121098254Y-100043930D01*
X120125245Y-101016940D01*
X120125244Y-101016940D01*
X120125245Y-101016941D01*
X120049500Y-101092686D01*
X119997294Y-101183110D01*
X119983608Y-101206814D01*
X119971124Y-101253407D01*
X119970002Y-101257594D01*
X119933637Y-101317254D01*
X119870790Y-101347783D01*
X119850227Y-101349500D01*
X119418482Y-101349500D01*
X119337519Y-101362323D01*
X119324696Y-101364354D01*
X119211658Y-101421950D01*
X119211657Y-101421951D01*
X119211652Y-101421954D01*
X119121954Y-101511652D01*
X119121951Y-101511657D01*
X119064352Y-101624698D01*
X119049500Y-101718475D01*
X119049500Y-105981517D01*
X119060292Y-106049657D01*
X119064354Y-106075304D01*
X119121950Y-106188342D01*
X119121952Y-106188344D01*
X119121954Y-106188347D01*
X119211652Y-106278045D01*
X119211654Y-106278046D01*
X119211658Y-106278050D01*
X119320767Y-106333644D01*
X119324698Y-106335647D01*
X119418475Y-106350499D01*
X119418481Y-106350500D01*
X121481518Y-106350499D01*
X121481522Y-106350499D01*
X121553267Y-106339136D01*
X121622561Y-106348091D01*
X121676013Y-106393087D01*
X121696623Y-106458368D01*
X121740124Y-108122259D01*
X121722198Y-108189790D01*
X121670608Y-108236910D01*
X121616166Y-108249500D01*
X111467442Y-108249500D01*
X111400403Y-108229815D01*
X111354648Y-108177011D01*
X111344704Y-108107853D01*
X111362623Y-108061090D01*
X111362211Y-108060870D01*
X111363967Y-108057584D01*
X111364342Y-108056606D01*
X111365081Y-108055499D01*
X111365084Y-108055495D01*
X111421658Y-107918913D01*
X111435001Y-107851835D01*
X111450500Y-107773920D01*
X111450500Y-107626079D01*
X111421659Y-107481092D01*
X111421658Y-107481091D01*
X111421658Y-107481087D01*
X111398349Y-107424814D01*
X111365087Y-107344511D01*
X111365080Y-107344498D01*
X111282951Y-107221584D01*
X111282948Y-107221580D01*
X111178419Y-107117051D01*
X111178415Y-107117048D01*
X111055501Y-107034919D01*
X111055488Y-107034912D01*
X110918917Y-106978343D01*
X110918908Y-106978340D01*
X110847617Y-106964159D01*
X110785706Y-106931773D01*
X110751133Y-106871057D01*
X110754874Y-106801287D01*
X110795741Y-106744616D01*
X110824356Y-106727981D01*
X110855495Y-106715084D01*
X110978416Y-106632951D01*
X111082951Y-106528416D01*
X111165084Y-106405495D01*
X111165648Y-106404132D01*
X111166133Y-106403530D01*
X111167954Y-106400124D01*
X111168599Y-106400469D01*
X111209482Y-106349726D01*
X111275773Y-106327654D01*
X111318533Y-106333644D01*
X111324696Y-106335646D01*
X111418481Y-106350500D01*
X113481518Y-106350499D01*
X113575304Y-106335646D01*
X113688342Y-106278050D01*
X113778050Y-106188342D01*
X113835646Y-106075304D01*
X113835646Y-106075302D01*
X113835647Y-106075301D01*
X113850500Y-105981524D01*
X113850500Y-104474500D01*
X113870185Y-104407461D01*
X113922989Y-104361706D01*
X113974500Y-104350500D01*
X115765890Y-104350500D01*
X115765892Y-104350500D01*
X115893186Y-104316392D01*
X116007314Y-104250500D01*
X117850500Y-102407314D01*
X117916392Y-102293186D01*
X117950500Y-102165892D01*
X117950500Y-102034107D01*
X117950500Y-100208676D01*
X117970185Y-100141637D01*
X117986819Y-100120995D01*
X119031921Y-99075893D01*
X119085005Y-99044499D01*
X119142894Y-99027681D01*
X119281643Y-98945626D01*
X119395626Y-98831643D01*
X119443269Y-98751082D01*
X119446739Y-98747841D01*
X119448246Y-98743337D01*
X119472032Y-98724225D01*
X119494336Y-98703400D01*
X119499009Y-98702549D01*
X119502712Y-98699575D01*
X119533058Y-98696356D01*
X119563078Y-98690896D01*
X119567468Y-98692707D01*
G37*
%TD.AperFunction*%
%TA.AperFunction,Conductor*%
G36*
X100627668Y-102992542D02*
G01*
X100656732Y-103026084D01*
X100704372Y-103106640D01*
X100704378Y-103106648D01*
X100818349Y-103220619D01*
X100818353Y-103220622D01*
X100818357Y-103220626D01*
X100827686Y-103226143D01*
X100888620Y-103262179D01*
X100936304Y-103313247D01*
X100949500Y-103368911D01*
X100949500Y-103434108D01*
X100949500Y-103565892D01*
X100960408Y-103606601D01*
X100983608Y-103693187D01*
X100999539Y-103720780D01*
X101049500Y-103807314D01*
X101049502Y-103807316D01*
X101230563Y-103988377D01*
X101264048Y-104049700D01*
X101259064Y-104119392D01*
X101217192Y-104175325D01*
X101151728Y-104199742D01*
X101092797Y-104189493D01*
X101019876Y-104157296D01*
X100994794Y-104154386D01*
X100750000Y-104154386D01*
X100750000Y-106254135D01*
X100740562Y-106301584D01*
X100728840Y-106329885D01*
X100728341Y-106331090D01*
X100728340Y-106331093D01*
X100699500Y-106476079D01*
X100699500Y-106476082D01*
X100699500Y-106623918D01*
X100699500Y-106623920D01*
X100699499Y-106623920D01*
X100728340Y-106768907D01*
X100728343Y-106768917D01*
X100784913Y-106905490D01*
X100797149Y-106923803D01*
X100804842Y-106948376D01*
X100816216Y-106971474D01*
X100815109Y-106981168D01*
X100818025Y-106990481D01*
X100811212Y-107015311D01*
X100808293Y-107040893D01*
X100801372Y-107051177D01*
X100799539Y-107057861D01*
X100790085Y-107071128D01*
X100760099Y-107107844D01*
X100733052Y-107126361D01*
X100706667Y-107145858D01*
X100704356Y-107146008D01*
X100702447Y-107147316D01*
X100669667Y-107148272D01*
X100636946Y-107150407D01*
X100634922Y-107149285D01*
X100632607Y-107149353D01*
X100604508Y-107132431D01*
X100575833Y-107116541D01*
X100573851Y-107113969D01*
X100572753Y-107113308D01*
X100571711Y-107111193D01*
X100557326Y-107092527D01*
X100545628Y-107072746D01*
X100545621Y-107072737D01*
X100431648Y-106958764D01*
X100431636Y-106958755D01*
X100292891Y-106876703D01*
X100290306Y-106875584D01*
X100288603Y-106874167D01*
X100286180Y-106872734D01*
X100286411Y-106872342D01*
X100236602Y-106830890D01*
X100215587Y-106764255D01*
X100220904Y-106725785D01*
X100221658Y-106723298D01*
X100223763Y-106712719D01*
X100236446Y-106648956D01*
X100250500Y-106578306D01*
X100250500Y-106478385D01*
X100270185Y-106411346D01*
X100322989Y-106365591D01*
X100374500Y-106354385D01*
X100450000Y-106354385D01*
X100450000Y-104154386D01*
X100211761Y-104154386D01*
X100144722Y-104134701D01*
X100098967Y-104081897D01*
X100089023Y-104012739D01*
X100104375Y-103968384D01*
X100116392Y-103947572D01*
X100150500Y-103820278D01*
X100150500Y-103688493D01*
X100150500Y-103368911D01*
X100170185Y-103301872D01*
X100211380Y-103262179D01*
X100236035Y-103247597D01*
X100281643Y-103220626D01*
X100395626Y-103106643D01*
X100443268Y-103026084D01*
X100494337Y-102978401D01*
X100563078Y-102965897D01*
X100627668Y-102992542D01*
G37*
%TD.AperFunction*%
%TA.AperFunction,Conductor*%
G36*
X106247432Y-105632020D02*
G01*
X106273788Y-105633904D01*
X106282844Y-105639723D01*
X106289888Y-105641256D01*
X106318142Y-105662407D01*
X106327520Y-105671785D01*
X106327525Y-105671788D01*
X106400585Y-105704047D01*
X106453962Y-105749133D01*
X106474490Y-105815918D01*
X106474500Y-105817482D01*
X106474500Y-106471517D01*
X106481916Y-106518337D01*
X106489354Y-106565304D01*
X106546950Y-106678342D01*
X106546952Y-106678344D01*
X106546954Y-106678347D01*
X106614524Y-106745917D01*
X106648009Y-106807240D01*
X106643025Y-106876932D01*
X106601153Y-106932865D01*
X106535689Y-106957282D01*
X106502651Y-106955215D01*
X106473920Y-106949500D01*
X106473918Y-106949500D01*
X106326082Y-106949500D01*
X106326080Y-106949500D01*
X106181092Y-106978340D01*
X106181082Y-106978343D01*
X106108804Y-107008282D01*
X106039335Y-107015751D01*
X105994776Y-106998333D01*
X105983296Y-106991027D01*
X105966643Y-106974374D01*
X105832139Y-106894829D01*
X105830424Y-106893738D01*
X105808704Y-106868896D01*
X105786196Y-106844789D01*
X105785663Y-106842541D01*
X105784435Y-106841137D01*
X105782939Y-106831051D01*
X105773000Y-106789126D01*
X105773000Y-106606610D01*
X105773000Y-106606608D01*
X105738892Y-106479314D01*
X105673000Y-106365186D01*
X105579814Y-106272000D01*
X105481819Y-106174005D01*
X105467115Y-106147077D01*
X105450523Y-106121259D01*
X105449631Y-106115058D01*
X105448334Y-106112682D01*
X105445500Y-106086324D01*
X105445500Y-105923886D01*
X105465185Y-105856847D01*
X105517989Y-105811092D01*
X105569500Y-105799886D01*
X105847730Y-105799886D01*
X105847740Y-105799886D01*
X105904077Y-105793829D01*
X106031516Y-105746297D01*
X106140401Y-105664787D01*
X106140403Y-105664783D01*
X106142775Y-105662412D01*
X106145724Y-105660801D01*
X106147500Y-105659472D01*
X106147691Y-105659727D01*
X106150723Y-105658071D01*
X106156151Y-105650821D01*
X106180905Y-105641588D01*
X106204096Y-105628923D01*
X106213130Y-105629568D01*
X106221615Y-105626404D01*
X106247432Y-105632020D01*
G37*
%TD.AperFunction*%
%TA.AperFunction,Conductor*%
G36*
X105756866Y-103709335D02*
G01*
X105757459Y-103708449D01*
X105885438Y-103793962D01*
X105885451Y-103793969D01*
X106005702Y-103843778D01*
X106022027Y-103850540D01*
X106022031Y-103850540D01*
X106022032Y-103850541D01*
X106167019Y-103879382D01*
X106167022Y-103879382D01*
X106314860Y-103879382D01*
X106427573Y-103856961D01*
X106459853Y-103850540D01*
X106472175Y-103845435D01*
X106487580Y-103843778D01*
X106501661Y-103837303D01*
X106521611Y-103840117D01*
X106541642Y-103837963D01*
X106545712Y-103840000D01*
X107176000Y-103840000D01*
X107243039Y-103859685D01*
X107288794Y-103912489D01*
X107300000Y-103964000D01*
X107300000Y-104016000D01*
X107280315Y-104083039D01*
X107227511Y-104128794D01*
X107176000Y-104140000D01*
X106596429Y-104140000D01*
X106570069Y-104230658D01*
X106560382Y-104245818D01*
X106555315Y-104263076D01*
X106541964Y-104274644D01*
X106532450Y-104289535D01*
X106516104Y-104297051D01*
X106502511Y-104308831D01*
X106476425Y-104315299D01*
X106468971Y-104318728D01*
X106464910Y-104318155D01*
X106458157Y-104319830D01*
X106455206Y-104320000D01*
X106430130Y-104322908D01*
X106430126Y-104322909D01*
X106327525Y-104368211D01*
X106318046Y-104374705D01*
X106316360Y-104372244D01*
X106270731Y-104397152D01*
X106201040Y-104392158D01*
X106145125Y-104350295D01*
X106140402Y-104343986D01*
X106112246Y-104322909D01*
X106031516Y-104262475D01*
X106031513Y-104262473D01*
X105904081Y-104214944D01*
X105904082Y-104214944D01*
X105904078Y-104214943D01*
X105904077Y-104214943D01*
X105847740Y-104208886D01*
X105469000Y-104208886D01*
X105460314Y-104206335D01*
X105451353Y-104207624D01*
X105427312Y-104196645D01*
X105401961Y-104189201D01*
X105396033Y-104182360D01*
X105387797Y-104178599D01*
X105373507Y-104156364D01*
X105356206Y-104136397D01*
X105353918Y-104125882D01*
X105350023Y-104119821D01*
X105348694Y-104110580D01*
X105345000Y-104106886D01*
X105024000Y-104106886D01*
X105015314Y-104104335D01*
X105006353Y-104105624D01*
X104982312Y-104094645D01*
X104956961Y-104087201D01*
X104951033Y-104080360D01*
X104942797Y-104076599D01*
X104928507Y-104054364D01*
X104911206Y-104034397D01*
X104908918Y-104023882D01*
X104905023Y-104017821D01*
X104900000Y-103982886D01*
X104900000Y-103940886D01*
X104919685Y-103873847D01*
X104972489Y-103828092D01*
X105024000Y-103816886D01*
X105345000Y-103816886D01*
X105381319Y-103780567D01*
X105384381Y-103783629D01*
X105417489Y-103754941D01*
X105444808Y-103746118D01*
X105515947Y-103731966D01*
X105569170Y-103721380D01*
X105636734Y-103693393D01*
X105706202Y-103685925D01*
X105756866Y-103709335D01*
G37*
%TD.AperFunction*%
%TA.AperFunction,Conductor*%
G36*
X98216710Y-103808644D02*
G01*
X98246697Y-103815168D01*
X98251712Y-103818922D01*
X98254309Y-103819685D01*
X98274951Y-103836319D01*
X98326951Y-103888319D01*
X98360436Y-103949642D01*
X98355452Y-104019334D01*
X98313580Y-104075267D01*
X98248116Y-104099684D01*
X98239270Y-104100000D01*
X97499000Y-104100000D01*
X97431961Y-104080315D01*
X97386206Y-104027511D01*
X97375000Y-103976000D01*
X97375000Y-103924000D01*
X97394685Y-103856961D01*
X97447489Y-103811206D01*
X97499000Y-103800000D01*
X98187270Y-103800000D01*
X98216710Y-103808644D01*
G37*
%TD.AperFunction*%
%TA.AperFunction,Conductor*%
G36*
X103512802Y-101683686D02*
G01*
X103558557Y-101736490D01*
X103567380Y-101763808D01*
X103578340Y-101818908D01*
X103578343Y-101818917D01*
X103634912Y-101955488D01*
X103634919Y-101955501D01*
X103717048Y-102078415D01*
X103717051Y-102078419D01*
X103725808Y-102087176D01*
X103759293Y-102148499D01*
X103754309Y-102218191D01*
X103752688Y-102222309D01*
X103728343Y-102281082D01*
X103728340Y-102281092D01*
X103699500Y-102426079D01*
X103699500Y-102426082D01*
X103699500Y-102573918D01*
X103699500Y-102573920D01*
X103699499Y-102573920D01*
X103728340Y-102718907D01*
X103728343Y-102718917D01*
X103784912Y-102855488D01*
X103784919Y-102855501D01*
X103833593Y-102928346D01*
X103854471Y-102995024D01*
X103835987Y-103062404D01*
X103784008Y-103109094D01*
X103743749Y-103120526D01*
X103725924Y-103122442D01*
X103725918Y-103122444D01*
X103598486Y-103169973D01*
X103598483Y-103169975D01*
X103489599Y-103251485D01*
X103408089Y-103360369D01*
X103408088Y-103360371D01*
X103365700Y-103474017D01*
X103323828Y-103529951D01*
X103258363Y-103554367D01*
X103190091Y-103539515D01*
X103187518Y-103538070D01*
X103093189Y-103483609D01*
X103093186Y-103483608D01*
X102965892Y-103449500D01*
X102965891Y-103449500D01*
X102158676Y-103449500D01*
X102129235Y-103440855D01*
X102099249Y-103434332D01*
X102094233Y-103430577D01*
X102091637Y-103429815D01*
X102070995Y-103413181D01*
X102066661Y-103408847D01*
X102033176Y-103347524D01*
X102038160Y-103277832D01*
X102076151Y-103226167D01*
X102076127Y-103226143D01*
X102076286Y-103225983D01*
X102078345Y-103223184D01*
X102081638Y-103220628D01*
X102081643Y-103220626D01*
X102195626Y-103106643D01*
X102277681Y-102967894D01*
X102315992Y-102836028D01*
X102322653Y-102813102D01*
X102322654Y-102813096D01*
X102325499Y-102776942D01*
X102325500Y-102776935D01*
X102325499Y-102283674D01*
X102345183Y-102216636D01*
X102361813Y-102195999D01*
X102857494Y-101700320D01*
X102918817Y-101666835D01*
X102945175Y-101664001D01*
X103445763Y-101664001D01*
X103512802Y-101683686D01*
G37*
%TD.AperFunction*%
%TA.AperFunction,Conductor*%
G36*
X116826550Y-100048959D02*
G01*
X116893416Y-100069207D01*
X116938724Y-100122395D01*
X116949500Y-100172954D01*
X116949500Y-101841324D01*
X116929815Y-101908363D01*
X116913181Y-101929005D01*
X115529005Y-103313181D01*
X115467682Y-103346666D01*
X115441324Y-103349500D01*
X113974499Y-103349500D01*
X113907460Y-103329815D01*
X113861705Y-103277011D01*
X113850499Y-103225500D01*
X113850499Y-101718482D01*
X113849392Y-101711492D01*
X113835646Y-101624696D01*
X113778050Y-101511658D01*
X113778046Y-101511654D01*
X113778045Y-101511652D01*
X113688347Y-101421954D01*
X113688344Y-101421952D01*
X113688342Y-101421950D01*
X113594628Y-101374200D01*
X113575301Y-101364352D01*
X113481524Y-101349500D01*
X113481519Y-101349500D01*
X111773500Y-101349500D01*
X111706461Y-101329815D01*
X111660706Y-101277011D01*
X111649500Y-101225500D01*
X111649500Y-101183110D01*
X111649500Y-101183108D01*
X111615392Y-101055814D01*
X111549500Y-100941686D01*
X111456314Y-100848500D01*
X110818568Y-100210754D01*
X110785083Y-100149431D01*
X110790067Y-100079739D01*
X110831939Y-100023806D01*
X110897403Y-99999389D01*
X110907260Y-99999078D01*
X116826550Y-100048959D01*
G37*
%TD.AperFunction*%
%TA.AperFunction,Conductor*%
G36*
X98772686Y-101654527D02*
G01*
X98828619Y-101696399D01*
X98853036Y-101761863D01*
X98838184Y-101830136D01*
X98836085Y-101833828D01*
X98822319Y-101857105D01*
X98822317Y-101857110D01*
X98777346Y-102011897D01*
X98777345Y-102011903D01*
X98774500Y-102048057D01*
X98774500Y-102498050D01*
X98754815Y-102565089D01*
X98702011Y-102610844D01*
X98674693Y-102619667D01*
X98631091Y-102628340D01*
X98631084Y-102628342D01*
X98494511Y-102684912D01*
X98494499Y-102684919D01*
X98481770Y-102693424D01*
X98415092Y-102714299D01*
X98347712Y-102695812D01*
X98301024Y-102643832D01*
X98289850Y-102574861D01*
X98293805Y-102555728D01*
X98297654Y-102542484D01*
X98300500Y-102506321D01*
X98300499Y-102075560D01*
X98320183Y-102008522D01*
X98336813Y-101987885D01*
X98641672Y-101683027D01*
X98702994Y-101649543D01*
X98772686Y-101654527D01*
G37*
%TD.AperFunction*%
%TA.AperFunction,Conductor*%
G36*
X103673952Y-100125615D02*
G01*
X103692582Y-100126936D01*
X103706176Y-100137098D01*
X103722169Y-100142798D01*
X103747489Y-100167386D01*
X103811024Y-100249713D01*
X103822506Y-100279172D01*
X103835612Y-100307938D01*
X103835099Y-100311478D01*
X103836399Y-100314812D01*
X103830133Y-100345796D01*
X103825605Y-100377087D01*
X103823259Y-100379789D01*
X103822550Y-100383296D01*
X103798673Y-100408110D01*
X103779802Y-100429849D01*
X103776954Y-100430682D01*
X103774863Y-100432856D01*
X103767693Y-100436995D01*
X103767684Y-100437002D01*
X103578005Y-100626682D01*
X103516682Y-100660167D01*
X103490324Y-100663001D01*
X102620607Y-100663001D01*
X102493311Y-100697109D01*
X102379185Y-100763001D01*
X102379181Y-100763004D01*
X102341003Y-100801182D01*
X102279680Y-100834667D01*
X102253323Y-100837500D01*
X100675000Y-100837500D01*
X100675000Y-101029571D01*
X100685373Y-101115958D01*
X100739576Y-101253407D01*
X100739579Y-101253413D01*
X100828856Y-101371142D01*
X100849946Y-101387135D01*
X100891470Y-101443327D01*
X100896023Y-101513048D01*
X100862158Y-101574163D01*
X100838144Y-101592671D01*
X100818362Y-101604369D01*
X100818351Y-101604378D01*
X100704378Y-101718351D01*
X100704371Y-101718360D01*
X100656732Y-101798915D01*
X100605663Y-101846599D01*
X100536921Y-101859102D01*
X100472332Y-101832457D01*
X100443268Y-101798915D01*
X100395628Y-101718360D01*
X100395621Y-101718351D01*
X100281648Y-101604378D01*
X100281636Y-101604369D01*
X100261857Y-101592672D01*
X100214173Y-101541604D01*
X100201669Y-101472862D01*
X100228314Y-101408272D01*
X100250055Y-101387134D01*
X100271143Y-101371143D01*
X100360420Y-101253413D01*
X100360423Y-101253407D01*
X100414626Y-101115958D01*
X100425000Y-101029571D01*
X100425000Y-100837500D01*
X99774000Y-100837500D01*
X99765314Y-100834949D01*
X99756353Y-100836238D01*
X99732312Y-100825259D01*
X99706961Y-100817815D01*
X99701033Y-100810974D01*
X99692797Y-100807213D01*
X99678507Y-100784978D01*
X99661206Y-100765011D01*
X99658918Y-100754496D01*
X99655023Y-100748435D01*
X99650000Y-100713500D01*
X99650000Y-100661500D01*
X99669685Y-100594461D01*
X99722489Y-100548706D01*
X99774000Y-100537500D01*
X100425000Y-100537500D01*
X100425000Y-100374500D01*
X100427550Y-100365814D01*
X100426262Y-100356853D01*
X100437240Y-100332812D01*
X100444685Y-100307461D01*
X100451525Y-100301533D01*
X100455287Y-100293297D01*
X100477521Y-100279007D01*
X100497489Y-100261706D01*
X100508003Y-100259418D01*
X100514065Y-100255523D01*
X100549000Y-100250500D01*
X100551000Y-100250500D01*
X100618039Y-100270185D01*
X100663794Y-100322989D01*
X100675000Y-100374500D01*
X100675000Y-100537500D01*
X102225000Y-100537500D01*
X102225000Y-100374500D01*
X102244685Y-100307461D01*
X102297489Y-100261706D01*
X102349000Y-100250500D01*
X103325182Y-100250500D01*
X103325184Y-100250500D01*
X103452478Y-100216392D01*
X103566606Y-100150500D01*
X103566608Y-100150497D01*
X103566613Y-100150495D01*
X103573057Y-100145551D01*
X103575054Y-100148154D01*
X103576478Y-100147375D01*
X103588306Y-100135196D01*
X103606499Y-100130957D01*
X103622887Y-100121996D01*
X103639818Y-100123196D01*
X103656354Y-100119344D01*
X103673952Y-100125615D01*
G37*
%TD.AperFunction*%
%TA.AperFunction,Conductor*%
G36*
X108452049Y-99978388D02*
G01*
X108518917Y-99998636D01*
X108564225Y-100051824D01*
X108573586Y-100121064D01*
X108568043Y-100143335D01*
X108552434Y-100187945D01*
X108552432Y-100187955D01*
X108549500Y-100219223D01*
X108549500Y-100455776D01*
X108552432Y-100487044D01*
X108552433Y-100487051D01*
X108573251Y-100546547D01*
X108574472Y-100570488D01*
X108580049Y-100593807D01*
X108576568Y-100611550D01*
X108576812Y-100616326D01*
X108573255Y-100628441D01*
X108571646Y-100633041D01*
X108530931Y-100689822D01*
X108495541Y-100709146D01*
X108490941Y-100710755D01*
X108476255Y-100711502D01*
X108465982Y-100715577D01*
X108451610Y-100712758D01*
X108421162Y-100714309D01*
X108409047Y-100710751D01*
X108349551Y-100689933D01*
X108349544Y-100689932D01*
X108318276Y-100687000D01*
X108318272Y-100687000D01*
X108081728Y-100687000D01*
X108081724Y-100687000D01*
X108050455Y-100689932D01*
X108050448Y-100689933D01*
X107990953Y-100710751D01*
X107921174Y-100714312D01*
X107909047Y-100710751D01*
X107849551Y-100689933D01*
X107849544Y-100689932D01*
X107818276Y-100687000D01*
X107818272Y-100687000D01*
X107581728Y-100687000D01*
X107581724Y-100687000D01*
X107550455Y-100689932D01*
X107550448Y-100689933D01*
X107490953Y-100710751D01*
X107421174Y-100714312D01*
X107409047Y-100710751D01*
X107349551Y-100689933D01*
X107349544Y-100689932D01*
X107318276Y-100687000D01*
X107318272Y-100687000D01*
X107081728Y-100687000D01*
X107081724Y-100687000D01*
X107050455Y-100689932D01*
X107050448Y-100689933D01*
X106990953Y-100710751D01*
X106921174Y-100714312D01*
X106909047Y-100710751D01*
X106849551Y-100689933D01*
X106849544Y-100689932D01*
X106818276Y-100687000D01*
X106818272Y-100687000D01*
X106581728Y-100687000D01*
X106581724Y-100687000D01*
X106550455Y-100689932D01*
X106550448Y-100689933D01*
X106490953Y-100710751D01*
X106421174Y-100714312D01*
X106409047Y-100710751D01*
X106349551Y-100689933D01*
X106349544Y-100689932D01*
X106318276Y-100687000D01*
X106318272Y-100687000D01*
X106081728Y-100687000D01*
X106081724Y-100687000D01*
X106050455Y-100689932D01*
X106050448Y-100689933D01*
X105990953Y-100710751D01*
X105921174Y-100714312D01*
X105909047Y-100710751D01*
X105849551Y-100689933D01*
X105849544Y-100689932D01*
X105818276Y-100687000D01*
X105818272Y-100687000D01*
X105581728Y-100687000D01*
X105581724Y-100687000D01*
X105550455Y-100689932D01*
X105550448Y-100689933D01*
X105490953Y-100710751D01*
X105467004Y-100711973D01*
X105443678Y-100717548D01*
X105425949Y-100714068D01*
X105421174Y-100714312D01*
X105409044Y-100710750D01*
X105404443Y-100709140D01*
X105347668Y-100668418D01*
X105328358Y-100633054D01*
X105314607Y-100593758D01*
X105301469Y-100556211D01*
X105218589Y-100443911D01*
X105198943Y-100429412D01*
X105189385Y-100417961D01*
X105181964Y-100400884D01*
X105167340Y-100381625D01*
X105165964Y-100364067D01*
X105161537Y-100353881D01*
X105163985Y-100338825D01*
X105161881Y-100311968D01*
X105171165Y-100294686D01*
X105172754Y-100284918D01*
X105181842Y-100274811D01*
X105194947Y-100250419D01*
X105209592Y-100237729D01*
X105210947Y-100236729D01*
X105218605Y-100233931D01*
X105219474Y-100232966D01*
X105226560Y-100231026D01*
X105231416Y-100229252D01*
X105257972Y-100198546D01*
X105260827Y-100178414D01*
X105273946Y-100156080D01*
X105301469Y-100118789D01*
X105330398Y-100036113D01*
X105371118Y-99979341D01*
X105436070Y-99953593D01*
X105448441Y-99953076D01*
X108452049Y-99978388D01*
G37*
%TD.AperFunction*%
%TD*%
M02*
